<svg xmlns="http://www.w3.org/2000/svg" viewBox="0 0 72.01 49.11">
  <path d="M51.49 18.66a1.2 1.2 0 0 1-.49-2.29l4.69-2.19a1.2 1.2 0 0 1 1 2.18L52 18.55a1.25 1.25 0 0 1-.51.11Z" />
  <path d="M11.71 25.91a1.2 1.2 0 0 1-.83-.33L5 19.94a3 3 0 0 0-2.08-.83l.52 1.11a1.2 1.2 0 0 1-2.18 1L.11 18.81a1.21 1.21 0 0 1 .58-1.6 5.3 5.3 0 0 1 6 1l5.22 5c4.55-2.77 27-16.28 36.09-20.49 12.3-5.72 20.32-.84 22.48.8a4 4 0 0 1 1.13 1.37 4 4 0 0 1-1.87 5.37 1.2 1.2 0 1 1-1-2.17A1.58 1.58 0 0 0 69.48 6a1.88 1.88 0 0 0-.48-.56C67.13 4 60.1-.29 49 4.89c-9.8 4.55-36.4 20.68-36.66 20.84a1.21 1.21 0 0 1-.63.18ZM8.4 35a1.2 1.2 0 0 1-.23-2.38l13.68-2.66 9.73-4.54a1.2 1.2 0 1 1 1 2.17l-9.87 4.61a1.22 1.22 0 0 1-.27.09L8.63 35Z" />
  <path d="M27 49.11a1.19 1.19 0 0 1-1.17-1.47l6.09-25.71a1.2 1.2 0 1 1 2.33.55l-5.68 24a14.83 14.83 0 0 0 10.19-7.62l14.44-27.2a1.2 1.2 0 1 1 2.12 1.13L40.89 40a17.23 17.23 0 0 1-13.77 9.12ZM25 18a1.09 1.09 0 0 1-.53-.13L5.86 8.7a1.24 1.24 0 0 1-.66-.88 1.21 1.21 0 0 1 .33-1 17.4 17.4 0 0 1 12.33-5.23 18.31 18.31 0 0 1 3.45.41l20.55 4.13a1.2 1.2 0 1 1-.48 2.35L20.84 4.31a14.77 14.77 0 0 0-12.34 3l17 8.37A1.2 1.2 0 0 1 25 18Z" />
  <path fill="#fd0" d="M63.79 11.72a1.2 1.2 0 0 0-1.6-.58l-6.52 3a1.2 1.2 0 0 1 1 2.18l6.53-3a1.2 1.2 0 0 0 .59-1.6Zm-60.37 8.5a1.2 1.2 0 0 1-2.18 1l3 6.53a1.18 1.18 0 0 0 1.09.69 1.13 1.13 0 0 0 .5-.11 1.2 1.2 0 0 0 .58-1.59Z" />
</svg>
