<svg xmlns="http://www.w3.org/2000/svg" viewBox="0 0 69.33 62.85">
  <path d="M68.7 55.69 45.85 14.93a1.2 1.2 0 0 0-2.1 1.17l22.86 40.76a2.4 2.4 0 0 1-2.1 3.58H17.77a1.2 1.2 0 0 0 0 2.4h46.74a4.79 4.79 0 0 0 4.19-7.15ZM4.81 60.45a2.41 2.41 0 0 1-2.1-3.58L32.57 3.63a2.48 2.48 0 0 1 4.19 0l.59 1a1.2 1.2 0 0 0 2.09-1.13l-.59-1a4.81 4.81 0 0 0-8.38 0L.62 55.69a4.81 4.81 0 0 0 4.19 7.16 1.2 1.2 0 1 0 0-2.4Z" />
  <path d="M35.86 42V25.64a1.2 1.2 0 0 0-2.4 0V42a1.2 1.2 0 0 0 2.4 0Z" />
  <circle cx="34.66" cy="49.19" r="1.8" />
  <path fill="#fd0" d="M42.32 8.65a1.2 1.2 0 0 0-2.09 1.17l3.52 6.28a1.2 1.2 0 0 1 2.1-1.17ZM4.66 62.85h.15a3 3 0 0 1-.42-.06 1.18 1.18 0 0 0 .27.06Z" />
  <path fill="#fd0" d="M11.77 60.45h-7a1.2 1.2 0 1 1 0 2.4h7a1.2 1.2 0 1 0 0-2.4Z" />
</svg>
