<svg xmlns="http://www.w3.org/2000/svg" viewBox="0 0 60.01 64.21">
  <path d="M8.4 59.41H48A1.2 1.2 0 1 0 48 57H8.4a1.2 1.2 0 0 0 0 2.4Zm0-4.8H48a1.2 1.2 0 1 0 0-2.4H8.4a1.2 1.2 0 1 0 0 2.4ZM48 42.6H8.4a1.21 1.21 0 0 0 0 2.4H48a1.21 1.21 0 0 0 0-2.41Zm0-4.8H8.4a1.2 1.2 0 1 0 0 2.4H48a1.2 1.2 0 0 0 0-2.4Z" />
  <path d="M58.81 49.81a1.2 1.2 0 0 0 0-2.4 5.75 5.75 0 0 1-6-6 5.75 5.75 0 0 1 6-6 1.2 1.2 0 0 0 0-2.4H39.87a9 9 0 0 0 1-1 1.2 1.2 0 0 0-.14-1.69 1.18 1.18 0 0 0-1.69.14A7 7 0 0 1 33.47 33a12 12 0 0 1-3-.38 1.19 1.19 0 0 0-.83 0 12 12 0 0 1-3.06.38 7 7 0 0 1-7.15-6L18 17.14a6.08 6.08 0 0 1 6-6.94h12a6.09 6.09 0 0 1 6 6.94 1.2 1.2 0 0 0 2.38.34A8.49 8.49 0 0 0 36 7.8h-4.7c.23-2.58 1.16-4.45 2.95-5.59A1.2 1.2 0 1 0 33 .19a8.69 8.69 0 0 0-1.9 1.66 6.8 6.8 0 0 0-8.69.95 1.19 1.19 0 0 0 0 1.6 6.59 6.59 0 0 0 4.89 2.2 6.68 6.68 0 0 0 1.7-.28c-.08.46-.09 1-.13 1.48H24a8.49 8.49 0 0 0-8.4 9.68l1.4 9.83A9.31 9.31 0 0 0 20 33H8.4a8.38 8.38 0 0 0-4.27 15.6 1.19 1.19 0 0 0-.37 1.57 1.22 1.22 0 0 0 1.64.44 6 6 0 0 1 3-.8h44.36a8.83 8.83 0 0 0 0 12H8.4a6 6 0 0 1-3-.81 1.2 1.2 0 0 0-1.2 2.08 8.34 8.34 0 0 0 4.2 1.13h50.41a1.2 1.2 0 0 0 0-2.4 6 6 0 0 1 0-12ZM25.12 3.6a4.22 4.22 0 0 1 4.29 0 4.22 4.22 0 0 1-4.29 0ZM8.4 47.41a6 6 0 0 1 0-12h44.36a8.85 8.85 0 0 0 0 12Z" />
  <path fill="#fd0" d="M42.37 23.25a1.23 1.23 0 0 0-1.36 1L40.63 27a7.1 7.1 0 0 1-1.58 3.53 1.18 1.18 0 0 1 1.69-.14 1.2 1.2 0 0 1 .14 1.69A9.39 9.39 0 0 0 43 27.31l.39-2.7a1.21 1.21 0 0 0-1.02-1.36ZM3.76 50.17a1.2 1.2 0 0 1 .44-1.64A8.43 8.43 0 0 0 0 55.81a1.2 1.2 0 0 0 2.4 0 6 6 0 0 1 3-5.2 1.22 1.22 0 0 1-1.64-.44Z" />
</svg>
