<svg xmlns="http://www.w3.org/2000/svg" viewBox="0 0 55.17 68.59">
  <path d="M43.79 35.4h-7.33a1.2 1.2 0 0 0-1 .55l-4.32 6.59a1.2 1.2 0 0 0 1 1.86h16a1.2 1.2 0 0 0 1.06-.63 1.18 1.18 0 0 0-.06-1.23L44.8 36a1.21 1.21 0 0 0-1.01-.6ZM34.37 42l2.74-4.2h2.56L41 42Zm9.17 0-1.35-4.2h1l2.7 4.2Zm-15.95-6.6H6.91a1.2 1.2 0 1 0 0 2.4h20.68a1.2 1.2 0 0 0 0-2.4Zm0 6.6H6.91a1.2 1.2 0 0 0-1.2 1.2v6.6a1.2 1.2 0 0 0 1.2 1.2h20.68a1.2 1.2 0 0 0 1.2-1.2v-6.6a1.2 1.2 0 0 0-1.2-1.2Zm-1.2 6.6H8.11v-4.2h18.28Zm1.36-36.34c-.59-.16-1.59-.42-1.77-.49a2.45 2.45 0 0 1 1.62-.45 3.22 3.22 0 0 1 1.86.45 1.2 1.2 0 1 0 1.31-2 5.23 5.23 0 0 0-2-.7 1.18 1.18 0 0 0-2.33 0c-1.67.31-2.79 1.27-2.83 2.56-.07 2 2 2.58 3.53 3 1 .25 2.17.57 2.18 1.05 0 .23-.06.29-.12.34-.64.52-2.74.45-4.31.08a1.2 1.2 0 0 0-.55 2.34 13.94 13.94 0 0 0 2.06.31 1.2 1.2 0 1 0 2.4 0v-.09a4.12 4.12 0 0 0 1.92-.78 2.74 2.74 0 0 0 1-2.28c-.07-2.31-2.42-2.93-3.97-3.34Z" />
  <path d="M5.63 14.34a1.2 1.2 0 0 0 1.52-.76L10.32 4a2.39 2.39 0 0 1 2.27-1.6h30A2.38 2.38 0 0 1 44.85 4l7.8 23.59a2.46 2.46 0 0 1 .12.76 1.2 1.2 0 0 0 2.4 0 4.82 4.82 0 0 0-.24-1.51l-7.8-23.55A4.78 4.78 0 0 0 42.58 0h-30A4.78 4.78 0 0 0 8 3.29l-3.13 9.54a1.21 1.21 0 0 0 .76 1.51ZM54 41.59a1.2 1.2 0 0 0-1.2 1.2v21a2.39 2.39 0 0 1-2.39 2.39H4.79A2.39 2.39 0 0 1 2.4 63.8V28.39a2.36 2.36 0 0 1 .12-.75 1.2 1.2 0 0 0-2.28-.76A4.82 4.82 0 0 0 0 28.39V63.8a4.8 4.8 0 0 0 4.79 4.79h45.59a4.8 4.8 0 0 0 4.79-4.79v-21A1.2 1.2 0 0 0 54 41.59Z" />
  <path d="M46.64 23.31a1.21 1.21 0 0 0 1.16-1.53L43.16 5.49A1.2 1.2 0 0 0 42 4.62H13.17a1.21 1.21 0 0 0-1.17.87L7.38 21.78a1.16 1.16 0 0 0 .19 1 1.21 1.21 0 0 0 1 .48ZM14.07 7h27l3.95 13.89h-34.9Zm35.72 20.93a1.2 1.2 0 0 0-1.2-1.2h-42a1.2 1.2 0 0 0 0 2.4h42a1.2 1.2 0 0 0 1.2-1.2Z" />
  <path fill="#fd0" d="M5.63 14.34a1.21 1.21 0 0 1-.76-1.51l-2.24 6.84a1.2 1.2 0 0 0 .76 1.52 1.24 1.24 0 0 0 .38 0 1.21 1.21 0 0 0 1.14-.82l2.24-6.84a1.2 1.2 0 0 1-1.52.81ZM54 34.39a1.2 1.2 0 0 0-1.2 1.2v7.2a1.2 1.2 0 0 1 2.4 0v-7.2a1.19 1.19 0 0 0-1.2-1.2Z" />
</svg>
