<svg xmlns="http://www.w3.org/2000/svg" viewBox="0 0 72.01 60.01">
  <path d="M38.29 30.08c-1.35 1-4.42.62-6.15.11a1.2 1.2 0 1 0-.68 2.3 16.63 16.63 0 0 0 3.35.58V34a1.2 1.2 0 0 0 2.4 0v-1a5.56 5.56 0 0 0 2.51-1 4.28 4.28 0 0 0 1.68-3.63c0-3.47-3-4.52-5.2-5.28s-3.2-1.23-3.2-2.4 1.52-1.94 3-1.94a4.12 4.12 0 0 1 3 1A1.2 1.2 0 0 0 40.63 18a6.31 6.31 0 0 0-3.42-1.56v-.79a1.2 1.2 0 0 0-2.4 0v.82c-2.2.39-4.19 1.83-4.19 4.22 0 3 2.65 3.92 4.79 4.67 2.5.87 3.59 1.41 3.59 3a1.93 1.93 0 0 1-.71 1.72Z" />
  <path d="M70.81 57.61H66v-36a1.2 1.2 0 1 0-2.4 0v36h-7.8V9.6h9a1.2 1.2 0 1 0 0-2.4h-9v-6A1.2 1.2 0 0 0 54.61 0H17.4a1.2 1.2 0 0 0-1.2 1.2v6h-9A1.2 1.2 0 0 0 6 8.4v37.22a1.2 1.2 0 1 0 2.4 0V9.6h7.8v48h-15a1.2 1.2 0 1 0 0 2.4h69.61a1.2 1.2 0 1 0 0-2.4ZM42 57.52H30V45.6h12ZM18.6 2.4h34.81v55.12h-9V44.4a1.2 1.2 0 0 0-1.2-1.2H28.8a1.2 1.2 0 0 0-1.2 1.2v13.12h-9Z" />
  <path fill="#fd0" d="M64.81 13.2a1.2 1.2 0 0 0-1.2 1.2v7.2a1.2 1.2 0 1 1 2.4 0v-7.2a1.2 1.2 0 0 0-1.2-1.2ZM7.2 46.82a1.2 1.2 0 0 1-1.2-1.2v7.2a1.2 1.2 0 1 0 2.4 0v-7.2a1.2 1.2 0 0 1-1.2 1.2Z" />
</svg>
