<svg xmlns="http://www.w3.org/2000/svg" viewBox="0 0 68.41 68.42">
  <path d="M62.58 43.78a10.82 10.82 0 0 0-1.92-20 10.73 10.73 0 0 0 1.49-5.39 10.89 10.89 0 0 0-1.36-5.28 1.21 1.21 0 0 0-1.64-.47 1.2 1.2 0 0 0-.46 1.63 8.48 8.48 0 0 1-7.42 12.59 8.43 8.43 0 0 1-6.09-2.61 1.2 1.2 0 0 0-1.74 1.66A11 11 0 0 0 46.25 28a15.83 15.83 0 0 0-4.71 11.34 1.2 1.2 0 0 0 2.4 0A13.41 13.41 0 0 1 48.77 29a11 11 0 0 0 2.5.32 10.81 10.81 0 0 0 7.84-3.37 8.46 8.46 0 0 1-1.58 16.77 8.22 8.22 0 0 1-6-2.49 1.2 1.2 0 1 0-1.71 1.68 10.61 10.61 0 0 0 7.68 3.21 10.9 10.9 0 0 0 2.31-.26 7.32 7.32 0 0 1-3.41 13.75 7.11 7.11 0 0 1-4.06-1.27 9.72 9.72 0 0 0-9.6-8.4 1.2 1.2 0 1 0 0 2.4 7.34 7.34 0 1 1-7.34 7.34V13.74a8 8 0 0 0 5.6 2.32 1.2 1.2 0 0 0 0-2.4A5.63 5.63 0 1 1 46.66 8a4.81 4.81 0 0 1-.12 1.12 1.2 1.2 0 0 0 .87 1.45 1.21 1.21 0 0 0 1.46-.87 7 7 0 0 0 .19-1.7A8 8 0 0 0 34.2 3.86a8 8 0 0 0-14.83 3.93 10.47 10.47 0 0 0-2.24-.26A10.89 10.89 0 0 0 6.26 18.41a10.73 10.73 0 0 0 1.49 5.39 10.82 10.82 0 0 0-1.92 20 9.7 9.7 0 0 0-2 12.76 1.19 1.19 0 0 0 1.65.36 1.2 1.2 0 0 0 .36-1.66 7.32 7.32 0 0 1 2.73-10.44 10.88 10.88 0 0 0 2.3.26 10.61 10.61 0 0 0 7.69-3.21 1.2 1.2 0 0 0-1.72-1.68 8.22 8.22 0 0 1-6 2.49A8.46 8.46 0 0 1 9.3 25.91a10.8 10.8 0 0 0 7.83 3.37 11.14 11.14 0 0 0 2.51-.28 13.44 13.44 0 0 1 4.83 10.37 1.2 1.2 0 0 0 2.4 0A15.79 15.79 0 0 0 22.15 28 10.83 10.83 0 0 0 25 25.93a1.21 1.21 0 0 0 0-1.7 1.19 1.19 0 0 0-1.69 0 8.47 8.47 0 1 1-6.1-14.34 8.23 8.23 0 0 1 3.12.62h.12a.7.7 0 0 0 .25 0 1 1 0 0 0 .24 0h.13l.23-.11a.81.81 0 0 0 .18-.12 1.22 1.22 0 0 0 .15-.17 1.43 1.43 0 0 0 .14-.2.43.43 0 0 0 0-.07.61.61 0 0 0 0-.13 2 2 0 0 0 .05-.24 2 2 0 0 0 0-.25v-.13A4.81 4.81 0 0 1 21.75 8a5.63 5.63 0 1 1 5.63 5.63 1.2 1.2 0 0 0 0 2.4A8 8 0 0 0 33 13.74v44.94a7.34 7.34 0 1 1-7.33-7.34 1.2 1.2 0 0 0 0-2.4 9.74 9.74 0 1 0 8.53 14.32 9.67 9.67 0 0 0 18.13-3.17 9.71 9.71 0 0 0 10.25-16.31Z" />
  <path fill="#fd0" d="M54.93 8.16a1.2 1.2 0 0 0-.81 2.26 8.53 8.53 0 0 1 4.57 3.87 1.2 1.2 0 0 1 .46-1.63 1.21 1.21 0 0 1 1.64.47 10.89 10.89 0 0 0-5.86-4.97ZM10.73 58.5a7.35 7.35 0 0 1-4.89-3.26 1.2 1.2 0 0 1-.36 1.66 1.19 1.19 0 0 1-1.65-.36 9.78 9.78 0 0 0 6.49 4.32h.21a1.2 1.2 0 0 0 .21-2.38Z" />
</svg>
