<svg xmlns="http://www.w3.org/2000/svg" viewBox="0 0 72.01 62.53">
  <path d="M28.79 36H43.2a1.2 1.2 0 0 0 1.2-1.2V32l23.31-11a1.2 1.2 0 0 0-1-2.18L44.4 29.31V27.6a1.2 1.2 0 0 0-1.2-1.2H28.79a1.2 1.2 0 0 0-1.2 1.2v1.71L5.31 18.8a1.21 1.21 0 0 0-1 2.18L27.59 32v2.8a1.2 1.2 0 0 0 1.2 1.2ZM42 28.8v4.8H30v-4.8Zm18.23 19.97c-1.79-.62-2.34-.94-2.34-1.66S59 45.83 60 45.83a3.07 3.07 0 0 1 2.21.75 1.2 1.2 0 1 0 1.61-1.79 5.31 5.31 0 0 0-2.62-1.26v-.41a1.2 1.2 0 0 0-2.4 0v.45c-1.77.38-3.33 1.58-3.33 3.54 0 2.55 2.29 3.34 4 3.93 1.91.66 2.68 1 2.68 2.15a1.28 1.28 0 0 1-.46 1.15c-.89.66-3.06.52-4.65 0a1.2 1.2 0 0 0-.68 2.3 14.13 14.13 0 0 0 2.48.46v.46a1.2 1.2 0 0 0 2.4 0V57a4.67 4.67 0 0 0 1.88-.78 3.63 3.63 0 0 0 1.43-3.08c-.03-2.88-2.55-3.74-4.32-4.37Z" />
  <path d="M70.81 24a1.2 1.2 0 0 0-1.2 1.2v18a11.88 11.88 0 0 0-21.5 6.06H4.8a2.41 2.41 0 0 1-2.4-2.4 1.2 1.2 0 0 0-2.4 0 4.81 4.81 0 0 0 4.8 4.8h43.32a12 12 0 1 0 23.66-3.42A4.39 4.39 0 0 0 72 46.8V25.19A1.2 1.2 0 0 0 70.81 24ZM60 60.13a9.7 9.7 0 0 1-9.6-9.72 9.6 9.6 0 1 1 9.6 9.72ZM1.2 33a1.2 1.2 0 0 0 1.2-1.2v-21a2.41 2.41 0 0 1 2.4-2.4h62.41a2.43 2.43 0 0 1 2.4 2.4 1.2 1.2 0 1 0 2.4 0 4.81 4.81 0 0 0-4.8-4.8H51.6V4.8A4.8 4.8 0 0 0 46.8 0H25.19a4.8 4.8 0 0 0-4.79 4.8V6H4.8A4.81 4.81 0 0 0 0 10.79v21A1.2 1.2 0 0 0 1.2 33ZM22.8 4.8a2.39 2.39 0 0 1 2.39-2.4H46.8a2.4 2.4 0 0 1 2.4 2.4V6H22.8Z" />
  <path fill="#fd0" d="M1.2 33A1.2 1.2 0 0 1 0 31.8V39a1.2 1.2 0 0 0 2.4 0v-7.2A1.2 1.2 0 0 1 1.2 33Zm69.61-16.21a1.2 1.2 0 0 0-1.2 1.2v7.2a1.2 1.2 0 1 1 2.4 0V18a1.2 1.2 0 0 0-1.2-1.21Z" />
</svg>
