<svg xmlns="http://www.w3.org/2000/svg" viewBox="0 0 45.6 61.21">
  <path d="M38.4 10.8A4.8 4.8 0 0 0 33.6 6H12a4.8 4.8 0 0 0-4.8 4.8V18a4.8 4.8 0 0 0 4.8 4.8h21.6a4.8 4.8 0 0 0 4.8-4.8ZM36 18a2.39 2.39 0 0 1-2.4 2.4H12A2.4 2.4 0 0 1 9.6 18v-7.2A2.41 2.41 0 0 1 12 8.4h21.6a2.4 2.4 0 0 1 2.4 2.4Zm-25.2 7.2a3.6 3.6 0 1 0 3.6 3.6 3.61 3.61 0 0 0-3.6-3.6Zm0 4.8a1.2 1.2 0 1 1 1.2-1.2 1.2 1.2 0 0 1-1.2 1.2Zm24-4.8a3.6 3.6 0 1 0 3.6 3.6 3.61 3.61 0 0 0-3.6-3.6Zm0 4.8a1.2 1.2 0 1 1 1.2-1.2 1.2 1.2 0 0 1-1.2 1.2Zm-12-4.8a3.6 3.6 0 1 0 3.6 3.6 3.61 3.61 0 0 0-3.6-3.6Zm0 4.8a1.2 1.2 0 1 1 1.2-1.2 1.2 1.2 0 0 1-1.2 1.2Zm-12 19.21a3.6 3.6 0 1 0 3.6 3.6 3.6 3.6 0 0 0-3.6-3.6Zm0 4.8a1.2 1.2 0 1 1 1.2-1.2A1.2 1.2 0 0 1 10.8 54Zm0-16.81a3.6 3.6 0 1 0 3.6 3.6 3.61 3.61 0 0 0-3.6-3.6Zm0 4.8a1.2 1.2 0 1 1 1.2-1.2 1.2 1.2 0 0 1-1.2 1.2Zm12 7.21a3.6 3.6 0 1 0 3.6 3.6 3.6 3.6 0 0 0-3.6-3.6Zm0 4.8a1.2 1.2 0 1 1 1.2-1.2A1.2 1.2 0 0 1 22.8 54Zm0-16.81a3.6 3.6 0 1 0 3.6 3.6 3.61 3.61 0 0 0-3.6-3.6Zm0 4.8a1.2 1.2 0 1 1 1.2-1.2 1.2 1.2 0 0 1-1.2 1.2Zm12 7.21a3.6 3.6 0 1 0 3.6 3.6 3.6 3.6 0 0 0-3.6-3.6Zm0 4.8a1.2 1.2 0 0 1 0-2.4 1.2 1.2 0 0 1 0 2.4Zm0-16.81a3.6 3.6 0 1 0 3.6 3.6 3.61 3.61 0 0 0-3.6-3.6Zm0 4.8a1.2 1.2 0 1 1 1.2-1.2 1.2 1.2 0 0 1-1.2 1.2Z" />
  <path d="M1.2 43.2A1.2 1.2 0 0 0 2.4 42V4.8a2.41 2.41 0 0 1 2.4-2.4h36a2.4 2.4 0 0 1 2.4 2.4 1.2 1.2 0 1 0 2.4 0A4.8 4.8 0 0 0 40.8 0h-36A4.8 4.8 0 0 0 0 4.8V42a1.2 1.2 0 0 0 1.2 1.2ZM44.4 18a1.2 1.2 0 0 0-1.2 1.2v37.2a2.4 2.4 0 0 1-2.4 2.41h-36a2.41 2.41 0 0 1-2.4-2.41 1.2 1.2 0 0 0-2.4 0 4.81 4.81 0 0 0 4.8 4.81h36a4.81 4.81 0 0 0 4.8-4.81V19.2a1.2 1.2 0 0 0-1.2-1.2Z" />
  <path fill="#fd0" d="M44.4 10.8a1.2 1.2 0 0 0-1.2 1.2v7.2a1.2 1.2 0 0 1 2.4 0V12a1.2 1.2 0 0 0-1.2-1.2ZM1.2 43.2A1.2 1.2 0 0 1 0 42v7.2a1.2 1.2 0 0 0 2.4 0V42a1.2 1.2 0 0 1-1.2 1.2Z" />
</svg>
