<svg xmlns="http://www.w3.org/2000/svg" viewBox="0 0 72.01 56.41">
  <path d="M1.2 38.4a1.2 1.2 0 0 0 1.2-1.2V8.41A2.41 2.41 0 0 1 4.81 6H20.4v2.4a1.2 1.2 0 0 0 2.4 0V6h26.41v2.4a1.2 1.2 0 0 0 2.4 0V6H67.2a2.41 2.41 0 0 1 2.41 2.41 1.2 1.2 0 0 0 2.4 0A4.82 4.82 0 0 0 67.2 3.6H51.61V1.2a1.2 1.2 0 0 0-2.4 0v2.4H22.8V1.2a1.2 1.2 0 0 0-2.4 0v2.4H4.81A4.82 4.82 0 0 0 0 8.41V37.2a1.2 1.2 0 0 0 1.2 1.2Zm69.61-16.79a1.2 1.2 0 0 0-1.2 1.2V51.6A2.41 2.41 0 0 1 67.2 54H4.81a2.41 2.41 0 0 1-2.41-2.4 1.2 1.2 0 1 0-2.4 0 4.82 4.82 0 0 0 4.81 4.81H67.2A4.82 4.82 0 0 0 72 51.6V22.81a1.2 1.2 0 0 0-1.19-1.2Z" />
  <path d="M63.61 14.4H8.4a1.2 1.2 0 1 0 0 2.4h55.21a1.2 1.2 0 1 0 0-2.4Z" />
  <circle cx="12" cy="25.2" r="2.4" />
  <circle cx="28" cy="25.2" r="2.4" />
  <circle cx="44" cy="25.2" r="2.4" />
  <path d="M64.81 25.2A4.8 4.8 0 1 0 60 30a4.81 4.81 0 0 0 4.81-4.8ZM60 27.6a2.4 2.4 0 1 1 2.4-2.4 2.39 2.39 0 0 1-2.4 2.4Z" />
  <circle cx="12" cy="36" r="2.4" />
  <circle cx="28" cy="36" r="2.4" />
  <circle cx="44" cy="36" r="2.4" />
  <circle cx="60.01" cy="36" r="2.4" />
  <circle cx="12" cy="46.8" r="2.4" />
  <circle cx="28" cy="46.8" r="2.4" />
  <circle cx="44" cy="46.8" r="2.4" />
  <circle cx="60.01" cy="46.8" r="2.4" />
  <path fill="#fd0" d="M70.81 14.41a1.2 1.2 0 0 0-1.2 1.2v7.2a1.2 1.2 0 0 1 2.4 0v-7.2a1.2 1.2 0 0 0-1.2-1.2ZM1.2 38.4A1.2 1.2 0 0 1 0 37.2v7.2a1.2 1.2 0 1 0 2.4 0v-7.2a1.2 1.2 0 0 1-1.2 1.2Z" />
</svg>
