<svg xmlns="http://www.w3.org/2000/svg" viewBox="0 0 72.01 71.99">
  <path d="M70.81 44.32a1.19 1.19 0 00-1.2 1.2V54a6 6 0 01-6 6H59.91a1.26 1.26 0 00-.33 0 1.32 1.32 0 00-.2.12l-.18.13a1.24 1.24 0 00-.23.32 1.29 1.29 0 00-.1.44v.06a1.13 1.13 0 00.12.51l2.26 6-11.37-7.38-.15-.06h-.13a1.3 1.3 0 00-.33-.07H34.81a6 6 0 01-6-6V32.4a6 6 0 016-6h28.8a6 6 0 016 6 1.2 1.2 0 102.4 0 8.42 8.42 0 00-8.4-8.4h-18V8.4a8.42 8.42 0 00-8.4-8.4H8.41A8.41 8.41 0 000 8.4a1.2 1.2 0 002.4 0 6 6 0 016-6h28.8a6 6 0 016 6V24h-8.4a8.42 8.42 0 00-8.4 8.4V36h-3.66l-.3.06-.19.08h-.11l-11.31 7.59 2.3-6.12a.81.81 0 000-.31v-.1a1.17 1.17 0 00-1.08-1.2H8.41a6 6 0 01-6-6v-8.49a1.2 1.2 0 10-2.4 0V30a8.41 8.41 0 008.4 8.4h1.87l-3 8a1.2 1.2 0 001.79 1.42l14.1-9.42h3.24V54a8.41 8.41 0 008.4 8.4h14.06L63 71.79a1.2 1.2 0 001.79-1.42l-3-8h1.85A8.41 8.41 0 0072 54v-8.49a1.19 1.19 0 00-1.19-1.19z" />
  <path fill="#fd0" d="M70.81 36.67a1.19 1.19 0 00-1.2 1.19v7.65a1.2 1.2 0 112.4 0v-7.64a1.2 1.2 0 00-1.2-1.2zM1.2 9.6A1.2 1.2 0 010 8.4v7.65a1.2 1.2 0 002.4 0V8.4a1.2 1.2 0 01-1.2 1.2z" />
</svg>
