<svg xmlns="http://www.w3.org/2000/svg" viewBox="0 0 60.01 63.2">

  <path d="M30 20.1a1.2 1.2 0 0 0-1.2 1.2v13.8a1.2 1.2 0 1 0 2.4 0V21.3a1.2 1.2 0 0 0-1.2-1.2Z" />
  <circle cx="30" cy="16.5" r="1.2" />
  <path d="M1.2 27a1.2 1.2 0 0 0 1.2-1.2v-15a8.41 8.41 0 0 1 8.4-8.4h38.41a8.41 8.41 0 0 1 8.4 8.4 1.2 1.2 0 1 0 2.4 0A10.82 10.82 0 0 0 49.21 0H10.8A10.82 10.82 0 0 0 0 10.8v15A1.2 1.2 0 0 0 1.2 27Zm57.61-3a1.2 1.2 0 0 0-1.2 1.2v14.4a8.43 8.43 0 0 1-8.4 8.4h-4.84a1.51 1.51 0 0 0-.37.06.67.67 0 0 0-.18.11 1.37 1.37 0 0 0-.2.13 1.48 1.48 0 0 0-.25.35 1.07 1.07 0 0 0-.13.51 1.33 1.33 0 0 0 .13.52l3.46 9.2L30.68 48.2a.51.51 0 0 0-.17-.07h-.1a1 1 0 0 0-.35-.07H10.8a8.41 8.41 0 0 1-8.4-8.46 1.2 1.2 0 1 0-2.4 0 10.82 10.82 0 0 0 10.8 10.81h18.87L48.56 63a1.15 1.15 0 0 0 .66.21 1.21 1.21 0 0 0 1.13-1.63l-4.2-11.16h3.06A10.82 10.82 0 0 0 60 39.6V25.2a1.2 1.2 0 0 0-1.19-1.2Z" />
  <path fill="#fd0" d="M58.81 16.8a1.2 1.2 0 0 0-1.2 1.2v7.2a1.2 1.2 0 1 1 2.4 0V18a1.2 1.2 0 0 0-1.2-1.2ZM1.2 27A1.2 1.2 0 0 1 0 25.8v6.6a1.2 1.2 0 1 0 2.4 0v-6.6A1.2 1.2 0 0 1 1.2 27Z" />
</svg>
