<svg xmlns="http://www.w3.org/2000/svg" viewBox="0 0 60.05 60.01">
  <path d="M10.51 10.48a27.63 27.63 0 0 1 39 0 1.2 1.2 0 0 0 1.7 0 1.19 1.19 0 0 0 0-1.69A30 30 0 0 0 1.55 39.48a1.21 1.21 0 0 0 1.14.82 1.31 1.31 0 0 0 .38-.06 1.2 1.2 0 0 0 .76-1.52 27.46 27.46 0 0 1 6.68-28.24ZM58.5 20.53a1.2 1.2 0 0 0-2.28.76 27.6 27.6 0 0 1-45.71 28.23 1.2 1.2 0 0 0-1.7 1.7A30 30 0 0 0 58.5 20.53Z" />
  <path d="m36.15 20.83-7.71 15.43-4.62-6.92a1.2 1.2 0 0 0-1.66-.34 1.22 1.22 0 0 0-.34 1.67l5.77 8.64a1.18 1.18 0 0 0 1 .53h.08a1.19 1.19 0 0 0 1-.66L38.3 21.9a1.21 1.21 0 0 0-.54-1.61 1.19 1.19 0 0 0-1.61.54Z" />
  <path fill="#fd0" d="m58.88 21.75-.19-.57.19.65Zm-5.36-8.46a1.2 1.2 0 0 0-.35 1.71 27.7 27.7 0 0 1 3.23 6.93c-.07-.2-.11-.4-.18-.59a1.19 1.19 0 0 1 2.23-.85 29.79 29.79 0 0 0-3.27-6.8 1.21 1.21 0 0 0-1.66-.4ZM1.17 38.26l.18.53c-.07-.2-.12-.41-.18-.61Zm2.47-.17.19.63a1.2 1.2 0 0 1-.76 1.52 1.31 1.31 0 0 1-.38.06 1.18 1.18 0 0 1-1.1-.77 29.23 29.23 0 0 0 3.28 6.83 1.18 1.18 0 0 0 1 .55 1.13 1.13 0 0 0 .65-.2 1.2 1.2 0 0 0 .35-1.66 27.08 27.08 0 0 1-3.23-6.96Z" />
</svg>
