<svg xmlns="http://www.w3.org/2000/svg" viewBox="0 0 62.6 62.3">
  <path d="M61.4 49.1a1.2 1.2 0 0 0-1.2 1.2v9.6H3.8a1.2 1.2 0 0 0 0 2.4h57.6a1.2 1.2 0 0 0 1.2-1.2V50.3a1.2 1.2 0 0 0-1.2-1.2Zm0-21.6H10.23L58 9a1.19 1.19 0 0 0 .68-1.55L56.05.77a1.24 1.24 0 0 0-.64-.67 1.22 1.22 0 0 0-.92 0L.77 20.86a1.2 1.2 0 0 0-.69 1.55l2.52 6.51V46.7a1.2 1.2 0 1 0 2.4 0v-9.6h56.4a1.2 1.2 0 0 0 1.2-1.2v-7.2a1.19 1.19 0 0 0-1.2-1.2Zm-3.9 7.2-7.35-4.8h6.2l3.85 2.51v2.29Zm-10.58 0-7.35-4.8h6.19l7.35 4.8Zm-10.58 0L29 29.9h6.19l7.35 4.8Zm-10.58 0-7.35-4.8h6.19l7.4 4.8Zm-10.58 0-7.35-4.8H14l7.35 4.8ZM18 16.76l-5.1 7.13-5.77 2.23L12.25 19ZM27.89 13l-5.12 7.12L17 22.31l5.12-7.13Zm9.86-3.82-5.12 7.13-5.77 2.23L32 11.36Zm9.87-3.82-5.12 7.08-5.77 2.23 5.12-7.13Zm7.44-.43-2.68 3.69-5.79 2.24 5.13-7.13 2.52-1ZM8.15 20.58l-4 5.61-1.4-3.52ZM5 30.91l5.79 3.79H5Z" />
  <path d="M11 45.5h43.2a1.2 1.2 0 0 0 0-2.4H11a1.2 1.2 0 0 0 0 2.4Zm0 8.4h43.2a1.2 1.2 0 0 0 0-2.4H11a1.2 1.2 0 0 0 0 2.4Z" />
  <path fill="#fd0" d="M61.4 41.9a1.2 1.2 0 0 0-1.2 1.2v7.2a1.2 1.2 0 0 1 2.4 0v-7.2a1.2 1.2 0 0 0-1.2-1.2Zm-57.6 6a1.2 1.2 0 0 1-1.2-1.2v7.2a1.2 1.2 0 0 0 2.4 0v-7.2a1.2 1.2 0 0 1-1.2 1.2Z" />
</svg>
