<svg xmlns="http://www.w3.org/2000/svg" viewBox="0 0 50 49.65">
  <path d="M9.95 9.92a21.31 21.31 0 0130.1 0 .93.93 0 001.31-1.31A23.14 23.14 0 003.04 32.27a.93.93 0 001.76-.58A21.19 21.19 0 019.95 9.92zM46.96 17.66a.93.93 0 10-1.76.59A21.29 21.29 0 019.95 40.02a.93.93 0 00-1.31 1.3 23.47 23.47 0 001.76 1.6L7.53 48.3a.93.93 0 101.63.87l2.75-5.14a23.1 23.1 0 0026.18 0l2.75 5.14a.93.93 0 101.63-.88l-2.87-5.36a23.48 23.48 0 001.76-1.6 23.03 23.03 0 005.6-23.66z" />
  <path d="M25 8.34a16.63 16.63 0 1016.63 16.63A16.65 16.65 0 0025 8.34zm0 31.4a14.78 14.78 0 1114.78-14.77A14.8 14.8 0 0125 39.75z" />
  <path d="M25 12.94a.92.92 0 00-.93.92v10.72l-5.28 5.29a.93.93 0 001.31 1.3l5.55-5.55a.92.92 0 00.28-.65v-11.1a.92.92 0 00-.93-.93zM2.62 11.74a.93.93 0 00.65-.27l8.2-8.2a.93.93 0 000-1.3 6.72 6.72 0 00-9.5 9.5.93.93 0 00.65.27zm.65-8.47a4.88 4.88 0 016.17-.59L2.68 9.44a4.88 4.88 0 01.6-6.17zM46.73 11.46a.93.93 0 001.3 0 6.72 6.72 0 00-9.5-9.5.93.93 0 000 1.31zm0-8.19a4.88 4.88 0 01.59 6.17l-6.76-6.76a4.88 4.88 0 016.17.6z" />
  <path fill="#fd0" d="M47.25 18.6l-.14-.43.14.5v-.07zM43.12 12.08a.93.93 0 00-.27 1.28 21.12 21.12 0 012.49 5.35l-.14-.46a.92.92 0 011.72-.65 22.95 22.95 0 00-2.52-5.25.93.93 0 00-1.28-.27zM2.75 31.34l.14.4q-.08-.23-.14-.47v.07zM4.66 31.2l.14.49a.92.92 0 01-1.73.63 22.93 22.93 0 002.53 5.26.93.93 0 001.55-1 21.11 21.11 0 01-2.5-5.38z" />
</svg>
