<svg xmlns="http://www.w3.org/2000/svg" viewBox="0 0 72.01 45.6">
  <path d="M26.11 22.12a10.16 10.16 0 1 0 20 2.84A1.19 1.19 0 0 0 45 23.7a1.21 1.21 0 0 0-1.27 1.13 7.65 7.65 0 0 1-1.7 4.4 7.76 7.76 0 1 1-4.33-12.42 9 9 0 0 1 .87.31h-.19a1.2 1.2 0 0 0 .24 2.38h.25l3.28-.68h.13l.22-.1a1.33 1.33 0 0 0 .19-.14.54.54 0 0 0 .12-.09s0-.05 0-.07 0 0 .06-.07a.59.59 0 0 0 .06-.14 1 1 0 0 0 .09-.21 1.81 1.81 0 0 0 0-.23 1.77 1.77 0 0 0 0-.23.27.27 0 0 1 0-.09l-.69-3.29a1.2 1.2 0 1 0-2.35.49l.11.53a10.05 10.05 0 0 0-14.08 7Z" />
  <path d="M9.36 21.34a11.58 11.58 0 0 1 1.75-.58c.55-.13.91-1 .89-1.56A13.2 13.2 0 0 1 30.5 7.11a1.18 1.18 0 0 0 1.3-.22A16.78 16.78 0 0 1 60 19.2v.36a1.18 1.18 0 0 0 .91 1.2 11.4 11.4 0 0 1 6.89 4.89 1.19 1.19 0 0 0 1.66.35 1.2 1.2 0 0 0 .36-1.66 13.82 13.82 0 0 0-7.41-5.65A19.18 19.18 0 0 0 30.74 4.62a15.41 15.41 0 0 0-5.54-1A15.62 15.62 0 0 0 9.61 18.69c-.4.13-.8.28-1.19.44a1.2 1.2 0 0 0 .94 2.21ZM69.4 37.71a1.21 1.21 0 0 0-1.66.35 11.38 11.38 0 0 1-9.53 5.14H13.8A11.41 11.41 0 0 1 2.4 31.8a1.2 1.2 0 0 0-2.4 0 13.81 13.81 0 0 0 13.8 13.8h44.41a13.78 13.78 0 0 0 11.54-6.22 1.21 1.21 0 0 0-.35-1.67Z" />
  <path fill="#fd0" d="M72 31.8a1.2 1.2 0 0 0-2.4 0 11.38 11.38 0 0 1-1.87 6.26 1.2 1.2 0 1 1 2 1.31A13.74 13.74 0 0 0 72 31.8ZM7.79 20.7a1.19 1.19 0 0 1 .63-1.57 13.85 13.85 0 0 0-6.07 5 1.2 1.2 0 0 0 1 1.87 1.23 1.23 0 0 0 1-.53 11.38 11.38 0 0 1 5-4.13 1.19 1.19 0 0 1-1.56-.64Z" />
</svg>
