<svg xmlns="http://www.w3.org/2000/svg" viewBox="0 0 72.01 71.99">
  <path d="M53 44.83a1.32 1.32 0 0 0 .39.06 1.19 1.19 0 0 0 1.13-.81c2-5.74 4.25-13.35 4.25-21.27a44.78 44.78 0 0 0-2.48-15.5 1.2 1.2 0 0 0-2.24.86 42.58 42.58 0 0 1 2.32 14.64c0 7.56-2.2 14.92-4.11 20.49a1.2 1.2 0 0 0 .74 1.53ZM43.63 6.62a1.2 1.2 0 0 0-1.55.69 44.82 44.82 0 0 0-2.48 15.5c0 7.92 2.27 15.53 4.25 21.27a1.19 1.19 0 0 0 1.13.81 1.32 1.32 0 0 0 .39-.06 1.21 1.21 0 0 0 .75-1.53C44.2 37.73 42 30.37 42 22.81a42.32 42.32 0 0 1 2.33-14.64 1.21 1.21 0 0 0-.7-1.55Z" />
  <path d="M49.21 0A22.83 22.83 0 0 0 26.4 22.8c0 6.18 3.27 12 7.36 17.27a15.61 15.61 0 0 0-4.36.48A15.57 15.57 0 0 0 3.77 50.86c0 .51-.07 1-.07 1.55a1.2 1.2 0 0 0 2.4 0q0-.67.06-1.32a13.16 13.16 0 0 1 22.11-8.32l.51.48.67-.21a12.78 12.78 0 0 1 6.48-.31c1.83 2.16 3.73 4.2 5.51 6.12l.65.7 1.48 5.22v4.65A2.39 2.39 0 0 0 46 61.81h6.11a5.73 5.73 0 0 1-5.46 7.78H8.23a5.84 5.84 0 0 1-5.83-5.83 1.2 1.2 0 0 0-2.4 0A8.24 8.24 0 0 0 8.23 72h38.38a8.25 8.25 0 0 0 8.24-8.23 8.13 8.13 0 0 0-.57-2.85 2.32 2.32 0 0 0 .56-1.49v-4.66l1.48-5.22.64-.69A98.08 98.08 0 0 0 67 36.75a1.2 1.2 0 1 0-2-1.33 95.49 95.49 0 0 1-9.83 11.8l-.62.67H43.82l-.62-.67c-6.41-6.9-14.4-15.49-14.4-24.42a20.41 20.41 0 0 1 40.81 0 1.2 1.2 0 0 0 2.4 0A22.83 22.83 0 0 0 49.21 0Zm1.2 53.41v-3.12h3.21l-.88 3.12Zm-2.4 0h-2.34l-.88-3.12H48Zm-2 2.4h6.47v3.6H46Z" />
  <path fill="#fd0" d="M69.85 28.6a1.21 1.21 0 0 0-1.55.69 31.47 31.47 0 0 1-3.3 6.13 1.2 1.2 0 1 1 2 1.33 34.25 34.25 0 0 0 3.5-6.59 1.21 1.21 0 0 0-.65-1.56ZM6.1 52.41a1.2 1.2 0 0 1-2.4 0 15.35 15.35 0 0 0 .58 4.16 1.2 1.2 0 0 0 1.22 2.06 6.8 6.8 0 0 1 .67-.3l1.08-.42-.38-1.1a13.42 13.42 0 0 1-.77-4.4Z" />
</svg>
