<svg xmlns="http://www.w3.org/2000/svg" viewBox="0 0 62.41 72.01">
  <path d="M20.8 6.51A3.56 3.56 0 0 0 22 9.18a1.2 1.2 0 0 0 .79.3 1.17 1.17 0 0 0 .9-.41 1.2 1.2 0 0 0-.11-1.7 1.14 1.14 0 0 1-.39-.86 1.16 1.16 0 0 1 .39-.87 3.53 3.53 0 0 0 0-5.34A1.2 1.2 0 1 0 22 2.1a1.12 1.12 0 0 1 .4.87 1.15 1.15 0 0 1-.4.87 3.55 3.55 0 0 0-1.2 2.67Zm7.2 0a3.56 3.56 0 0 0 1.21 2.67 1.2 1.2 0 0 0 .79.3 1.17 1.17 0 0 0 .9-.41 1.21 1.21 0 0 0-.1-1.7 1.12 1.12 0 0 1-.4-.86 1.16 1.16 0 0 1 .39-.87 3.53 3.53 0 0 0 0-5.34 1.2 1.2 0 1 0-1.58 1.8 1.12 1.12 0 0 1 .4.87 1.15 1.15 0 0 1-.4.87A3.55 3.55 0 0 0 28 6.51Zm28.38 19.36A5.76 5.76 0 0 0 51 27.64a1.21 1.21 0 0 0-1 1.08c-1.18 19.47-4.81 30.52-9.92 40.89H1.2a1.2 1.2 0 1 0 0 2.4h50.41a1.2 1.2 0 1 0 0-2.4h-8.89A88.29 88.29 0 0 0 49.8 49a5.64 5.64 0 0 0 4.3 2 7.24 7.24 0 0 0 5.76-3.25C61.53 45.4 62.41 42 62.41 38c0-9.79-4.21-11.74-6.03-12.13Zm1.53 20.44a4.86 4.86 0 0 1-3.81 2.25c-1.66 0-3.44-1.23-3.47-3.91a146.19 146.19 0 0 0 1.67-14.71 3.33 3.33 0 0 1 3.59-1.72C58.47 28.77 60 32.43 60 38c0 4.47-1.13 7-2.09 8.31ZM6.52 58.73a1.13 1.13 0 0 0 .36-.06 1.21 1.21 0 0 0 .78-1.51C4.05 46 2.47 33.11 2.4 14.4h49.21a1.2 1.2 0 1 0 0-2.4H1.2A1.2 1.2 0 0 0 0 13.2c0 19.63 1.61 33 5.37 44.7a1.22 1.22 0 0 0 1.15.83Z" />
  <path fill="#fd0" d="M51.53 20.4a1.26 1.26 0 0 0-1.24 1.17q-.1 3.75-.31 7.15a1.21 1.21 0 0 1 1-1.08 5.83 5.83 0 0 1 1.52-1.14 230 230 0 0 0 .19-4.86 1.2 1.2 0 0 0-1.16-1.24ZM7.66 57.16a1.21 1.21 0 0 1-.78 1.51 1.13 1.13 0 0 1-.36.06 1.22 1.22 0 0 1-1.15-.83c.75 2.3 1.57 4.54 2.53 6.85a1.19 1.19 0 0 0 1.1.73 1.08 1.08 0 0 0 .46-.09 1.2 1.2 0 0 0 .65-1.57 85.2 85.2 0 0 1-2.45-6.66Z" />
</svg>
