<svg xmlns="http://www.w3.org/2000/svg" viewBox="0 0 59.93 64.81">
  <path d="M25.81 45.62a1.2 1.2 0 0 0 2.4 0v-1.89a6.19 6.19 0 0 0 2.5-1A5.91 5.91 0 0 0 33 37.56c0-4.56-3.21-6-5.79-7.09s-3.87-1.8-3.87-4A3.42 3.42 0 0 1 27 23.14a4.37 4.37 0 0 1 3.5 1.53 1.2 1.2 0 1 0 1.79-1.59 6.56 6.56 0 0 0-4.09-2.23v-1.67a1.2 1.2 0 1 0-2.4 0v1.68a5.7 5.7 0 0 0-4.8 5.6c0 3.89 2.94 5.17 5.31 6.21 2.7 1.18 4.35 2 4.35 4.89a3.63 3.63 0 0 1-1.3 3.23c-1.81 1.26-5.22.51-6.76-.06a1.2 1.2 0 0 0-.85 2.27 15.76 15.76 0 0 0 4.06.86Z" />
  <path d="M58 44.75a39.3 39.3 0 0 0 1.5-6.27s0 0 0-.08a40.59 40.59 0 0 0 .46-6 39.44 39.44 0 0 0-.48-5.89.43.43 0 0 0 0-.11 1.17 1.17 0 0 0-.11-.49A37.9 37.9 0 0 0 58 20a.94.94 0 0 0-.06-.15A35.75 35.75 0 0 0 55.29 14v-.08a29.63 29.63 0 0 0-7.32-8.77A1.2 1.2 0 0 0 46.43 7l.23.21h-3.29A23.1 23.1 0 0 0 27 0a1.13 1.13 0 0 0-.45.09 1.14 1.14 0 0 0-.46-.09C11.71 0 0 14.54 0 32.4c0 11.1 4.49 21.3 12 27.29a1.17 1.17 0 0 0 .75.27 1.21 1.21 0 0 0 .94-.46 1.2 1.2 0 0 0-.2-1.68C6.55 52.28 2.4 42.78 2.4 32.4c0-16.54 10.63-30 23.69-30a1.14 1.14 0 0 0 .46-.09 1.13 1.13 0 0 0 .45.09 20.75 20.75 0 0 1 14.84 6.65 1.29 1.29 0 0 0 .33.33 29 29 0 0 1 4 5.47.6.6 0 0 0 .06.11A35.42 35.42 0 0 1 50.7 32.4a35.46 35.46 0 0 1-4.46 17.45.6.6 0 0 0-.06.11 29 29 0 0 1-4 5.47 1.29 1.29 0 0 0-.33.33A20.75 20.75 0 0 1 27 62.41a1.2 1.2 0 1 0 0 2.4h6.84a23.19 23.19 0 0 0 16.66-7.49 1.79 1.79 0 0 0 .22-.25A31.13 31.13 0 0 0 55 51.26a1.36 1.36 0 0 0 .28-.46 36.14 36.14 0 0 0 2.61-5.9s.05-.1.11-.15Zm-4.5 4.46h-4.23a35.27 35.27 0 0 0 1.54-3.61h4.27a32.74 32.74 0 0 1-1.62 3.61Zm-4.26 6h-3.72a32.53 32.53 0 0 0 2.48-3.6h4a27.82 27.82 0 0 1-2.8 3.6Zm-8.79 6H38.9a26.72 26.72 0 0 0 4.47-3.6h3.28a21.62 21.62 0 0 1-6.24 3.6Zm11.17-18c.33-1.17.62-2.37.85-3.6h4.38a33.8 33.8 0 0 1-.89 3.6Zm.41-30H48a31.62 31.62 0 0 0-2.45-3.6h3.65A28.31 28.31 0 0 1 52 13.2Zm1.45 2.4a33.55 33.55 0 0 1 1.64 3.6h-4.31a36.07 36.07 0 0 0-1.54-3.6Zm2.47 21.6h-3.17q.21-1.77.27-3.6h4.44c0 1.22-.14 2.42-.29 3.6Zm-2.86-6q-.06-1.83-.27-3.6h4.38a35.88 35.88 0 0 1 .27 3.6Zm2.89-9.6a35 35 0 0 1 .89 3.6h-4.4a41.93 41.93 0 0 0-.85-3.6Z" />
  <path fill="#fd0" d="M47.92 5.11a23.82 23.82 0 0 0-6.58-3.75 1.19 1.19 0 0 0-1.54.7 1.2 1.2 0 0 0 .7 1.55A21.49 21.49 0 0 1 46.43 7a1.2 1.2 0 0 1 1.49-1.88ZM19.43 61.2a21.64 21.64 0 0 1-5.93-3.38 1.2 1.2 0 0 1 .2 1.68 1.21 1.21 0 0 1-.94.46 1.17 1.17 0 0 1-.75-.27 24 24 0 0 0 6.58 3.76 1.25 1.25 0 0 0 .42.08 1.2 1.2 0 0 0 .42-2.33Z" />
</svg>
