<svg xmlns="http://www.w3.org/2000/svg" viewBox="0 0 50 45.71">
  <path d="M6.6 12.37l-.12.12a.83.83 0 101.18 1.18l.18-.18a2.37 2.37 0 00.73.27 2.13 2.13 0 00.36.03 2.4 2.4 0 001.72-.8c1.25-1.24.69-2.58.32-3.47s-.39-1.09-.13-1.35c.32-.32.8-.09 1.01.13a1.1 1.1 0 01.37.88.83.83 0 001.67.05 2.71 2.71 0 00-.36-1.43l.12-.12a.83.83 0 10-1.17-1.18l-.14.13A2.25 2.25 0 009.67 7c-1.1 1.1-.58 2.34-.24 3.17.4.96.45 1.25.04 1.66-.34.34-.55.3-.62.3-.44-.07-1.03-.78-1.33-1.41a.83.83 0 10-1.5.72 6.17 6.17 0 00.58.94z" />
  <path d="M19.36 4.06L17.51 2.2a.88.88 0 00-.11-.07 8.65 8.65 0 00-6.62-2.1A11.77 11.77 0 003.5 3.53c-4.1 4.1-4.67 10.23-1.39 13.88a.79.79 0 00.07.11l1.86 1.85a8.49 8.49 0 006.1 2.42 11.63 11.63 0 008.1-3.52c4.23-4.22 4.72-10.6 1.11-14.21zM4.7 4.7a10.1 10.1 0 016.23-3q.36-.04.71-.04a6.82 6.82 0 014.92 1.94 6.96 6.96 0 011.9 5.63 10.1 10.1 0 01-3 6.22 10.1 10.1 0 01-6.23 3.01 6.98 6.98 0 01-5.63-1.9C.62 13.6 1.12 8.28 4.69 4.7zM9.6 20.1a11.82 11.82 0 007.02-3.47 11.8 11.8 0 003.46-7.01 9.82 9.82 0 01-3 7.47 9.82 9.82 0 01-7.48 3zM37.39 10.07a.83.83 0 10-.32 1.64 11.33 11.33 0 001.31.17.81.81 0 001.6-.06 2.82 2.82 0 001.37-.54 1.62 1.62 0 00.6-1.28c0-1.45-1.55-1.8-2.68-2.06l-1-.21a2.8 2.8 0 01.9-.14 2.65 2.65 0 011.35.29.83.83 0 00.84-1.44A3.85 3.85 0 0039.97 6a.81.81 0 00-1.59-.02c-1.2.2-1.98.84-1.98 1.7 0 1.31 1.44 1.64 2.5 1.87a5.6 5.6 0 011.4.43 4.88 4.88 0 01-2.91.08zM24.16 37.68a.83.83 0 001.66 0v-.47a2.73 2.73 0 00.85-.39 2.7 2.7 0 001.09-2.37c0-2.05-1.53-2.72-2.53-3.16s-1.34-.64-1.34-1.28a1.02 1.02 0 011.1-.98 1.4 1.4 0 011.13.5.83.83 0 001.25-1.1 3.03 3.03 0 00-1.55-.95v-.38a.83.83 0 10-1.67 0v.4A2.6 2.6 0 0022.22 30c0 1.79 1.35 2.38 2.34 2.8 1.03.46 1.53.72 1.53 1.64 0 .75-.28.94-.37 1a3.12 3.12 0 01-2.39-.06.83.83 0 00-.57 1.56 6.75 6.75 0 001.4.34z" />
  <path d="M27.72 19.06h-3.1a.76.76 0 00-.16.03c-5.71.34-10.28 6.17-10.28 13.3a15.42 15.42 0 002.42 8.4.83.83 0 001.4-.91 13.74 13.74 0 01-2.15-7.5c0-6.42 4.1-11.66 9.13-11.66s9.14 5.24 9.14 11.67-4.1 11.66-9.13 11.66h-.37a.83.83 0 000 1.66h3.1c5.96 0 10.8-5.98 10.8-13.32s-4.84-13.33-10.8-13.33zm3.78 23.93a14.54 14.54 0 004.29-10.6 14.54 14.54 0 00-4.29-10.6c3.15 1.84 5.36 5.9 5.36 10.6s-2.2 8.76-5.36 10.6zM49.99 9.13a6.19 6.19 0 01-2.65 4.58c-1.53 1.85-4.65 3.15-8.17 3.15-3.5 0-6.6-1.29-8.14-3.12a13.5 13.5 0 008.14 2.5 13.86 13.86 0 007.9-2.28.83.83 0 10-.97-1.36 12.17 12.17 0 01-6.93 1.97c-4.96 0-9.16-2.57-9.16-5.62s4.2-5.63 9.16-5.63a11.3 11.3 0 017.76 2.66.83.83 0 001.16-1.2 12.98 12.98 0 00-8.92-3.12c-5.97 0-10.83 3.27-10.83 7.3l.02.17-.02.06v2.02c0 4.03 4.86 7.31 10.83 7.31S50 15.24 50 11.21V9.19l-.01-.06z" />
  <path fill="#fd0" d="M49.17 8.11a.83.83 0 00-.84.84 4.79 4.79 0 01-2.5 3.8c.1-.05.2-.09.27-.14a.83.83 0 011.16.19.82.82 0 01-.08 1.04A6.21 6.21 0 0050 8.94a.83.83 0 00-.83-.83zM21.4 43.11a9.83 9.83 0 01-3.57-3.52l.16.29a.83.83 0 01-.24 1.15.82.82 0 01-1.08-.16 11.35 11.35 0 003.93 3.7.82.82 0 00.4.1.83.83 0 00.4-1.56z" />
</svg>
