<svg xmlns="http://www.w3.org/2000/svg" viewBox="0 0 72.01 63.16">
  <path d="M32.11 26.52a7.4 7.4 0 0 0-14.8 0A2.52 2.52 0 0 1 14.79 29h-3.57a.53.53 0 0 0-.12 0h-.19a1.17 1.17 0 0 0-.31.12l-.09.06a1.48 1.48 0 0 0-.26.24v.08a1 1 0 0 0-.15.32.52.52 0 0 0 0 .11 1.55 1.55 0 0 0 0 .21.66.66 0 0 0 0 .15.43.43 0 0 1 0 .05c0 .08.05.15.06.22a.13.13 0 0 1 0 .06 11.1 11.1 0 0 0 22-2.12ZM21 37.31a8.66 8.66 0 0 1-8.23-5.87h2a4.92 4.92 0 0 0 4.92-4.92 5 5 0 0 1 10 0v2.08A8.72 8.72 0 0 1 21 37.31Z" />
  <path d="M51 30.86A20.78 20.78 0 0 0 36.25 37V26.12a15.25 15.25 0 0 0-30.5 0v10.24a1.2 1.2 0 0 0 2.4 0V26.12a12.85 12.85 0 0 1 25.7 0v20A21 21 0 0 0 0 61.91a1.2 1.2 0 0 0 1.15 1.25A1.19 1.19 0 0 0 2.4 62a18.62 18.62 0 0 1 37.21 0 1.19 1.19 0 0 0 1.19 1.15h.05A1.2 1.2 0 0 0 42 61.91a20.9 20.9 0 0 0-5.75-13.61v-7.75a18.61 18.61 0 0 1 33.36 10.57 1.2 1.2 0 0 0 1.2 1.15A1.21 1.21 0 0 0 72 51a21 21 0 0 0-21-20.14Z" />
  <path d="M39.88 17.73A11.13 11.13 0 0 0 51 28.85a11.31 11.31 0 0 0 2.4-.26 1.2 1.2 0 0 0-.52-2.35 8.4 8.4 0 0 1-1.88.21 8.73 8.73 0 0 1-8.72-8.72v-5.2A4.5 4.5 0 0 1 46.78 8h8.44a4.5 4.5 0 0 1 4.5 4.49v5.33a1.31 1.31 0 0 0 .06.27.89.89 0 0 0 .08.17 1.7 1.7 0 0 0 .15.22.93.93 0 0 0 .15.13.9.9 0 0 0 .2.14 1.43 1.43 0 0 0 .22.08l.15.05h.19a1.43 1.43 0 0 0 .42-.09 1.51 1.51 0 0 0 .17-.1l.19-.13a.79.79 0 0 0 .14-.18.66.66 0 0 0 .12-.17 1.55 1.55 0 0 0 .08-.23.74.74 0 0 0 0-.14l1.26-9.4A8.5 8.5 0 0 0 54.87 0h-7.73a8.52 8.52 0 0 0-8.48 8.65l1.22 9.07ZM47.14 2.4h7.73A6.08 6.08 0 0 1 61 8.33v.34a6.89 6.89 0 0 0-5.71-3h-8.51a6.89 6.89 0 0 0-5.71 3v-.18a6.09 6.09 0 0 1 6.07-6.09Z" />
  <path fill="#fd0" d="M60.06 21.94a1.2 1.2 0 0 0-1.65.39 8.82 8.82 0 0 1-5.53 3.91 1.2 1.2 0 0 1 .52 2.35 11.2 11.2 0 0 0 7-5 1.21 1.21 0 0 0-.34-1.65ZM7 37.56a1.2 1.2 0 0 1-1.2-1.2V44a1.2 1.2 0 1 0 2.4 0v-7.64a1.2 1.2 0 0 1-1.2 1.2Z" />
</svg>
