<svg xmlns="http://www.w3.org/2000/svg" viewBox="0 0 60.01 60">
  <path d="M58.81 40.19a1.2 1.2 0 0 0-1.2 1.2V55.2a2.41 2.41 0 0 1-2.4 2.4H4.8a2.4 2.4 0 0 1-2.4-2.4 1.2 1.2 0 0 0-2.4 0A4.8 4.8 0 0 0 4.8 60h50.41A4.81 4.81 0 0 0 60 55.2V41.39a1.2 1.2 0 0 0-1.19-1.2ZM51.61 36H30a1.2 1.2 0 0 0 0 2.4h21.61a1.2 1.2 0 1 0 0-2.4Z" />
  <path d="M51.61 43.2H30a1.2 1.2 0 1 0 0 2.4h21.61a1.2 1.2 0 1 0 0-2.4Zm0 7.2H30a1.21 1.21 0 0 0 0 2.41h21.61a1.21 1.21 0 0 0 0-2.41ZM7.2 49.2v2.4a1.21 1.21 0 0 0 1.2 1.21h14.4A1.2 1.2 0 0 0 24 51.6v-2.4a8.4 8.4 0 0 0-6.3-8.1 4.8 4.8 0 1 0-4.2 0 8.4 8.4 0 0 0-6.3 8.1Zm8.4-14.8a2.4 2.4 0 1 1-2.4 2.4 2.41 2.41 0 0 1 2.4-2.4Zm0 8.8a6 6 0 0 1 6 6v1.2h-12v-1.2a6 6 0 0 1 6-6Z" />
  <path d="M1.2 42a1.2 1.2 0 0 0 1.2-1.2V27.58a2.39 2.39 0 0 1 2.4-2.4h14.25l2.68 5.36a1.19 1.19 0 0 0 1.07.66h14.4a1.19 1.19 0 0 0 1.07-1.74l-2.18-4.28h19.12a2.4 2.4 0 0 1 2.4 2.4 1.2 1.2 0 0 0 2.4 0 4.81 4.81 0 0 0-4.8-4.8H42.16l10.52-21A1.2 1.2 0 0 0 50.53.66L39.47 22.78h-4.61l-3.16-6.19-.35-.69 6.92-13.55a1.2 1.2 0 1 0-2.13-1.1L30 13.26l-6.13-12a1.2 1.2 0 0 0-2.14 1.1l8.4 16.44 2.93 5.73 2.18 4.27h-11.7L9.47.66a1.2 1.2 0 1 0-2.14 1.08l10.52 21H4.8A4.8 4.8 0 0 0 0 27.58V40.8A1.2 1.2 0 0 0 1.2 42Z" />
  <path fill="#fd0" d="M58.81 33.58a1.19 1.19 0 0 0-1.2 1.2v6.61a1.2 1.2 0 1 1 2.4 0v-6.61a1.2 1.2 0 0 0-1.2-1.2ZM1.2 42A1.2 1.2 0 0 1 0 40.8V48a1.2 1.2 0 0 0 2.4 0v-7.2A1.2 1.2 0 0 1 1.2 42Z" />
</svg>
