<svg xmlns="http://www.w3.org/2000/svg" viewBox="0 0 72.01 58.8">
  <path d="M70.66 35.8a1.21 1.21 0 0 0-1.57.65 6.83 6.83 0 0 1-6.32 4.21h-.36v-15h.36a6.73 6.73 0 0 1 2.9.66 1.18 1.18 0 0 0 1.84-.93.66.66 0 0 0 0-.14.67.67 0 0 0 0-.2.74.74 0 0 0 0-.14 32.38 32.38 0 0 0-62.92-.33 9.17 9.17 0 0 0-3.88 4.36 1.2 1.2 0 0 0 2.21.93 6.83 6.83 0 0 1 6.32-4.21h.36v15h-.36a6.75 6.75 0 0 1-3-.71 1.2 1.2 0 1 0-1.06 2.16c.17.08.36.12.54.19a19.21 19.21 0 0 0 14.03 10.86 26.35 26.35 0 0 0 40.58-10.5 1.19 1.19 0 0 0 .88.4h1.56a9.21 9.21 0 0 0 8.53-5.69 1.2 1.2 0 0 0-.64-1.57ZM10.8 23.26H9.24a9.24 9.24 0 0 0-1.91.22 30 30 0 0 1 57.25 0 9 9 0 0 0-1.81-.2h-1.56a1.27 1.27 0 0 0-.44.08 26.36 26.36 0 0 0-49.54 0 1.22 1.22 0 0 0-.43-.1ZM8.78 43c.15 0 .3.05.46.05h1.56a1.19 1.19 0 0 0 .88-.4 26.16 26.16 0 0 0 4.2 6.79A17.1 17.1 0 0 1 8.78 43ZM36 56.4a23.89 23.89 0 0 1-11.58-3H36a1.2 1.2 0 0 0 0-2.4H22.63a14.11 14.11 0 0 1-1.95-.16A24 24 0 1 1 36 56.4Z" />
  <path fill="#fd0" d="M71.16 28.64a1.19 1.19 0 1 0-2.17 1 6.83 6.83 0 0 1 .62 2.85v1.33a6.79 6.79 0 0 1-.53 2.63 1.2 1.2 0 1 1 2.21.92 9.18 9.18 0 0 0 .71-3.55v-1.33a9.12 9.12 0 0 0-.84-3.85ZM2.4 33.82v-1.33a6.88 6.88 0 0 1 .52-2.62 1.2 1.2 0 0 1-2.21-.93A9.18 9.18 0 0 0 0 32.49v1.33a9.16 9.16 0 0 0 .84 3.86 1.2 1.2 0 0 0 1.09.7 1.25 1.25 0 0 0 .5-.11A1.19 1.19 0 0 0 3 36.68a6.85 6.85 0 0 1-.6-2.86Z" />
</svg>
