<svg xmlns="http://www.w3.org/2000/svg" viewBox="0 0 72.03 47.42">
  <path d="M21.63 34.23a1.2 1.2 0 1 0 0 2.4h28.79a1.2 1.2 0 0 0 0-2.4Zm-20.41-12A1.2 1.2 0 0 0 2.42 21V4.8a2.41 2.41 0 0 1 2.4-2.4H36a2.41 2.41 0 0 1 2.4 2.4A1.2 1.2 0 0 0 39.63 6h5.49a2.45 2.45 0 0 1 1.88.84l.94 1.27H45a3 3 0 0 0-3 3v6.3a3 3 0 0 0 3 3h12.38l8.42 3.83a1.24 1.24 0 0 0 .49.11 1.2 1.2 0 0 0 .5-2.29l-8.38-3.82-9.59-12.9a4.85 4.85 0 0 0-3.7-1.74h-4.44A4.82 4.82 0 0 0 36 0H4.82A4.81 4.81 0 0 0 0 4.8V21a1.2 1.2 0 0 0 1.22 1.23Zm43.2-4.82v-6.3a.6.6 0 0 1 .61-.6h4.64L55.25 18H45a.6.6 0 0 1-.58-.59Z" />
  <path d="M70.83 36a1.2 1.2 0 0 0-1.2 1.2 2.43 2.43 0 0 1-2.42 2.43H64.1a6.59 6.59 0 0 0-13 0H20.9a6.58 6.58 0 0 0-13 0H4.82a2.41 2.41 0 0 1-2.4-2.4v-.6h4.8a1.2 1.2 0 0 0 0-2.4h-6A1.2 1.2 0 0 0 0 35.43s0 .07 0 .11v1.69A4.81 4.81 0 0 0 4.82 42h3.12a6.59 6.59 0 0 0 13 0h30.2a6.59 6.59 0 0 0 13 0h3.11A4.83 4.83 0 0 0 72 37.2a1.2 1.2 0 0 0-1.17-1.2Zm-56.41 9a4.2 4.2 0 0 1-4.2-4.16v-.04a4.2 4.2 0 1 1 4.2 4.2Zm43.2 0a4.2 4.2 0 0 1-4.19-4.17A4.2 4.2 0 1 1 57.62 45Z" />
  <path d="M63.62 35.42a1.2 1.2 0 0 0 1.2 1.2h4.81v-2.4h-4.81a1.2 1.2 0 0 0-1.2 1.2Z" />
  <path fill="#fd0" d="M71.94 28.64a1.2 1.2 0 1 0-2.37.34 6.4 6.4 0 0 1 .06.88v7.34a1.2 1.2 0 0 1 2.4 0v-7.34a8.25 8.25 0 0 0-.09-1.22ZM1.22 22.23A1.2 1.2 0 0 1 0 21v-.12 7.32a1.2 1.2 0 0 0 2.4 0v-7.06a1.19 1.19 0 0 1-1.18 1.09Z" />
</svg>
