<svg xmlns="http://www.w3.org/2000/svg" viewBox="0 0 60.01 61.21">
  <path d="M59.83 16.17 50.23.57l-.07-.06a1.16 1.16 0 0 0-.95-.51H10.8a1.19 1.19 0 0 0-1 .51s0 0-.06.06L.18 16.17a1.21 1.21 0 0 0 0 1.22A1.2 1.2 0 0 0 1.2 18h18.24l8 36-17.25-25.88a1.2 1.2 0 0 0-2 1.33L29 60.64a1.3 1.3 0 0 0 .34.32l.12.06a1.2 1.2 0 0 0 .5.13 1.24 1.24 0 0 0 .51-.13l.11-.06a1.2 1.2 0 0 0 .42-.26l20.8-31.19a1.2 1.2 0 0 0-2-1.33L32.57 54l8-36h18.24a1.2 1.2 0 0 0 1-1.83ZM20.4 14.51 13 2.4h14.86Zm9.6-11 7.46 12.09H22.55ZM38.11 18 30 54.47 21.9 18Zm1.49-3.49L32.15 2.4h14.91ZM3.35 15.6 10.8 3.49l7.45 12.11Zm38.4 0 7.46-12.11 7.45 12.11Z" />
  <path fill="#fd0" d="M3.44 18H1.2a1.21 1.21 0 0 1-1-.58l4 6a1.18 1.18 0 0 0 1 .53 1.16 1.16 0 0 0 .66-.2 1.19 1.19 0 0 0 .33-1.66Zm52.04 3.79a1.21 1.21 0 0 0-1.67.34l-4 6a1.2 1.2 0 0 1 2 1.33l4-6a1.21 1.21 0 0 0-.33-1.67Z" />
</svg>
