<svg xmlns="http://www.w3.org/2000/svg" viewBox="0 0 58.81 61.21">
  <path d="M25.09 36.1c-1.35 1-4.41.62-6.14.11a1.2 1.2 0 00-.77 2.28h.09a16.43 16.43 0 003.35.58V40A1.2 1.2 0 0024 40v-1a5.73 5.73 0 002.51-1 4.32 4.32 0 001.68-3.64c0-3.47-3-4.51-5.21-5.28s-3.18-1.23-3.18-2.4 1.52-1.94 3-1.94a4.21 4.21 0 013 1 1.2 1.2 0 001.67-1.72l-.04-.02A6.28 6.28 0 0024 22.47v-.8a1.2 1.2 0 10-2.4 0v.82c-2.2.39-4.19 1.83-4.19 4.22 0 3 2.65 3.92 4.79 4.66 2.5.88 3.59 1.42 3.59 3a1.88 1.88 0 01-.7 1.73z" />
  <path d="M57.23 20.56a5.53 5.53 0 00-7.64 0l-4 4V13.2a1.23 1.23 0 00-.35-.85l-12-12a1.23 1.23 0 00-.83-.35H4.81A4.81 4.81 0 000 4.81a1.2 1.2 0 002.4 0A2.41 2.41 0 014.81 2.4h26.4v7.2A4.81 4.81 0 0036 14.41h7.19v12.53l-17 17-.85.85a1.2 1.2 0 00-.33.64L23.8 52.6a1.19 1.19 0 001 1.39 1.11 1.11 0 00.42 0l7.21-1.27a1.2 1.2 0 00.64-.33L57.23 28.2a5.4 5.4 0 000-7.64zM33.61 9.6V4.1l7.9 7.9H36a2.4 2.4 0 01-2.39-2.4zm-6.32 37l3.87 3.87-4.7.82zm28.24-20.09L33 49l-4.2-4.25 22.49-22.49a3.08 3.08 0 014.24 0 3 3 0 010 4.25z" />
  <path d="M53 23.11L31.77 44.32a1.2 1.2 0 101.7 1.7l21.22-21.21a1.2 1.2 0 10-1.7-1.7z" />
  <path d="M44.41 52.52a1.2 1.2 0 00-1.2 1.2v2.68a2.41 2.41 0 01-2.41 2.41h-36a2.4 2.4 0 01-2.4-2.41V19.2a1.2 1.2 0 00-2.4 0v37.2a4.8 4.8 0 004.8 4.81h36a4.81 4.81 0 004.81-4.81v-2.68a1.2 1.2 0 00-1.2-1.2z" />
  <path fill="#fd0" d="M44.41 45.32a1.2 1.2 0 00-1.2 1.2v7.2a1.2 1.2 0 012.4 0v-7.2a1.2 1.2 0 00-1.2-1.2zM1.21 6A1.2 1.2 0 010 4.81V12a1.2 1.2 0 002.4 0V4.81A1.2 1.2 0 011.21 6z" />
</svg>
