<svg xmlns="http://www.w3.org/2000/svg" viewBox="0 0 60.05 59.98">
  <path d="M10.51 10.47a27.63 27.63 0 0 1 39 0 1.2 1.2 0 1 0 1.7-1.7A30 30 0 0 0 1.55 39.46a1.2 1.2 0 0 0 1.14.82 1.31 1.31 0 0 0 .38-.06 1.19 1.19 0 0 0 .76-1.51 27.45 27.45 0 0 1 6.68-28.24ZM58.5 20.51a1.22 1.22 0 0 0-1.5-.76 1.2 1.2 0 0 0-.76 1.52 27.61 27.61 0 0 1-45.73 28.24 1.2 1.2 0 0 0-1.7 0 1.19 1.19 0 0 0 0 1.69A30 30 0 0 0 58.5 20.51Z" />
  <circle cx="30.02" cy="29.99" r="2.4" />
  <circle cx="44.43" cy="29.99" r="2.4" />
  <circle cx="15.62" cy="29.99" r="2.4" />
  <path fill="#fd0" d="m1.17 38.24.18.54-.18-.62Zm2.47-.17.19.64a1.19 1.19 0 0 1-.76 1.51 1.31 1.31 0 0 1-.38.06 1.19 1.19 0 0 1-1.1-.76 29.62 29.62 0 0 0 3.28 6.83 1.2 1.2 0 0 0 2-1.31 27.14 27.14 0 0 1-3.23-6.97Zm55.24-16.34-.19-.56.19.65Zm-5.36-8.45a1.2 1.2 0 0 0-.35 1.66 27.54 27.54 0 0 1 3.23 6.93l-.18-.6a1.19 1.19 0 0 1 2.23-.84 29.8 29.8 0 0 0-3.27-6.8 1.19 1.19 0 0 0-1.66-.35Z" />
</svg>
