<svg xmlns="http://www.w3.org/2000/svg" viewBox="0 0 60.01 59.1">
  <path d="M34.36 30.45a9.88 9.88 0 0 0 1.13-.67 1.2 1.2 0 0 0-1.37-2 7.9 7.9 0 0 1-.85.5 7.11 7.11 0 0 1-3.27.82 7.2 7.2 0 1 1 7.2-7.2 7.48 7.48 0 0 1-.15 1.5 1.15 1.15 0 0 1-1.11.89 1.14 1.14 0 0 1-1.14-1.14V18.3a1.19 1.19 0 0 0-1.2-1.2 1.21 1.21 0 0 0-1.1.72 4.74 4.74 0 0 0-2.5-.72 4.8 4.8 0 1 0 3.24 8.32A3.51 3.51 0 0 0 39.37 24s0 0 0-.06v-.07a9.29 9.29 0 0 0 .2-1.9 9.61 9.61 0 1 0-5.24 8.55ZM30 24.3a2.4 2.4 0 1 1 2.4-2.4 2.41 2.41 0 0 1-2.4 2.4Z" />
  <path d="M58.81 35.1a1.2 1.2 0 0 0-1.2 1.2v18a2.39 2.39 0 0 1-.37 1.2l-22.5-14.05 23-17.25a1.19 1.19 0 0 0 2.26-.5 4.62 4.62 0 0 0-.39-1.8.25.25 0 0 0 0-.11 4.78 4.78 0 0 0-1.49-1.93L32.88 1a4.82 4.82 0 0 0-5.75 0L1.92 19.86a4.66 4.66 0 0 0-1.49 1.92.61.61 0 0 0 0 .12A4.8 4.8 0 0 0 0 23.7v12.6a1.2 1.2 0 0 0 2.4 0v-12l22.87 17.15-22.5 14a2.32 2.32 0 0 1-.37-1.19V50.7a1.2 1.2 0 0 0-2.4 0v3.61A4.77 4.77 0 0 0 1.73 58l.15.12a4.78 4.78 0 0 0 2.92 1h50.41A4.81 4.81 0 0 0 60 54.31v-18a1.2 1.2 0 0 0-1.19-1.21Zm-30.08 7a2.42 2.42 0 0 1 2.54 0l23.35 14.6H5.38ZM3.24 21.93a.88.88 0 0 1 .12-.15L28.57 2.87a2.42 2.42 0 0 1 2.87 0l25.21 18.91c.05 0 .07.1.12.14L32.56 40.08a4.86 4.86 0 0 0-5.09 0Z" />
  <path fill="#fd0" d="M58.81 27.9a1.2 1.2 0 0 0-1.2 1.2v7.2a1.2 1.2 0 0 1 2.4 0v-7.2a1.2 1.2 0 0 0-1.2-1.2ZM1.2 37.5A1.2 1.2 0 0 1 0 36.3v7.2a1.2 1.2 0 0 0 2.4 0v-7.2a1.2 1.2 0 0 1-1.2 1.2Z" />
</svg>
