<svg xmlns="http://www.w3.org/2000/svg" viewBox="0 0 60.05 59.98">
  <path d="M10.51 10.47a27.63 27.63 0 0 1 39 0 1.2 1.2 0 1 0 1.7-1.7A30 30 0 0 0 1.55 39.46a1.21 1.21 0 0 0 1.14.83 1.06 1.06 0 0 0 .38-.07 1.19 1.19 0 0 0 .76-1.51 27.45 27.45 0 0 1 6.68-28.24ZM58.5 20.52a1.21 1.21 0 0 0-1.5-.77 1.2 1.2 0 0 0-.76 1.52 27.61 27.61 0 0 1-45.73 28.24 1.2 1.2 0 0 0-1.7 1.7A30 30 0 0 0 58.5 20.52Z" />
  <path d="M38.07 21.94a1.19 1.19 0 0 0-1.69 0L30 28.29l-6.35-6.35a1.2 1.2 0 0 0-1.7 0 1.22 1.22 0 0 0 0 1.7L28.33 30 22 36.34A1.22 1.22 0 0 0 22 38a1.24 1.24 0 0 0 .85.35 1.2 1.2 0 0 0 .85-.35l6.3-6.31L36.38 38a1.2 1.2 0 0 0 1.69-1.7L31.72 30l6.35-6.35a1.2 1.2 0 0 0 0-1.71Z" />
  <path fill="#fd0" d="M58.87 21.73c0-.18-.11-.35-.17-.53l.18.61-.01-.08Zm-5.35-8.45a1.2 1.2 0 0 0-.35 1.66 27.76 27.76 0 0 1 3.24 7l-.19-.63a1.19 1.19 0 0 1 2.23-.84 29.8 29.8 0 0 0-3.27-6.8 1.2 1.2 0 0 0-1.66-.39ZM1.17 38.25l.19.56-.19-.65a.27.27 0 0 0 0 .09Zm2.48-.14.18.6a1.19 1.19 0 0 1-.76 1.51 1.06 1.06 0 0 1-.38.07 1.19 1.19 0 0 1-1.1-.78 29.49 29.49 0 0 0 3.28 6.84 1.2 1.2 0 0 0 1 .55 1.21 1.21 0 0 0 1-1.86 27.35 27.35 0 0 1-3.22-6.93Z" />
</svg>
