<svg xmlns="http://www.w3.org/2000/svg" viewBox="0 0 72.01 34.8">
  <path d="M27.6 17.4A8.4 8.4 0 1 0 36 9a8.41 8.41 0 0 0-8.4 8.4Zm14.4 0a6 6 0 1 1-6-6 6 6 0 0 1 6 6Z" />
  <path d="M71.79 16.71C66.05 8.66 56.43 3 45.48.91A50 50 0 0 0 36 0 47.29 47.29 0 0 0 8.77 8.28a1.2 1.2 0 1 0 1.39 2A41.34 41.34 0 0 1 21.94 4.5a19.21 19.21 0 0 0-5.07 12.91 19.15 19.15 0 0 0 5.05 12.87C13.71 27.73 6.66 23 2.18 16.71a1.21 1.21 0 0 0-1.68-.29 1.21 1.21 0 0 0-.28 1.68C7.56 28.4 21.27 34.8 36 34.8a50.84 50.84 0 0 0 9.19-.86h.06a.94.94 0 0 0 .22-.07 45.39 45.39 0 0 0 17.77-7.35 1.2 1.2 0 1 0-1.39-2 41.32 41.32 0 0 1-11.78 5.78 19 19 0 0 0 .07-25.76c8.19 2.56 15.22 7.28 19.69 13.56a1.2 1.2 0 0 0 1.67.28 1.2 1.2 0 0 0 .29-1.67Zm-19.06.7a16.75 16.75 0 0 1-7.86 14.15 48.14 48.14 0 0 1-8.87.84 48.36 48.36 0 0 1-8.81-.82 16.54 16.54 0 0 1-7.92-14.17 16.78 16.78 0 0 1 7.86-14.16A48.31 48.31 0 0 1 36 2.4a47.52 47.52 0 0 1 8.82.83 16.5 16.5 0 0 1 7.91 14.18Z" />
  <path fill="#fd0" d="M8.48 10a1.19 1.19 0 0 1 .1-1.48 38.42 38.42 0 0 0-4.87 4.1 1.19 1.19 0 0 0 0 1.69 1.2 1.2 0 0 0 1.7 0 36 36 0 0 1 5.51-4.52c-.25.17-.52.33-.77.51a1.21 1.21 0 0 1-1.67-.3Zm59.81 10.54a1.21 1.21 0 0 0-1.7 0 35.11 35.11 0 0 1-6.11 4.9c.46-.29.93-.57 1.37-.88a1.2 1.2 0 0 1 1.41 1.94 38.29 38.29 0 0 0 5-4.27 1.21 1.21 0 0 0 .03-1.69Z" />
</svg>
