<svg xmlns="http://www.w3.org/2000/svg" viewBox="0 0 72.01 68.85">
  <path d="M70.86 29.91a3.79 3.79 0 0 0-2.11-6.47 1.18 1.18 0 0 0-1.36 1 1.2 1.2 0 0 0 1 1.36 1.39 1.39 0 0 1 .77 2.38L55 42a3.8 3.8 0 0 0-1.1 3.36l3.34 19.48a1.35 1.35 0 0 1-.55 1.36 1.37 1.37 0 0 1-1.47.11L37.77 57.1a3.74 3.74 0 0 0-3.53 0l-17.49 9.19a1.4 1.4 0 0 1-2-1.47 1.2 1.2 0 1 0-2.36-.41 3.79 3.79 0 0 0 5.51 4l17.48-9.19a1.42 1.42 0 0 1 1.3 0l17.49 9.19a3.8 3.8 0 0 0 5.51-4l-3.37-19.47a1.4 1.4 0 0 1 .4-1.24ZM15.7 44.94l-1.11 6.46a1.2 1.2 0 0 0 1 1.38.71.71 0 0 0 .2 0 1.2 1.2 0 0 0 1.19-1l1.1-6.46A3.79 3.79 0 0 0 17 42L2.82 28.19a1.4 1.4 0 0 1 .78-2.38L23.15 23A3.8 3.8 0 0 0 26 20.89l8.75-17.71a1.44 1.44 0 0 1 2.51 0L46 20.89A3.79 3.79 0 0 0 48.86 23l6.48.94a1.2 1.2 0 0 0 .35-2.37l-6.49-.95a1.4 1.4 0 0 1-1.05-.76L39.41 2.12A3.78 3.78 0 0 0 36 0a3.76 3.76 0 0 0-3.4 2.12l-8.74 17.71a1.43 1.43 0 0 1-1.06.77L3.25 23.44a3.79 3.79 0 0 0-2.1 6.47L15.3 43.7a1.4 1.4 0 0 1 .4 1.24Z" />
  <path d="M39 35.85h-6a1.18 1.18 0 0 0-1.15 1l-5.63-2.66a1.21 1.21 0 0 0-1.6.58 1.2 1.2 0 0 0 .58 1.59l6.6 3.12v.87a1.2 1.2 0 0 0 1.2 1.2h6a1.2 1.2 0 0 0 1.2-1.2v-.87l6.6-3.12a1.2 1.2 0 1 0-1-2.17l-5.63 2.66a1.18 1.18 0 0 0-1.17-1Zm-1.2 3.27h-3.58v-.87h3.56Z" />
  <path d="M39.48 23.55h-7a3.68 3.68 0 0 0-3.68 3.68v.32h-5.71a2.7 2.7 0 0 0-2.69 2.69v14.9a2.7 2.7 0 0 0 2.69 2.69h25.83a2.7 2.7 0 0 0 2.69-2.69v-14.9a2.7 2.7 0 0 0-2.69-2.69h-5.76v-.32a3.68 3.68 0 0 0-3.68-3.68Zm-8.24 3.68A1.28 1.28 0 0 1 32.52 26h7a1.28 1.28 0 0 1 1.28 1.28v.32h-9.56Zm18 3v14.9a.29.29 0 0 1-.29.29H23.09a.29.29 0 0 1-.29-.29V30.24a.29.29 0 0 1 .29-.29h25.83a.3.3 0 0 1 .29.29Z" />
  <path fill="#fd0" d="M67.39 24.45a1.18 1.18 0 0 1 1.36-1l-7.12-1a1.18 1.18 0 0 0-1.36 1 1.2 1.2 0 0 0 1 1.36l7.13 1a1.2 1.2 0 0 1-1.01-1.36ZM15.77 52.8a.71.71 0 0 1-.2 0 1.2 1.2 0 0 1-1-1.38l-1.22 7.1a1.2 1.2 0 0 0 1 1.38h.21a1.2 1.2 0 0 0 1.18-1L17 51.8a1.2 1.2 0 0 1-1.23 1Z" />
</svg>
