<svg xmlns="http://www.w3.org/2000/svg" viewBox="0 0 72.01 68.85">
  <path d="M70.86 29.91a3.79 3.79 0 0 0-2.11-6.47 1.19 1.19 0 0 0-1.36 1 1.2 1.2 0 0 0 1 1.36 1.39 1.39 0 0 1 .77 2.38L55 42a3.81 3.81 0 0 0-1.1 3.37l3.34 19.47a1.35 1.35 0 0 1-.55 1.36 1.37 1.37 0 0 1-1.47.11l-9-4.75v-4a10.22 10.22 0 0 0-20.44 0v4l-9 4.75a1.4 1.4 0 0 1-2-1.47 1.19 1.19 0 0 0-1-1.39 1.2 1.2 0 0 0-1.38 1 3.79 3.79 0 0 0 5.51 4l17.48-9.19a1.42 1.42 0 0 1 1.3 0l17.49 9.19a3.8 3.8 0 0 0 5.51-4l-3.38-19.51a1.4 1.4 0 0 1 .4-1.24ZM34.24 57.1l-6.05 3.18V57.5a7.82 7.82 0 0 1 15.64 0v2.78l-6.06-3.18a3.74 3.74 0 0 0-3.53 0ZM15.7 44.94l-1.11 6.46a1.2 1.2 0 0 0 1 1.38.71.71 0 0 0 .2 0 1.2 1.2 0 0 0 1.19-1l1.1-6.45A3.8 3.8 0 0 0 17 42L2.83 28.19a1.36 1.36 0 0 1-.36-1.43 1.39 1.39 0 0 1 1.13-1L23.15 23A3.79 3.79 0 0 0 26 20.89l8.75-17.71a1.44 1.44 0 0 1 2.51 0L46 20.89A3.79 3.79 0 0 0 48.86 23l6.49.94a1.2 1.2 0 0 0 .34-2.37l-6.49-.97a1.44 1.44 0 0 1-1.05-.77L39.41 2.12a3.79 3.79 0 0 0-6.81 0l-8.74 17.71a1.43 1.43 0 0 1-1.06.77L3.25 23.44a3.79 3.79 0 0 0-2.1 6.47L15.3 43.7a1.42 1.42 0 0 1 .4 1.24Z" />
  <path d="M36 46a8.44 8.44 0 0 0 8.43-8.43v-.63a1.19 1.19 0 0 0 1.19-1.19v-2.84a9.59 9.59 0 0 0-13.51-8.81 1 1 0 0 0-.32.18 9.62 9.62 0 0 0-5.41 8.63v1.58c0 .04 0 .07.05.11a.87.87 0 0 0 .07.17 1.64 1.64 0 0 0 .14.22l.12.12a1.19 1.19 0 0 0 .23.16l.13.07a1.07 1.07 0 0 0 .43.09v2.09A8.44 8.44 0 0 0 36 46Zm0-2.4a6 6 0 0 1-6-6v-2.89a12 12 0 0 0 4-2.92 13.29 13.29 0 0 0 8 4.89v.84a6 6 0 0 1-6 6.03Zm7.22-10.64v1.48a10.77 10.77 0 0 1-9.3-8.44 6.89 6.89 0 0 1 2.08-.34 7.24 7.24 0 0 1 7.23 7.25Zm-11.51-5.8a12.37 12.37 0 0 0 1 2.55 9.49 9.49 0 0 1-3.85 2.91 7.18 7.18 0 0 1 2.86-5.51Z" />
  <path fill="#fd0" d="M67.39 24.45a1.19 1.19 0 0 1 1.36-1l-7.12-1a1.19 1.19 0 0 0-1.36 1 1.2 1.2 0 0 0 1 1.36l7.13 1a1.2 1.2 0 0 1-1.01-1.36ZM15.77 52.8a.71.71 0 0 1-.2 0 1.2 1.2 0 0 1-1-1.38l-1.22 7.1a1.2 1.2 0 0 0 1 1.38h.21a1.2 1.2 0 0 0 1.18-1L17 51.8a1.2 1.2 0 0 1-1.23 1Z" />
</svg>
