<svg xmlns="http://www.w3.org/2000/svg" viewBox="0 0 72.01 68.85">
  <path d="M70.86 29.91a3.79 3.79 0 0 0-2.11-6.47 1.18 1.18 0 0 0-1.36 1 1.2 1.2 0 0 0 1 1.36 1.39 1.39 0 0 1 .77 2.38L55 42a3.8 3.8 0 0 0-1.1 3.36l3.34 19.48a1.35 1.35 0 0 1-.55 1.36 1.37 1.37 0 0 1-1.47.11l-3.65-1.92v-8.8a15.61 15.61 0 0 0-31.21 0v8.8l-3.65 1.92a1.4 1.4 0 0 1-2-1.47 1.2 1.2 0 1 0-2.36-.41 3.8 3.8 0 0 0 5.51 4l4.19-2.2 13.25-7a1.42 1.42 0 0 1 1.3 0l13.26 7 4.19 2.2a3.8 3.8 0 0 0 5.51-4l-3.25-19.49a1.4 1.4 0 0 1 .4-1.24ZM34.24 57.1l-11.44 6v-7.53a13.21 13.21 0 0 1 26.41 0v7.54l-11.44-6a3.74 3.74 0 0 0-3.53-.01Z" />
  <path d="m15.7 44.94-1.11 6.46a1.2 1.2 0 0 0 1 1.38.71.71 0 0 0 .2 0 1.2 1.2 0 0 0 1.19-1l1.1-6.46A3.79 3.79 0 0 0 17 42L2.83 28.19a1.36 1.36 0 0 1-.36-1.43 1.39 1.39 0 0 1 1.13-1L23.15 23A3.79 3.79 0 0 0 26 20.89l8.75-17.71a1.44 1.44 0 0 1 2.51 0L46 20.89A3.79 3.79 0 0 0 48.86 23l6.49.94a1.2 1.2 0 0 0 .34-2.37l-6.49-.97a1.44 1.44 0 0 1-1.05-.77L39.41 2.12a3.79 3.79 0 0 0-6.81 0l-8.74 17.71a1.43 1.43 0 0 1-1.06.77L3.25 23.44a3.79 3.79 0 0 0-2.1 6.47L15.3 43.7a1.42 1.42 0 0 1 .4 1.24Z" />
  <path d="M36 17.54h-2.82a6.54 6.54 0 0 0-6.49 6.67l.91 6.72a8.4 8.4 0 0 0 16.8 0l.92-6.88a6.51 6.51 0 0 0-6.5-6.51Zm0 19.24a6 6 0 0 1-6-6s0-.05 0-.07v-.09a.14.14 0 0 0 0-.06V27a2.94 2.94 0 0 1 2.94-2.94h6.14A2.94 2.94 0 0 1 42 27v3.78a6 6 0 0 1-6 6Zm6.85-13.56a5.3 5.3 0 0 0-3.78-1.57h-6.14a5.35 5.35 0 0 0-3.76 1.54 4.11 4.11 0 0 1 4-3.24h5.64a4.1 4.1 0 0 1 4.04 3.27Z" />
  <path fill="#fd0" d="M67.39 24.45a1.18 1.18 0 0 1 1.36-1l-7.12-1a1.19 1.19 0 0 0-1.36 1 1.2 1.2 0 0 0 1 1.36l7.13 1a1.2 1.2 0 0 1-1.01-1.36ZM15.77 52.8a.71.71 0 0 1-.2 0 1.2 1.2 0 0 1-1-1.38l-1.22 7.1a1.2 1.2 0 0 0 1 1.38h.21a1.2 1.2 0 0 0 1.18-1L17 51.8a1.2 1.2 0 0 1-1.23 1Z" />
</svg>
