<svg xmlns="http://www.w3.org/2000/svg" viewBox="0 0 58.8 61.21">
  <path d="M25.08 36.1c-1.34 1-4.41.62-6.14.11a1.2 1.2 0 1 0-.68 2.3 16.63 16.63 0 0 0 3.35.58V40A1.2 1.2 0 0 0 24 40v-1a5.56 5.56 0 0 0 2.51-1 4.28 4.28 0 0 0 1.68-3.63c0-3.47-3-4.52-5.2-5.28s-3.18-1.24-3.18-2.4 1.52-1.94 3-1.94a4.12 4.12 0 0 1 3 1A1.2 1.2 0 0 0 27.43 24 6.31 6.31 0 0 0 24 22.46v-.8a1.2 1.2 0 0 0-2.4 0v.83c-2.2.39-4.19 1.83-4.19 4.22 0 3 2.65 3.92 4.79 4.66 2.5.87 3.59 1.42 3.59 3a1.9 1.9 0 0 1-.71 1.73Z" />
  <path d="M57.22 20.56a5.53 5.53 0 0 0-7.64 0l-4 4V13.2a1.18 1.18 0 0 0-.09-.46 1.16 1.16 0 0 0-.26-.39l-12-12a1.22 1.22 0 0 0-.38-.26A1.27 1.27 0 0 0 32.4 0H4.81A4.82 4.82 0 0 0 0 4.81a1.2 1.2 0 0 0 2.4 0A2.41 2.41 0 0 1 4.81 2.4H31.2v7.19A4.81 4.81 0 0 0 36 14.4h7.2v12.54l-17 17-.85.84a1.17 1.17 0 0 0-.33.64l-1.23 7.18A1.22 1.22 0 0 0 25 54h.21l7.22-1.28a1.17 1.17 0 0 0 .64-.33l24.15-24.2a5.4 5.4 0 0 0 0-7.63ZM33.6 9.59V4.1l7.91 7.9H36a2.41 2.41 0 0 1-2.4-2.41Zm-6.32 37 3.87 3.87-4.7.83ZM55.52 26.5 33 49l-4.25-4.25 22.53-22.49a3.06 3.06 0 0 1 4.24 0 2.94 2.94 0 0 1 .88 2.12 3 3 0 0 1-.88 2.12Z" />
  <path d="M53 23.1 31.76 44.32a1.2 1.2 0 0 0 0 1.7 1.22 1.22 0 0 0 .85.35 1.2 1.2 0 0 0 .85-.35L54.68 24.8a1.22 1.22 0 0 0 0-1.7 1.2 1.2 0 0 0-1.68 0Z" />
  <path d="M44.4 52.52a1.2 1.2 0 0 0-1.2 1.2v2.68a2.4 2.4 0 0 1-2.4 2.41h-36a2.41 2.41 0 0 1-2.4-2.41V19.2a1.2 1.2 0 0 0-2.4 0v37.2a4.82 4.82 0 0 0 4.81 4.81h36a4.81 4.81 0 0 0 4.8-4.81v-2.68a1.19 1.19 0 0 0-1.21-1.2Z" />
  <path fill="#fd0" d="M44.4 45.32a1.2 1.2 0 0 0-1.2 1.2v7.2a1.2 1.2 0 0 1 2.4 0v-7.2a1.19 1.19 0 0 0-1.2-1.2ZM0 4.8ZM1.2 6A1.2 1.2 0 0 1 0 4.81V12a1.2 1.2 0 0 0 2.4 0V4.81A1.2 1.2 0 0 1 1.2 6Z" />
</svg>
