<svg xmlns="http://www.w3.org/2000/svg" viewBox="0 0 72.01 45.6">
  <path d="M45 16.8a1.19 1.19 0 0 0 1.2-1.2v-6h12a2.41 2.41 0 0 1 2.4 2.4 1.2 1.2 0 0 0 2.4 0 4.82 4.82 0 0 0-4.81-4.81h-12v-6A1.2 1.2 0 0 0 45 0H27a1.2 1.2 0 0 0-1.2 1.2v6h-12A4.82 4.82 0 0 0 9 12v16.8H1.2a1.2 1.2 0 0 0 0 2.4H18v12H1.2a1.2 1.2 0 1 0 0 2.4h18a1.19 1.19 0 0 0 1.2-1.2V30a1.2 1.2 0 0 0-1.2-1.2h-7.81V12a2.41 2.41 0 0 1 2.41-2.41h12v6A1.2 1.2 0 0 0 27 16.8h7.8v12H27a1.2 1.2 0 0 0-1.2 1.2v14.4a1.2 1.2 0 0 0 1.2 1.2h18a1.19 1.19 0 0 0 1.2-1.2V30a1.2 1.2 0 0 0-1.2-1.2h-7.8v-12Zm-1.2 26.4H28.2v-12h15.6ZM28.2 2.4h15.6v12H28.2Z" />
  <path d="M70.81 28.8H63V27a1.2 1.2 0 0 0-2.4 0v1.8h-7.79a1.2 1.2 0 0 0-1.2 1.2v14.4a1.19 1.19 0 0 0 1.2 1.2h18A1.2 1.2 0 0 0 72 44.4V30a1.2 1.2 0 0 0-1.19-1.2Zm-1.2 14.4H54v-12h15.6Z" />
  <path fill="#fd0" d="M61.8 18a1.2 1.2 0 0 0-1.2 1.2v7.2a1 1 0 0 0 .06.3 1.17 1.17 0 0 1 2.28 0 1.45 1.45 0 0 0 .06-.3v-7.2a1.2 1.2 0 0 0-1.2-1.2ZM0 30v7.2a1.2 1.2 0 0 0 2.4 0v-6H1.2A1.2 1.2 0 0 1 0 30Z" />
</svg>
