<svg xmlns="http://www.w3.org/2000/svg" viewBox="0 0 68.88 68.87">
  <path d="M19.69 59.62A10.44 10.44 0 1 0 9.25 49.19a10.44 10.44 0 0 0 10.44 10.43Zm0-18.47a8 8 0 1 1-8 8 8 8 0 0 1 8-8ZM50.74 14.2a7.29 7.29 0 0 0-9.51 3.93 7.27 7.27 0 0 0 0 5.57 7.18 7.18 0 0 0 3.94 3.94 7.27 7.27 0 1 0 5.57-13.44Zm1.72 8.58a4.88 4.88 0 1 1 0-3.73 4.85 4.85 0 0 1 0 3.73Z" />
  <path d="M37.87 45a2.93 2.93 0 0 1-2.73-1.8l-.27-.66a2.92 2.92 0 0 1 .64-3.23 1.21 1.21 0 0 0 .13-1.55 19.5 19.5 0 0 0-4.51-4.51 1.2 1.2 0 0 0-1.55.13 2.92 2.92 0 0 1-3.23.64l-.66-.27a2.94 2.94 0 0 1-1.8-2.75 1.2 1.2 0 0 0-1-1.19 18.65 18.65 0 0 0-6.41 0 1.21 1.21 0 0 0-1 1.2 2.93 2.93 0 0 1-1.81 2.73L13 34a2.93 2.93 0 0 1-3.24-.64 1.2 1.2 0 0 0-1.55-.13 19.65 19.65 0 0 0-4.5 4.51 1.2 1.2 0 0 0 .13 1.55 2.92 2.92 0 0 1 .64 3.23q-.15.33-.27.66A3 3 0 0 1 1.46 45a1.2 1.2 0 0 0 0 2.4 5.34 5.34 0 0 0 5-3.33l.23-.56a5.35 5.35 0 0 0-.46-5.08 17.41 17.41 0 0 1 2.68-2.68 5.35 5.35 0 0 0 5.09.45l.56-.23A5.33 5.33 0 0 0 17.75 32a15.42 15.42 0 0 1 3.84 0 5.34 5.34 0 0 0 3.23 4l.56.23a5.35 5.35 0 0 0 5.08-.47 17.41 17.41 0 0 1 2.68 2.68 5.32 5.32 0 0 0-.47 5.08l.24.56a5.29 5.29 0 0 0 3.92 3.23 15.42 15.42 0 0 1 0 3.84 5.31 5.31 0 0 0-3.93 3.22l-.23.56a5.32 5.32 0 0 0 .47 5.07 17 17 0 0 1-2.68 2.68 5.29 5.29 0 0 0-5.08-.46l-.56.23a5.28 5.28 0 0 0-3.22 3.92 15.5 15.5 0 0 1-3.85 0 5.28 5.28 0 0 0-3.22-3.92L14 62.2a5.32 5.32 0 0 0-5.08.46A16.57 16.57 0 0 1 6.21 60a5.35 5.35 0 0 0 .46-5.08l-.23-.56a1.2 1.2 0 1 0-2.23.88c.08.22.17.43.27.65a2.93 2.93 0 0 1-.64 3.24 1.19 1.19 0 0 0-.13 1.54 19.31 19.31 0 0 0 4.51 4.51A1.19 1.19 0 0 0 9.76 65a2.93 2.93 0 0 1 3.24-.61c.22.1.43.19.65.27a2.94 2.94 0 0 1 1.81 2.75 1.18 1.18 0 0 0 1 1.18 18.48 18.48 0 0 0 6.41 0 1.21 1.21 0 0 0 1-1.2 2.94 2.94 0 0 1 1.8-2.73q.33-.12.66-.27a2.92 2.92 0 0 1 3.23.64 1.2 1.2 0 0 0 1.55.13 19.31 19.31 0 0 0 4.51-4.51 1.2 1.2 0 0 0-.13-1.54 2.93 2.93 0 0 1-.64-3.24l.27-.65a2.93 2.93 0 0 1 2.74-1.81 1.2 1.2 0 0 0 1.19-1 18.48 18.48 0 0 0 0-6.41 1.21 1.21 0 0 0-1.18-1Z" />
  <path d="M68.12 24.44A3.33 3.33 0 0 1 66 21.32v-.77a3.33 3.33 0 0 1 2-3.07 1.2 1.2 0 0 0-.86-2.25 5.75 5.75 0 0 0-3.57 5.35v.67a5.73 5.73 0 0 0 2.62 4.9 18.4 18.4 0 0 1-1.66 4 5.76 5.76 0 0 0-5.33 1.61l-.47.47a5.73 5.73 0 0 0-1.57 5.31 18.12 18.12 0 0 1-2 1 17.79 17.79 0 0 1-2.1.71 5.9 5.9 0 0 0-4.86-2.64h-.67a5.62 5.62 0 0 0-4.9 2.62 18.69 18.69 0 0 1-4-1.66 5.73 5.73 0 0 0-1.61-5.33l-.47-.47a5.75 5.75 0 0 0-5.32-1.58 18.94 18.94 0 0 1-1-2 17 17 0 0 1-.71-2.09 5.7 5.7 0 0 0 2.64-4.86v-.67a5.76 5.76 0 0 0-2.62-4.91 18.52 18.52 0 0 1 1.66-4 5.76 5.76 0 0 0 5.33-1.61l.47-.47a5.75 5.75 0 0 0 1.57-5.31 18.23 18.23 0 0 1 2-1 17 17 0 0 1 2.09-.71 5.68 5.68 0 0 0 4.94 2.68h.67a5.71 5.71 0 0 0 4.9-2.63 18.72 18.72 0 0 1 4 1.67 5.79 5.79 0 0 0 1.61 5.33l.47.47A1.21 1.21 0 0 0 61 8.41l-.55-.54a3.34 3.34 0 0 1-.74-3.68 1.19 1.19 0 0 0-.47-1.48A21.23 21.23 0 0 0 52.83.05a1.2 1.2 0 0 0-1.38.71 3.33 3.33 0 0 1-3.12 2.08h-.77A3.24 3.24 0 0 1 44.45.7a1.21 1.21 0 0 0-1.37-.7 23.21 23.21 0 0 0-3.35 1.06 22.27 22.27 0 0 0-3.12 1.62 1.23 1.23 0 0 0-.48 1.5 3.32 3.32 0 0 1-.71 3.66l-.54.54a3.34 3.34 0 0 1-3.68.74 1.19 1.19 0 0 0-1.48.47 21.4 21.4 0 0 0-2.66 6.43 1.21 1.21 0 0 0 .71 1.38 3.33 3.33 0 0 1 2.08 3.12v.77a3.35 3.35 0 0 1-2.13 3.11 1.2 1.2 0 0 0-.72 1.4 22 22 0 0 0 1.06 3.35 22.27 22.27 0 0 0 1.62 3.12 1.23 1.23 0 0 0 1.5.48 3.32 3.32 0 0 1 3.66.71l.54.54a3.34 3.34 0 0 1 .74 3.68 1.19 1.19 0 0 0 .47 1.48 21.23 21.23 0 0 0 6.43 2.66 1.2 1.2 0 0 0 1.38-.71A3.21 3.21 0 0 1 47.57 39h.76a3.3 3.3 0 0 1 3.1 2.1 1.21 1.21 0 0 0 1.1.74 1.27 1.27 0 0 0 .28 0 22 22 0 0 0 3.35-1.06 22.27 22.27 0 0 0 3.12-1.62 1.23 1.23 0 0 0 .48-1.5 3.33 3.33 0 0 1 .7-3.65l.55-.55a3.36 3.36 0 0 1 3.68-.74 1.19 1.19 0 0 0 1.48-.47 21 21 0 0 0 2.66-6.43 1.21 1.21 0 0 0-.71-1.38Z" />
  <path fill="#fd0" d="M68.85 16.07a23.21 23.21 0 0 0-1.06-3.35 22.27 22.27 0 0 0-1.62-3.12 1.21 1.21 0 0 0-1.5-.48 1.2 1.2 0 0 0-.67 1.57 1.56 1.56 0 0 0 .16.28 20 20 0 0 1 1.38 2.66 18.17 18.17 0 0 1 .7 2.12 5.32 5.32 0 0 1 .94-.51 1.21 1.21 0 0 1 1.55.7.86.86 0 0 1 0 .32 1 1 0 0 0 .12-.19ZM2.4 49.2a17.38 17.38 0 0 1 .14-2 5.43 5.43 0 0 1-1.06.16 1.21 1.21 0 0 1-1.21-1.2 1 1 0 0 1 .08-.39.8.8 0 0 0-.07.2 18.48 18.48 0 0 0 0 6.41 1.21 1.21 0 0 0 1.2 1 1.19 1.19 0 0 0 1.19-1.2 1.1 1.1 0 0 0 0-.31 17.89 17.89 0 0 1-.27-2.67Z" />
</svg>
