<svg xmlns="http://www.w3.org/2000/svg" viewBox="0 0 69.66 59.97">
  <path d="M68.46 7.17H57.51a8.36 8.36 0 0 0-14.78-4l-1.31 1.6H28.17l-1.31-1.64a8.36 8.36 0 0 0-14.78 4H1.2A1.2 1.2 0 0 0 0 8.37v14.4A1.2 1.2 0 0 0 1.2 24h3.74v20.4a1.2 1.2 0 0 0 2.4 0V24h19.05v33.6H6.14a1.2 1.2 0 0 0 0 2.4h57.47a1.2 1.2 0 0 0 1.2-1.2V37.17a1.2 1.2 0 0 0-2.4 0v20.4H43.2V24h25.26a1.2 1.2 0 0 0 1.2-1.2V8.37a1.2 1.2 0 0 0-1.2-1.2Zm-6.71 6.2-6-.82a1.19 1.19 0 0 0-1 .35l-4.3 4.36-2.69-7.69h12.68ZM44.6 4.64a6 6 0 0 1 10.48 2.53H43.2v-.78ZM18.37 2.75A5.82 5.82 0 0 1 25 4.64l1.4 1.75v.78H14.51a5.83 5.83 0 0 1 3.86-4.42ZM9.21 9.57h12.68l-2.62 7.69L15 12.9a1.22 1.22 0 0 0-1-.35l-6 .82Zm-3.07 12H2.4v-12h4.27L5 14.43A1.2 1.2 0 0 0 6.31 16l7.37-1 5.24 5.31a1.22 1.22 0 0 0 .86.36 1.24 1.24 0 0 0 .27 0 1.19 1.19 0 0 0 .86-.78l3.52-10.3h2v12Zm22.65 36V7.17h12v50.4Zm38.47-36H43.2v-12h2l3.51 10.3a1.19 1.19 0 0 0 .87.78 1.24 1.24 0 0 0 .27 0 1.21 1.21 0 0 0 .85-.36L56 15l7.38 1a1.21 1.21 0 0 0 1.09-.43 1.22 1.22 0 0 0 .21-1.15L63 9.57h4.28Z" />
  <path fill="#fd0" d="M63.61 28.77a1.19 1.19 0 0 0-1.2 1.2v7.2a1.2 1.2 0 0 1 2.4 0V30a1.2 1.2 0 0 0-1.2-1.23ZM6.14 45.57a1.2 1.2 0 0 1-1.2-1.2v7.2a1.2 1.2 0 0 0 2.4 0v-7.2a1.2 1.2 0 0 1-1.2 1.2Z" />
</svg>
