<svg xmlns="http://www.w3.org/2000/svg" viewBox="0 0 72.01 58.07">
  <path
    d="M70.81 21a1.2 1.2 0 0 0-1.2 1.2V36h-4.8a1.18 1.18 0 0 0-.85.36l-5.91 5.91L44.32 8c0-.06-.08-.09-.12-.15a1.24 1.24 0 0 0-.2-.32l-.19-.13a1 1 0 0 0-.2-.11 1.94 1.94 0 0 0-.2 0 2.3 2.3 0 0 0-.26 0 .78.78 0 0 0-.21 0 .71.71 0 0 0-.2 0l-8 4a3.24 3.24 0 0 1-3.16-.15A3.18 3.18 0 0 1 30 8.87l6.5-6.47h19.62a2.38 2.38 0 0 1 1.69.7L64 9.25a1.21 1.21 0 0 0 .85.35h6a1.2 1.2 0 1 0 0-2.4H65.3l-5.79-5.8A4.79 4.79 0 0 0 56.12 0H15.89a4.79 4.79 0 0 0-3.39 1.4L6.7 7.2H1.2A1.2 1.2 0 0 0 0 8.4v14.4a1.2 1.2 0 0 0 2.4 0V9.6h4.8a1.23 1.23 0 0 0 .85-.35L14.2 3.1a2.38 2.38 0 0 1 1.69-.7h17.22L28 7.55a1.2 1.2 0 0 0-.36.85 5.66 5.66 0 0 0 5.65 5.66 5.55 5.55 0 0 0 2.53-.61l6.8-3.39 13.87 34.79a1.77 1.77 0 0 1 .1 1.39 1.82 1.82 0 0 1-3.35.24 1.2 1.2 0 0 0-2.27.54 1.24 1.24 0 0 0 .12.53 1.77 1.77 0 0 1 .1 1.39 1.82 1.82 0 0 1-3.35.24 1.2 1.2 0 0 0-2.28.54 1.25 1.25 0 0 0 .13.53A1.82 1.82 0 0 1 42.48 52a1.21 1.21 0 0 0-1.61-.54 1.19 1.19 0 0 0-.54 1.54 1.67 1.67 0 0 1-.25 2.07c-.47.29-1.34.12-2.5-.43a4.2 4.2 0 0 0-2-5.42 4 4 0 0 0-2.08-.42 4.15 4.15 0 0 0-4.31-4.8 4.21 4.21 0 0 0-5.48-4.69 4.15 4.15 0 0 0-2 1.46 4.11 4.11 0 0 0-1.45-1.23 4.22 4.22 0 0 0-5.66 1.87l-.48.94-6-6A1.2 1.2 0 0 0 7.2 36h-6a1.2 1.2 0 1 0 0 2.4h5.5l6.3 6.32a4.17 4.17 0 0 0 .08 2.37 4.21 4.21 0 0 0 4 2.88 4.07 4.07 0 0 0 1.38-.26s0 0 0 .08a4.21 4.21 0 0 0 4 2.88 4.07 4.07 0 0 0 1.38-.26s0 .05 0 .08a4.21 4.21 0 0 0 4 2.88 4.07 4.07 0 0 0 1.38-.26s0 0 0 .08a4.22 4.22 0 0 0 7.06 1.57 7.29 7.29 0 0 0 3.15.89 3.44 3.44 0 0 0 1.83-.49 3.38 3.38 0 0 0 1.47-2 4.22 4.22 0 0 0 5.3-2.68s0 0 0-.05a4.22 4.22 0 0 0 5.39-2.65 4.18 4.18 0 0 0 3.26-.21A4.23 4.23 0 0 0 59 44.71l6.3-6.31h5.51A1.2 1.2 0 0 0 72 37.2v-15a1.2 1.2 0 0 0-1.19-1.2ZM16.29 47.38a1.82 1.82 0 0 1-.82-2.38l1.24-2.41a1.82 1.82 0 0 1 2.44-.81A1.77 1.77 0 0 1 20 44l-1.29 2.6a1.82 1.82 0 0 1-2.42.78Zm5.4 2.7a1.81 1.81 0 0 1-.91-1 1.77 1.77 0 0 1 .1-1.39l1.22-2.38a3.65 3.65 0 0 0 .14-.35l1.17-2.35a1.78 1.78 0 0 1 1-.91 1.82 1.82 0 0 1 2.2 2.54l-2.54 5.1a1.82 1.82 0 0 1-2.38.74Zm5.4 2.7a1.81 1.81 0 0 1-.91-1.05 1.77 1.77 0 0 1 .1-1.39l1.46-2.92a1.78 1.78 0 0 1 1.05-.91A1.82 1.82 0 0 1 31 49.05L29.53 52a1.82 1.82 0 0 1-2.44.78Zm5.4 2.7a1.81 1.81 0 0 1-.91-1 1.77 1.77 0 0 1 .1-1.39l.41-.83a1.84 1.84 0 0 1 2.44-.81 1.82 1.82 0 0 1 .81 2.44l-.41.83a1.82 1.82 0 0 1-2.44.76Z"
  />
  <path fill="#fd0" d="M70.81 13.84a1.19 1.19 0 0 0-1.2 1.2v7.2a1.2 1.2 0 0 1 2.4 0V15a1.2 1.2 0 0 0-1.2-1.16ZM2.4 22.8a1.2 1.2 0 0 1-2.4 0V30a1.2 1.2 0 0 0 2.4 0v-7.2Z" />
</svg>
