<svg xmlns="http://www.w3.org/2000/svg" viewBox="0 0 67.21 60.02">
  <path d="M24 20.43v-1.5a5.69 5.69 0 0 0-11.37 0 1.5 1.5 0 0 1-1.5 1.5H8.29a.91.91 0 0 0-.29.1l-.12.09a1.15 1.15 0 0 0-.23.21l-.08.17a1.51 1.51 0 0 0-.13.29v.15a1.06 1.06 0 0 0 0 .19v.2A8.38 8.38 0 0 0 24 20.43Zm-8.38 6a5.93 5.93 0 0 1-5.46-3.59h1a3.91 3.91 0 0 0 3.9-3.9 3.29 3.29 0 0 1 6.57 0v1.49a6 6 0 0 1-5.97 5.99ZM48.81 7.24a6.51 6.51 0 0 0-6.47 6.64l.89 6.55a8.37 8.37 0 0 0 16.77.15l.92-6.85a6.49 6.49 0 0 0-6.48-6.48Zm8.78 13.17a6 6 0 0 1-12 0s0-.08 0-.12v-3.65a2.93 2.93 0 0 1 2.93-2.92h6.11a2.93 2.93 0 0 1 2.93 2.92Zm.83-7.53a5.31 5.31 0 0 0-3.76-1.56h-6.11a5.3 5.3 0 0 0-3.72 1.53 4.08 4.08 0 0 1 4-3.21h5.6a4.1 4.1 0 0 1 3.99 3.24Z" />
  <path d="M66 21.26a1.2 1.2 0 0 0-1.2 1.2 23.06 23.06 0 0 1-3 11A15.44 15.44 0 0 0 43.38 32v-.15a1.19 1.19 0 0 0 1-1.16v-2.34a8.34 8.34 0 0 0-11.75-7.64 1.18 1.18 0 0 0-.29.16 8.36 8.36 0 0 0-4.67 7.48v1.5a.87.87 0 0 0 .07.17 1.07 1.07 0 0 0 .15.22l.11.12a1.19 1.19 0 0 0 .23.16l.13.07a2.27 2.27 0 0 0 .25.06v1.62a7.32 7.32 0 0 0 13.88 3.29 1.18 1.18 0 0 0 .39-.23A13.07 13.07 0 0 1 51.67 32a12.85 12.85 0 0 1 8.92 3.53c-3.65 5.69-9.12 10.54-14.24 14.24a10.31 10.31 0 0 0-15.52-8A15.46 15.46 0 0 0 27 34.6v-16a11.38 11.38 0 1 0-22.75 0V36a.53.53 0 0 0 0 .12 1.13 1.13 0 0 0 0 .18 1.53 1.53 0 0 0 .11.27s0 0 0 .07c8.99 14.13 27.93 22.9 28.74 23.27a1.21 1.21 0 0 0 .49.11 1.1 1.1 0 0 0 .5-.11C35.45 59.3 67.2 44.5 67.2 22.46a1.2 1.2 0 0 0-1.2-1.2Zm-35.87 6.53a6 6 0 0 1 2.15-4 10.16 10.16 0 0 0 .72 1.77 7.86 7.86 0 0 1-2.87 2.23ZM41 32.27a4.95 4.95 0 1 1-9.89 0V30a10.29 10.29 0 0 0 3.24-2.3 11.43 11.43 0 0 0 6.65 4Zm1-2.86a9 9 0 0 1-7.52-6.8 5.77 5.77 0 0 1 1.52-.23 6 6 0 0 1 6 6ZM6.68 18.64a9 9 0 1 1 18 0V32.5a15.42 15.42 0 0 0-17.95 0ZM25.63 53C19.5 49.17 11.5 43.15 6.68 35.66a13 13 0 0 1 9-3.61 13.15 13.15 0 0 1 13 11.49 10.51 10.51 0 0 0-3 6.94ZM44 51.4a90.32 90.32 0 0 1-10.4 6.09c-.87-.42-2.9-1.45-5.57-3v-4a8 8 0 0 1 16-.05Z" />
  <path d="M14.31 3.55c6.29-2.46 13-.91 17.89 4.15l.54.55a1.07 1.07 0 0 0 .26.15 1 1 0 0 0 .19.12 1 1 0 0 0 .24.05.78.78 0 0 0 .21 0 .85.85 0 0 0 .22 0 1 1 0 0 0 .24-.05l.19-.12a1.07 1.07 0 0 0 .19-.13L35 7.7a16.46 16.46 0 0 1 13.09-5.25A17.54 17.54 0 0 1 61 9.85a1.21 1.21 0 0 0 1 .49 1.15 1.15 0 0 0 .7-.23 1.19 1.19 0 0 0 .27-1.67A19.93 19.93 0 0 0 48.26.06 18.77 18.77 0 0 0 33.6 5.73a18.47 18.47 0 0 0-20.17-4.42C5.53 4.39.26 12.34 0 21.54a1.21 1.21 0 0 0 1.17 1.24 1.2 1.2 0 0 0 1.2-1.17C2.64 13.24 7.2 6.32 14.31 3.55Z" />
  <path fill="#fd0" d="M67.2 21.8a24.91 24.91 0 0 0-1-6.74 1.2 1.2 0 1 0-2.3.7 22.46 22.46 0 0 1 .93 6.08v.62a1.2 1.2 0 0 1 2.4 0Zm-64.8.66v-.85a1.2 1.2 0 0 1-1.2 1.17A1.21 1.21 0 0 1 0 21.54v.92a23.62 23.62 0 0 0 1 6.76 1.2 1.2 0 0 0 1.15.86 1.33 1.33 0 0 0 .34 0 1.21 1.21 0 0 0 .81-1.5 20.93 20.93 0 0 1-.9-6.12Z" />
</svg>
