<svg xmlns="http://www.w3.org/2000/svg" viewBox="0 0 67.21 60.03">
  <path d="M32.41 39.17a1.2 1.2 0 1 0 2.4 0v-1a5.68 5.68 0 0 0 2.51-1A4.3 4.3 0 0 0 39 33.6c0-3.47-3-4.52-5.2-5.29s-3.18-1.23-3.18-2.4 1.52-1.93 3-1.93a4.17 4.17 0 0 1 3 1 1.2 1.2 0 1 0 1.61-1.78 6.31 6.31 0 0 0-3.42-1.56v-.8a1.2 1.2 0 0 0-2.4 0v.83c-2.2.39-4.19 1.83-4.19 4.21 0 3 2.65 3.93 4.79 4.67 2.5.87 3.59 1.42 3.59 3a1.93 1.93 0 0 1-.71 1.71c-1.35 1-4.42.61-6.15.11a1.18 1.18 0 0 0-1.49.81 1.2 1.2 0 0 0 .81 1.49 17.41 17.41 0 0 0 3.35.58Z" />
  <path d="M2.4 22.47v-.62c.15-8.44 4.69-15.44 11.83-18.27 6.32-2.5 13-1 18 4.12l.54.56a1.21 1.21 0 0 0 1.7 0 1.19 1.19 0 0 0 0-1.7L33.92 6C28.29.23 20.6-1.51 13.35 1.35 5.41 4.49.17 12.52 0 21.8v.67c0 13 11.15 23.5 20.51 30.05a1.17 1.17 0 0 0 .68.22 1.21 1.21 0 0 0 1-.52 1.19 1.19 0 0 0-.3-1.67C13 44.34 2.4 34.41 2.4 22.47Zm64.8-.67a22.71 22.71 0 0 0-6.89-16.32A19.61 19.61 0 0 0 46.25 0a1.19 1.19 0 0 0-1.15 1.27 1.19 1.19 0 0 0 1.24 1.16 17.19 17.19 0 0 1 12.32 4.79 20.35 20.35 0 0 1 6.14 14.63v.62c0 20.5-31.39 35.12-31.71 35.27A1.2 1.2 0 0 0 33.6 60a1.25 1.25 0 0 0 .5-.11c1.36-.62 33.11-15.41 33.11-37.45Z" />
  <path fill="#fd0" d="M45.1 1.27A1.19 1.19 0 0 1 46.25 0a18.15 18.15 0 0 0-7.47 2 1.2 1.2 0 0 0 .54 2.27 1.19 1.19 0 0 0 .54-.13 15.69 15.69 0 0 1 6.48-1.67 1.19 1.19 0 0 1-1.24-1.2ZM27.86 54.4a97.62 97.62 0 0 1-6-3.85 1.19 1.19 0 0 1 .3 1.67 1.21 1.21 0 0 1-1 .52 1.17 1.17 0 0 1-.68-.22 89.3 89.3 0 0 0 6.13 3.94 1.13 1.13 0 0 0 .61.17 1.2 1.2 0 0 0 .61-2.23Z" />
</svg>
