<svg xmlns="http://www.w3.org/2000/svg" viewBox="0 0 67.21 60.03">
  <path d="M33.6 38.43a1.2 1.2 0 0 1-1.2-1.2V22.82a1.2 1.2 0 1 1 2.4 0v14.41a1.2 1.2 0 0 1-1.2 1.2Z" />
  <path d="M40.8 31.22H26.4a1.2 1.2 0 1 1 0-2.4h14.4a1.2 1.2 0 1 1 0 2.4Z" />
  <path d="M21.19 52.74a1.17 1.17 0 0 1-.68-.22C11.15 46 0 35.45 0 22.47v-.67C.17 12.52 5.41 4.49 13.35 1.35 20.6-1.51 28.29.23 33.92 6l.54.55a1.2 1.2 0 0 1-1.72 1.68l-.54-.53c-4.93-5.07-11.65-6.62-18-4.11C7.09 6.41 2.55 13.41 2.41 21.85v.62C2.4 34.41 13 44.34 21.88 50.55a1.2 1.2 0 0 1 .3 1.68 1.22 1.22 0 0 1-.99.51ZM33.6 60a1.2 1.2 0 0 1-.5-2.29c.32-.15 31.71-14.77 31.71-35.27v-.62a20.35 20.35 0 0 0-6.15-14.6 17.2 17.2 0 0 0-12.32-4.79 1.19 1.19 0 0 1-1.24-1.15A1.2 1.2 0 0 1 46.25 0a19.56 19.56 0 0 1 14.06 5.48 22.72 22.72 0 0 1 6.89 16.33v.66c0 22-31.75 36.83-33.11 37.45a1.25 1.25 0 0 1-.49.08Z" />
  <path fill="#fd0" d="M45.1 1.28A1.2 1.2 0 0 1 46.25 0a18.15 18.15 0 0 0-7.47 2 1.2 1.2 0 0 0 .54 2.27 1.19 1.19 0 0 0 .54-.13 15.69 15.69 0 0 1 6.48-1.67 1.19 1.19 0 0 1-1.24-1.19ZM27.86 54.4a97.62 97.62 0 0 1-6-3.85 1.2 1.2 0 0 1 .3 1.68 1.22 1.22 0 0 1-1 .51 1.17 1.17 0 0 1-.68-.22 89.3 89.3 0 0 0 6.13 3.94 1.13 1.13 0 0 0 .61.17 1.2 1.2 0 0 0 .61-2.23Z" />
</svg>
