<svg xmlns="http://www.w3.org/2000/svg" viewBox="0 0 72.01 49.21">
  <path d="M66.94 15.6a1.2 1.2 0 0 0-1.2-1.2H29.32L19.46 4a1.2 1.2 0 1 0-1.74 1.65l9.88 10.43V44.4a1.2 1.2 0 0 0 2.4 0V16.8h35.74a1.19 1.19 0 0 0 1.2-1.2Z" />
  <path d="M42 22.8a1.2 1.2 0 0 0-1.2 1.2v15.6a1.2 1.2 0 0 0 1.2 1.2h15.61a1.2 1.2 0 0 0 1.2-1.2V24a1.2 1.2 0 0 0-1.2-1.2Zm14.41 7.8H51v-5.4h5.4Zm-7.8-5.4v5.4H43.2v-5.4ZM43.2 33h5.41v5.4H43.2Zm7.8 5.4V33h5.4v5.4Z" />
  <path d="M70.81 29.75a1.2 1.2 0 0 0-1.2 1.2v10.34c0 2.52-.42 5.51-2.41 5.51H22.8V24a1.2 1.2 0 0 0-1.2-1.2H8.4A1.2 1.2 0 0 0 7.2 24v22.8H4.81a2.41 2.41 0 0 1-2.41-2.41 1.2 1.2 0 0 0-2.4 0 4.82 4.82 0 0 0 4.81 4.82H67.2c2.19 0 4.81-1.38 4.81-7.92V31a1.2 1.2 0 0 0-1.2-1.25ZM9.6 46.8V25.2h10.8v21.6Z" />
  <path d="M1.2 31.2A1.2 1.2 0 0 0 2.4 30V17.05a2.42 2.42 0 0 1 .67-1.67L14.8 3.14a2.43 2.43 0 0 1 1.74-.74h38.92a2.45 2.45 0 0 1 1.75.74l11.73 12.24a2.42 2.42 0 0 1 .67 1.67 1.2 1.2 0 0 0 2.4 0 4.8 4.8 0 0 0-1.34-3.33L58.94 1.48A4.84 4.84 0 0 0 55.46 0H16.54a4.84 4.84 0 0 0-3.47 1.48L1.34 13.72A4.8 4.8 0 0 0 0 17.05V30a1.2 1.2 0 0 0 1.2 1.2Z" />
  <path fill="#fd0" d="M70.81 22.8a1.2 1.2 0 0 0-1.2 1.2v7A1.2 1.2 0 0 1 72 31v-7a1.2 1.2 0 0 0-1.19-1.2ZM1.2 31.2A1.2 1.2 0 0 1 0 30v7.2a1.2 1.2 0 0 0 2.4 0V30a1.2 1.2 0 0 1-1.2 1.2Z" />
</svg>
