<svg xmlns="http://www.w3.org/2000/svg" viewBox="0 0 64.82 69.59">
  <path d="M30 43v.87l-2.78.93A1.2 1.2 0 1 0 28 47l3.21-1 3.22 1a1.06 1.06 0 0 0 .38.07 1.2 1.2 0 0 0 .38-2.34l-2.78-.93V43l3.4-5.1a1.18 1.18 0 0 0 .06-1.23 1.2 1.2 0 0 0-1.06-.67h-7.2a1.2 1.2 0 0 0-1 1.86Zm2.56-4.56-1.36 2-1.36-2Zm5.85-4.24a1.3 1.3 0 0 0 .54-.13l2.4-1.2a1.2 1.2 0 0 0-1.07-2.15l-2.4 1.2a1.2 1.2 0 0 0 .53 2.28Zm-17.34-1.33 2.4 1.2a1.34 1.34 0 0 0 .54.13 1.21 1.21 0 0 0 .54-2.28l-2.4-1.2a1.2 1.2 0 0 0-1.08 2.15Z" />
  <path d="M31.21 52.8a12 12 0 0 0 12-12v-2.49a8.4 8.4 0 0 0 7.2-8.31v-3.31a12.31 12.31 0 0 0-12.29-12.3H24.3A12.31 12.31 0 0 0 12 26.69V30a8.4 8.4 0 0 0 7.2 8.31v2.49a12 12 0 0 0 12.01 12ZM14.41 30v-3.31a9.91 9.91 0 0 1 9.89-9.9h13.82a9.91 9.91 0 0 1 9.88 9.9V30a6 6 0 0 1-6 6 1.2 1.2 0 0 0-1.2 1.2v3.6a9.6 9.6 0 0 1-19.2 0v-3.6a1.2 1.2 0 0 0-1.2-1.2 6 6 0 0 1-5.99-6Z" />
  <path d="M58.67 44.79 62 41.67a1.2 1.2 0 0 0 .39-.88V30A1.2 1.2 0 0 0 60 30v10.26l-3.79 3.5a11.79 11.79 0 0 0-3.43-.56 12 12 0 0 0-11.7 14.49l-9.88 9.07-28.8-26.5v-.67a1.2 1.2 0 0 0-2.4 0v1.2a1.2 1.2 0 0 0 .39.88l30 27.6a1.16 1.16 0 0 0 .81.32 1.18 1.18 0 0 0 .82-.32l9.9-9.1a12 12 0 1 0 16.75-15.38Zm-5.86 20a9.6 9.6 0 1 1 9.6-9.6 9.62 9.62 0 0 1-9.6 9.61Z" />
  <circle cx="56.41" cy="58.8" r="1.8" />
  <circle cx="49.21" cy="51.6" r="1.8" />
  <path d="M57.26 50.75a1.19 1.19 0 0 0-1.69 0L48.36 58a1.22 1.22 0 0 0 0 1.7 1.24 1.24 0 0 0 .85.35 1.2 1.2 0 0 0 .85-.35l7.2-7.2a1.2 1.2 0 0 0 0-1.75ZM1.2 28a1.2 1.2 0 0 0 1.2-1.2V16l8.73-11.34a90.46 90.46 0 0 1 40.17 0L60 16v.8a1.2 1.2 0 0 0 2.4 0v-1.2a1.22 1.22 0 0 0-.25-.74l-9.24-12a1.19 1.19 0 0 0-.69-.44 92.84 92.84 0 0 0-42.08 0 1.18 1.18 0 0 0-.68.43l-9.24 12a1.22 1.22 0 0 0-.25.74v11.2A1.2 1.2 0 0 0 1.2 28Z" />
  <path fill="#fd0" d="M61.23 21.59a1.2 1.2 0 0 0-1.2 1.2V30a1.2 1.2 0 0 1 2.4 0v-7.2a1.2 1.2 0 0 0-1.2-1.21ZM1.2 28A1.2 1.2 0 0 1 0 26.79v6.8a1.2 1.2 0 0 0 2.4 0v-6.8A1.2 1.2 0 0 1 1.2 28Z" />
</svg>
