<svg xmlns="http://www.w3.org/2000/svg" viewBox="0 0 72.01 51.72">
  <path d="M31.12 9.69a1.2 1.2 0 1 0-.53 2.31s.34.07.79.13a1.15 1.15 0 0 0 1.15 1 1.24 1.24 0 0 0 .86-.35l.52-.53a6.84 6.84 0 0 0 4.48-1.75 2 2 0 0 0 .72-2c-.26-1-1.29-1.37-2.2-1.63a6.73 6.73 0 0 1 2.31-.44 5.61 5.61 0 0 1 1 .1A1.2 1.2 0 0 0 42.1 5a2.24 2.24 0 0 0-.92-.67 1.16 1.16 0 0 0-.34-.77 1.2 1.2 0 0 0-1.7 0l-.46.47a7.16 7.16 0 0 0-4.33 1.59 1.86 1.86 0 0 0-.63 1.84c.27 1 1.36 1.34 2.32 1.61l.2.06c-1.55 1.06-4.16.78-5.12.56Zm30.09 31.69A1.83 1.83 0 1 0 63 43.21a1.81 1.81 0 0 0-1.79-1.83Z" />
  <ellipse cx="54.01" cy="35.9" rx="1.8" ry="1.83" />
  <path d="M62.05 35a1.21 1.21 0 0 0-1.7 0l-7.2 7.32a1.2 1.2 0 0 0 0 1.69 1.22 1.22 0 0 0 .85.35 1.17 1.17 0 0 0 .85-.36l7.2-7.31a1.2 1.2 0 0 0 0-1.69Z" />
  <path d="M70.81 17.06a1.2 1.2 0 0 0-1.2 1.2v10.66a2.51 2.51 0 0 1-.73 1.76l-1.66 1.66a12.28 12.28 0 0 0-1.87-2l2.71-2.74a1.2 1.2 0 0 0-1.7-1.69l-3 3a12.1 12.1 0 0 0-2.78-1.13l7.49-7.52a1.2 1.2 0 1 0-1.7-1.69l-8.77 8.81a11.76 11.76 0 0 0-5.12 1.21H4.8a1.2 1.2 0 0 0 0 2.4h44.29a12.12 12.12 0 0 0-2.87 4.92H4.8a1.2 1.2 0 1 0 0 2.4h40.93c0 .41-.13.82-.13 1.24a12.33 12.33 0 0 0 .62 3.67H4.8a2.43 2.43 0 0 1-2.4-2.46 1.2 1.2 0 0 0-2.4 0 4.83 4.83 0 0 0 4.8 4.86h42.47a11.92 11.92 0 0 0 10.34 6.1 12.13 12.13 0 0 0 10.87-17.24l2.09-2.1A4.9 4.9 0 0 0 72 28.92V18.26a1.2 1.2 0 0 0-1.19-1.2Zm-13.2 32.26a9.77 9.77 0 1 1 9.6-9.77 9.69 9.69 0 0 1-9.6 9.77Z" />
  <path d="m66.36 11.27-9.27 9.32a2.33 2.33 0 0 1-1.69.69H4.8a1.2 1.2 0 0 0 0 2.4h50.6a4.72 4.72 0 0 0 3.39-1.4L68.06 13a1.2 1.2 0 0 0-1.7-1.7Z" />
  <path d="M68.05 4a1.19 1.19 0 0 0-1.69 0l-9.27 9.32a2.37 2.37 0 0 1-1.69.68H6.56a1.2 1.2 0 1 0 0 2.4H55.4a4.72 4.72 0 0 0 3.39-1.4l9.27-9.32A1.19 1.19 0 0 0 68.05 4Z" />
  <path d="M1.2 28.56a1.2 1.2 0 0 0 1.2-1.2V16.7a2.47 2.47 0 0 1 .73-1.76L14.91 3.11a2.43 2.43 0 0 1 1.7-.71h50.6a2.43 2.43 0 0 1 2.4 2.46 1.2 1.2 0 0 0 2.4 0A4.84 4.84 0 0 0 67.21 0h-50.6a4.93 4.93 0 0 0-3.4 1.4L1.44 13.24A4.88 4.88 0 0 0 0 16.7v10.66a1.2 1.2 0 0 0 1.2 1.2Z" />
  <path fill="#fd0" d="M70.81 9.75a1.2 1.2 0 0 0-1.2 1.2v7.31a1.2 1.2 0 1 1 2.4 0V11a1.2 1.2 0 0 0-1.2-1.25ZM1.2 28.56a1.2 1.2 0 0 1-1.2-1.2v7.31a1.2 1.2 0 0 0 2.4 0v-7.31a1.2 1.2 0 0 1-1.2 1.2Z" />
</svg>
