<svg xmlns="http://www.w3.org/2000/svg" viewBox="0 0 72.01 45.62">
  <path d="M31.12 9.69a1.2 1.2 0 1 0-.53 2.31c.05 0 .34.07.79.13a1.15 1.15 0 0 0 .31.61 1.2 1.2 0 0 0 1.69 0l.53-.53a6.84 6.84 0 0 0 4.48-1.75 2 2 0 0 0 .72-2c-.26-1-1.29-1.37-2.2-1.63a6.73 6.73 0 0 1 2.31-.44 3.61 3.61 0 0 1 1 .1A1.2 1.2 0 0 0 42.1 5a2.38 2.38 0 0 0-.92-.66 1.19 1.19 0 0 0-2-.77l-.47.47a7.15 7.15 0 0 0-4.32 1.59 1.86 1.86 0 0 0-.63 1.84c.27 1 1.36 1.34 2.32 1.61l.2.06c-1.59 1.04-4.2.77-5.16.55Zm36.93 1.91a1.2 1.2 0 0 0-1.69 0l-9.27 9.32a2.37 2.37 0 0 1-1.69.69H4.8a1.2 1.2 0 0 0 0 2.4h50.6a4.72 4.72 0 0 0 3.39-1.4l9.27-9.31a1.2 1.2 0 0 0-.01-1.7Z" />
  <path d="M68.05 18.8a1.19 1.19 0 0 0-1.69 0l-9.27 9.32a2.33 2.33 0 0 1-1.69.69H4.8a1.2 1.2 0 0 0 0 2.4h50.6a4.72 4.72 0 0 0 3.39-1.4l9.27-9.31a1.2 1.2 0 0 0-.01-1.7Z" />
  <path d="m66.36 26-9.27 9.32a2.33 2.33 0 0 1-1.69.68H4.8a1.2 1.2 0 0 0 0 2.4h50.6a4.72 4.72 0 0 0 3.39-1.4l9.27-9.31a1.2 1.2 0 0 0-1.7-1.7Z" />
  <path d="M70.81 17.06a1.2 1.2 0 0 0-1.2 1.2v10.66a2.51 2.51 0 0 1-.73 1.76L57.09 42.53a2.37 2.37 0 0 1-1.69.69H4.8a2.43 2.43 0 0 1-2.4-2.46 1.2 1.2 0 0 0-2.4 0 4.83 4.83 0 0 0 4.8 4.86h50.6a4.72 4.72 0 0 0 3.39-1.4l11.78-11.84A4.9 4.9 0 0 0 72 28.92V18.26a1.2 1.2 0 0 0-1.19-1.2ZM68.05 4.37a1.2 1.2 0 0 0-1.69 0l-9.27 9.31a2.33 2.33 0 0 1-1.69.69H6.56a1.2 1.2 0 1 0 0 2.4H55.4a4.72 4.72 0 0 0 3.39-1.4l9.27-9.31a1.2 1.2 0 0 0-.01-1.69Z" />
  <path d="M1.2 28.56a1.2 1.2 0 0 0 1.2-1.2V16.7a2.47 2.47 0 0 1 .73-1.76L14.9 3.11a2.47 2.47 0 0 1 1.71-.71h50.6a2.43 2.43 0 0 1 2.4 2.46 1.2 1.2 0 0 0 2.4 0A4.84 4.84 0 0 0 67.21 0h-50.6a4.93 4.93 0 0 0-3.4 1.4L1.44 13.24A4.86 4.86 0 0 0 0 16.7v10.66a1.2 1.2 0 0 0 1.2 1.2Z" />
  <path fill="#fd0" d="M70.81 9.75a1.2 1.2 0 0 0-1.2 1.2v7.31a1.2 1.2 0 1 1 2.4 0V11a1.2 1.2 0 0 0-1.2-1.25ZM1.2 28.56a1.2 1.2 0 0 1-1.2-1.2v7.31a1.2 1.2 0 0 0 2.4 0v-7.31a1.2 1.2 0 0 1-1.2 1.2Z" />
</svg>
