<svg xmlns="http://www.w3.org/2000/svg" viewBox="0 0 45.51 65.43">
  <path d="M30 50.61H15.55a1.2 1.2 0 0 0 0 2.4H30a1.2 1.2 0 0 0 0-2.4Zm0 6.21H15.55a1.2 1.2 0 0 0 0 2.4H30a1.2 1.2 0 0 0 0-2.4Zm-1.84-30.1a3 3 0 1 0-3-3v.6h-4.8v-.6a3 3 0 1 0-3 3H18v17.63h-2.45a1.2 1.2 0 1 0 0 2.4H30a1.2 1.2 0 1 0 0-2.4h-2.4V26.72Zm-.6-3c0-.67 1.2-.67 1.2 0a.6.6 0 0 1-.6.6h-.6Zm-9.6.6h-.61a.6.6 0 1 1 .61-.6Zm7.2 20h-4.8v-17.6h4.8Z" />
  <path d="M18.65 2.8a20.49 20.49 0 0 1 12.91 1.6 1.2 1.2 0 1 0 1-2.17A22.92 22.92 0 0 0 18.19.45 22.6 22.6 0 0 0 .32 18.86a22.85 22.85 0 0 0 3.43 16.4 1.19 1.19 0 0 0 1 .54 1.22 1.22 0 0 0 .66-.2 1.2 1.2 0 0 0 .34-1.66 20.43 20.43 0 0 1-3.06-14.68A20.19 20.19 0 0 1 18.65 2.8ZM42.8 12a1.2 1.2 0 0 0-1.63-.49 1.21 1.21 0 0 0-.49 1.63 20.34 20.34 0 0 1-4.74 25.14 9.1 9.1 0 0 0-3.33 6.89v.41a1.1 1.1 0 0 0 0 .16 1 1 0 0 0 0 .24.84.84 0 0 0 .11.21.71.71 0 0 0 .12.18 1.06 1.06 0 0 0 .2.17 1.27 1.27 0 0 0 .12.1 2.36 2.36 0 0 1 .18 4 1 1 0 0 0-.23.11 1.23 1.23 0 0 0-.58 1.05 1.21 1.21 0 0 0 .58 1 1 1 0 0 0 .29.12 2.34 2.34 0 0 1 1 1.93 2.31 2.31 0 0 1-1 2 1 1 0 0 0-.23.11 1.23 1.23 0 0 0-.56 1.04 1.21 1.21 0 0 0 .58 1 1.08 1.08 0 0 0 .29.13 2.34 2.34 0 0 1 0 3.85H12.07a2.28 2.28 0 0 1-1-1.93 2.32 2.32 0 0 1 1.05-2 .94.94 0 0 0 .23-.1 1.26 1.26 0 0 0 .55-.95 1.21 1.21 0 0 0-.58-1 1.48 1.48 0 0 0-.29-.12 2.34 2.34 0 0 1-1-1.93 2.31 2.31 0 0 1 1.05-2 .7.7 0 0 0 .23-.11 1.23 1.23 0 0 0 .58-1.05 1.21 1.21 0 0 0-.58-1 1 1 0 0 0-.29-.12 2.34 2.34 0 0 1-1-1.93 2.3 2.3 0 0 1 1.23-2.07 1.2 1.2 0 0 0-1.13-2.12 4.77 4.77 0 0 0-1.35 7.3 4.77 4.77 0 0 0 0 6.21 4.76 4.76 0 0 0 1.35 7.29 1.14 1.14 0 0 0 .52.13h22.17a1.14 1.14 0 0 0 .52-.13A4.76 4.76 0 0 0 35.72 58a4.77 4.77 0 0 0 0-6.21A4.72 4.72 0 0 0 35 45a6.7 6.7 0 0 1 2.46-4.88A22.76 22.76 0 0 0 42.8 12Z" />
  <path fill="#fd0" d="M38.12 6a1.2 1.2 0 1 0-1.62 1.74 20.34 20.34 0 0 1 4.5 6.12c-.12-.25-.21-.51-.35-.75a1.21 1.21 0 0 1 .49-1.63 1.19 1.19 0 0 1 1.54.38A22.68 22.68 0 0 0 38.12 6ZM5.7 33.86Zm3.87 4.38a20.56 20.56 0 0 1-3.87-4.38.56.56 0 0 1 0 .08 1.2 1.2 0 0 1-.34 1.66 1.17 1.17 0 0 1-1.61-.29A23.39 23.39 0 0 0 8 40.07a7.39 7.39 0 0 1 .7.67 1.21 1.21 0 0 0 1.7.08 1.21 1.21 0 0 0 .07-1.7 12.6 12.6 0 0 0-.9-.88Z" />
</svg>
