<svg xmlns="http://www.w3.org/2000/svg" viewBox="0 0 35.87 71.71">
  <path d="M35.38 27.1a2.63 2.63 0 0 0-2.14-1.1H19.37a.23.23 0 0 1-.23-.24V2.64A2.64 2.64 0 0 0 14 1.78L4.93 28.26A1.2 1.2 0 1 0 7.2 29l9.08-26.44a.21.21 0 0 1 .26-.15.2.2 0 0 1 .2.23v23.12a2.64 2.64 0 0 0 2.63 2.64l14.06.1a.23.23 0 0 1 0 .21 1.21 1.21 0 0 0 .74 1.53 1.44 1.44 0 0 0 .4.06 1.2 1.2 0 0 0 1.13-.81 2.62 2.62 0 0 0-.32-2.39ZM30.3 41.6a1.2 1.2 0 0 0-1.52.75l-9.18 26.8a.21.21 0 0 1-.27.15.2.2 0 0 1-.19-.23V46a2.64 2.64 0 0 0-2.64-2.64l-14.06-.1a.23.23 0 0 1 0-.21 1.21 1.21 0 0 0-.74-1.53 1.21 1.21 0 0 0-1.53.75 2.68 2.68 0 0 0 .35 2.39 2.64 2.64 0 0 0 2.15 1.1H16.5a.24.24 0 0 1 .24.24v23.07a2.59 2.59 0 0 0 2.2 2.6 2.38 2.38 0 0 0 .46 0 2.6 2.6 0 0 0 2.47-1.78l9.18-26.8a1.2 1.2 0 0 0-.75-1.49Z" />
  <path fill="#fd0" d="M32.65 34.79a1.21 1.21 0 0 0-1.53.75l-2.34 6.8a1.2 1.2 0 0 1 2.27.78l2.34-6.8a1.21 1.21 0 0 0-.74-1.53Zm-26.98-5a1.19 1.19 0 0 1-.77-1.35 1.29 1.29 0 0 0-.09.16l-2.33 6.81a1.19 1.19 0 0 0 .74 1.52 1.34 1.34 0 0 0 .39.07 1.21 1.21 0 0 0 1.14-.82l2.33-6.81a.86.86 0 0 0 0-.17 1.2 1.2 0 0 1-1.41.59Z" />
</svg>
