<svg xmlns="http://www.w3.org/2000/svg" viewBox="0 0 60.61 60.61">
  <path d="M37.2 6a17.4 17.4 0 1 0 17.41 17.4A17.43 17.43 0 0 0 37.2 6Zm0 32.4a15 15 0 1 1 15-15 15 15 0 0 1-15 15Z" />
  <path d="M60.4 20.28a1.2 1.2 0 0 0-2.4.32 21 21 0 0 1-35.65 17.65 1.19 1.19 0 0 0-1.69 0L.35 58.56a1.19 1.19 0 0 0 0 1.69 1.18 1.18 0 0 0 1.7 0l19.5-19.49A23.39 23.39 0 0 0 60.4 20.28Zm-45.2 7.28h.16a1.19 1.19 0 0 0 1-1.35 21 21 0 0 1 35.7-17.66 1.2 1.2 0 0 0 1.69-1.69A23.4 23.4 0 0 0 14 26.52a1.2 1.2 0 0 0 1.2 1.04Z" />
  <path d="M46.15 23.4a9 9 0 0 1-8.95 8.94 1.2 1.2 0 0 0 0 2.4A11.35 11.35 0 0 0 48.55 23.4a1.2 1.2 0 1 0-2.4 0Z" />
  <path fill="#fd0" d="M58.18 13A1.2 1.2 0 1 0 56 14.08a20.64 20.64 0 0 1 2 6.52 1.2 1.2 0 0 1 2.38-.32 23.48 23.48 0 0 0-2.2-7.28ZM16.39 26.2a1.19 1.19 0 0 1-1 1.35h-.19a1.2 1.2 0 0 1-1.19-1 23.32 23.32 0 0 0 2.22 7.27 1.2 1.2 0 0 0 1.07.67 1.16 1.16 0 0 0 .54-.13 1.2 1.2 0 0 0 .54-1.6 20.69 20.69 0 0 1-1.99-6.56Z" />
</svg>
