<svg xmlns="http://www.w3.org/2000/svg" viewBox="0 0 60.01 72.01">
  <path d="M54 27.6h-4.8a1.2 1.2 0 0 0 0 2.4H54a1.2 1.2 0 1 0 0-2.4Zm-43.2 0H6A1.2 1.2 0 0 0 6 30h4.8a1.2 1.2 0 0 0 0-2.4Zm48.01 3.03a1.2 1.2 0 0 0-1.2 1.2V42A27.61 27.61 0 0 1 3.2 48.62a1.2 1.2 0 1 0-2.33.58A30 30 0 0 0 60 42V31.83a1.2 1.2 0 0 0-1.19-1.2ZM30 8.83a1.2 1.2 0 0 0 1.2-1.2V1.2a1.2 1.2 0 0 0-2.4 0v6.43a1.2 1.2 0 0 0 1.2 1.2Zm12.61.77a1.19 1.19 0 0 0 .91-.42l4.8-5.56a1.2 1.2 0 0 0-1.82-1.57l-4.8 5.57a1.2 1.2 0 0 0 .91 2ZM16.4 9.18a1.17 1.17 0 0 0 .9.42 1.24 1.24 0 0 0 .79-.29 1.19 1.19 0 0 0 .12-1.69l-4.8-5.57a1.2 1.2 0 0 0-1.82 1.57Z" />
  <path d="M2.4 34.55V18a2.41 2.41 0 0 1 2.41-2.4H12a2.41 2.41 0 0 1 2.4 2.4v24a15.6 15.6 0 1 0 31.2 0V18a2.42 2.42 0 0 1 2.4-2.4h7.2a2.41 2.41 0 0 1 2.41 2.4A1.2 1.2 0 1 0 60 18a4.82 4.82 0 0 0-4.8-4.8H48a4.82 4.82 0 0 0-4.8 4.8v24a13.2 13.2 0 1 1-26.4 0V18a4.82 4.82 0 0 0-4.8-4.8H4.81A4.82 4.82 0 0 0 0 18v16.55a1.2 1.2 0 0 0 2.4 0Z" />
  <path fill="#fd0" d="M58.81 24a1.2 1.2 0 0 0-1.2 1.2v6.62a1.2 1.2 0 1 1 2.4 0v-6.61a1.2 1.2 0 0 0-1.2-1.21ZM1.2 35.75a1.2 1.2 0 0 1-1.2-1.2v7.2a1.2 1.2 0 0 0 2.4 0v-7.2a1.2 1.2 0 0 1-1.2 1.2Z" />
</svg>
