<svg xmlns="http://www.w3.org/2000/svg" viewBox="0 0 43.01 72.01">
  <path d="M30.9 54.42a1.73 1.73 0 0 0-1.39-1.17l-3.57-.52-1.59-3.23a1.79 1.79 0 0 0-3.09 0l-1.6 3.23-3.57.52a1.72 1.72 0 0 0-.95 2.94l2.58 2.52-.61 3.55A1.72 1.72 0 0 0 17.8 64a1.71 1.71 0 0 0 1.81.13l3.19-1.73 3.2 1.68a1.76 1.76 0 0 0 1.81-.08 1.73 1.73 0 0 0 .68-1.69l-.61-3.55 2.59-2.52a1.71 1.71 0 0 0 .43-1.82ZM26 57.24a1.7 1.7 0 0 0-.49 1.52l.43 2.55-2.28-1.2a1.76 1.76 0 0 0-.81-.2 1.61 1.61 0 0 0-.8.2l-2.29 1.2.44-2.55a1.73 1.73 0 0 0-.5-1.52l-1.9-1.81 2.56-.37a1.73 1.73 0 0 0 1.3-.94l1.14-2.32 1.2 2.32a1.7 1.7 0 0 0 1.29.94l2.56.37Z" />
  <path d="M40.33 15.07a1.22 1.22 0 0 0-.69-1.56 1.2 1.2 0 0 0-1.55.69L30 35.08l-2.34-6L38.32 1.64a1.2 1.2 0 1 0-2.23-.87l-9.71 24.94-2.29-5.91 7-18.16a1.2 1.2 0 1 0-2.21-.87L22.8 16.48 16.72.77a1.2 1.2 0 1 0-2.24.87l7.2 18.6 6.57 17H23.7L9.52.77a1.2 1.2 0 1 0-2.24.87l13.85 35.57h-4.71L2.32.77a1.2 1.2 0 1 0-2.24.87l14.32 37v4.65a15.61 15.61 0 0 0-7.2 13.12 1.2 1.2 0 0 0 2.4 0A13.19 13.19 0 0 1 16 45.09a1.16 1.16 0 0 0 .24-.14 13.1 13.1 0 0 1 13 0 1.16 1.16 0 0 0 .24.14 13.19 13.19 0 0 1-6.68 24.52 13 13 0 0 1-6-1.46 1.2 1.2 0 1 0-1.1 2.13 15.59 15.59 0 0 0 15.54-27v-4.65ZM22.8 40.81a15.59 15.59 0 0 0-6 1.2v-2.4h12V42a15.56 15.56 0 0 0-6-1.19Z" />
  <path fill="#fd0" d="M42.24 6.8a1.2 1.2 0 0 0-1.55.68l-2.6 6.72a1.2 1.2 0 0 1 1.55-.69 1.22 1.22 0 0 1 .69 1.56l2.59-6.72a1.19 1.19 0 0 0-.68-1.55ZM9.6 56.41a1.2 1.2 0 0 1-2.4 0 15.51 15.51 0 0 0 2.63 8.66 1.2 1.2 0 0 0 1.66.33 1.19 1.19 0 0 0 .33-1.66 13.16 13.16 0 0 1-2.22-7.33Z" />
</svg>
