<svg xmlns="http://www.w3.org/2000/svg" viewBox="0 0 61.14 63.48">
  <path d="M13.37 24.34a1.2 1.2 0 0 0-.9 1.44l3.68 16a1.21 1.21 0 0 0 1.17.93 1.24 1.24 0 0 0 .27 0 1.2 1.2 0 0 0 .9-1.44l-3.69-16a1.18 1.18 0 0 0-1.43-.93Z" />
  <path d="M58.61 36.11a17.56 17.56 0 0 0-5.5-23.82 1.19 1.19 0 0 0-2.2.93 82.59 82.59 0 0 1 3.42 11.35C57.18 36.9 56.48 45 56.06 47.82c-14.86-3-24.09-4.17-37.88-3.5H18L11 46a4.65 4.65 0 0 1-5.58-3.5 1.2 1.2 0 0 0-2.34.5A7.08 7.08 0 0 0 10 48.48c.2 0 .4 0 .6-.07l7.33 14.41a1.21 1.21 0 0 0 1.07.66h.27l7-1.62a1.15 1.15 0 0 0 .81-.66 1.21 1.21 0 0 0 0-1.05l-6.92-13.51c12.89-.48 22 .81 36.63 3.77a1.06 1.06 0 0 0 .24 0h.21a.65.65 0 0 0 .19 0 1.4 1.4 0 0 0 .17-.09.81.81 0 0 0 .18-.1 1.42 1.42 0 0 0 .12-.22 2 2 0 0 0 .14-.16.71.71 0 0 0 .08-.18 1.42 1.42 0 0 0 .08-.18v-.05c.12-.43 1.12-5.05.41-13.32Zm-39 24.79L13 48l4.6-1.1 6.6 12.94Zm38.74-37.25a15.12 15.12 0 0 1-.28 7.82 90.4 90.4 0 0 0-3.45-14.81 15.14 15.14 0 0 1 3.73 6.99Zm-55.24 2.7A4.61 4.61 0 0 1 6 24.28l7-1.61h.2C26.23 17 34.06 11.8 46.7 2.16A1.2 1.2 0 1 0 45.24.25C32.8 9.74 25.08 14.91 12.33 20.36l-6.86 1.58A7.06 7.06 0 0 0 .18 30.4a1.21 1.21 0 0 0 1.17.93 1.24 1.24 0 0 0 .27 0 1.2 1.2 0 0 0 .9-1.44 4.61 4.61 0 0 1 .59-3.54Z" />
  <path fill="#fd0" d="M49.92 5.23a1.2 1.2 0 1 0-2.12 1.14 59.36 59.36 0 0 1 3.15 7 .56.56 0 0 0 0-.12 1.2 1.2 0 0 1 2.22-.89 61.6 61.6 0 0 0-3.25-7.13ZM2.52 29.86a1.2 1.2 0 0 1-.9 1.44 1.24 1.24 0 0 1-.27 0 1.21 1.21 0 0 1-1.17-.9v-.35a1 1 0 0 0 0 .17l1.72 7.46a1.21 1.21 0 0 0 1.1.93 1.24 1.24 0 0 0 .27 0 1.2 1.2 0 0 0 .9-1.44Z" />
</svg>
