<svg xmlns="http://www.w3.org/2000/svg" viewBox="0 0 59.93 61.12">
  <path d="M8.32 22.71a1.2 1.2 0 0 0 0 2.4h43.21a1.2 1.2 0 0 0 0-2.4Z" />
  <path d="M1.2 39.52a1.2 1.2 0 0 0 1.2-1.2V24.76a2.47 2.47 0 0 1 .25-1.07l5.76-11.64a2.4 2.4 0 0 1 2.15-1.34h8.36v.33a10.72 10.72 0 0 0 1 4.47h-1.8a1.2 1.2 0 0 0 0 2.4h23.61a1.2 1.2 0 1 0 0-2.4H40A10.91 10.91 0 0 0 41 11v-.33h8.3A2.39 2.39 0 0 1 51.45 12l5.83 11.65a2.48 2.48 0 0 1 .25 1.08 1.2 1.2 0 0 0 2.4 0 4.69 4.69 0 0 0-.51-2.15L53.6 11a4.79 4.79 0 0 0-4.3-2.66h-8.72a11 11 0 0 0-21.31 0h-8.71A4.76 4.76 0 0 0 6.26 11L.5 22.63a4.73 4.73 0 0 0-.5 2.13v13.56a1.2 1.2 0 0 0 1.2 1.2ZM29.93 2.4a8.66 8.66 0 0 1 8.64 8.6 8.54 8.54 0 0 1-1.27 4.47h-4.64a3 3 0 0 0 1-2.34c0-2.41-2.06-3.13-3.43-3.61s-1.57-.63-1.57-1 .69-.67 1.3-.67a2 2 0 0 1 1.47.5A1.2 1.2 0 0 0 33 6.63a4.15 4.15 0 0 0-1.88-1v-.04a1.2 1.2 0 0 0-2.4 0v.1a3.09 3.09 0 0 0-2.5 2.9c0 2.13 1.92 2.8 3.18 3.24 1.5.52 1.82.76 1.82 1.34s-.16.57-.23.63c-.57.42-2.09.32-3.23 0a1.18 1.18 0 0 0-1.49.81 1.19 1.19 0 0 0 .09.91h-3.8A8.54 8.54 0 0 1 21.29 11a8.65 8.65 0 0 1 8.64-8.6Zm28.8 34.72a1.2 1.2 0 0 0-1.2 1.2v18a2.41 2.41 0 0 1-2.4 2.41H4.8a2.41 2.41 0 0 1-2.4-2.41v-3.6a1.2 1.2 0 0 0-2.4 0v3.59a4.82 4.82 0 0 0 4.8 4.81h50.33a4.82 4.82 0 0 0 4.8-4.81v-18a1.2 1.2 0 0 0-1.2-1.19Z" />
  <path fill="#fd0" d="M58.73 30.64a1.2 1.2 0 0 0-1.2 1.2v6.48a1.2 1.2 0 1 1 2.4 0v-6.48a1.2 1.2 0 0 0-1.2-1.2ZM1.2 39.52a1.2 1.2 0 0 1-1.2-1.2v7.55a1.2 1.2 0 1 0 2.4 0v-7.55a1.2 1.2 0 0 1-1.2 1.2Z" />
</svg>
