<svg xmlns="http://www.w3.org/2000/svg" viewBox="0 0 72.01 38.36">
  <path d="M12 3.6a1.2 1.2 0 0 0-1.2 1.2 6 6 0 0 1-6 6 1.2 1.2 0 0 0 0 2.4 8.39 8.39 0 0 0 8.38-8.4A1.2 1.2 0 0 0 12 3.6Zm55.21 7.18a6 6 0 0 1-6-6 1.2 1.2 0 1 0-2.4 0 8.39 8.39 0 0 0 8.38 8.38 1.2 1.2 0 1 0 0-2.4ZM4.8 25.18a1.2 1.2 0 0 0 0 2.4 6 6 0 0 1 6 6 1.2 1.2 0 0 0 2.4 0 8.39 8.39 0 0 0-8.4-8.4Zm62.41 0a8.39 8.39 0 0 0-8.38 8.38 1.2 1.2 0 1 0 2.4 0 6 6 0 0 1 6-6 1.2 1.2 0 1 0 0-2.4Z" />
  <path d="M70.81 18a1.2 1.2 0 0 0-1.2 1.21v14.36a2.4 2.4 0 0 1-2.4 2.43H4.79a2.39 2.39 0 0 1-2.39-2.43 1.2 1.2 0 1 0-2.4 0 4.8 4.8 0 0 0 4.79 4.79h62.42A4.8 4.8 0 0 0 72 33.57V19.2a1.21 1.21 0 0 0-1.19-1.2ZM1.2 20.37a1.2 1.2 0 0 0 1.2-1.2V4.79A2.39 2.39 0 0 1 4.79 2.4h62.42a2.4 2.4 0 0 1 2.4 2.39 1.2 1.2 0 1 0 2.4 0A4.8 4.8 0 0 0 67.21 0H4.79A4.8 4.8 0 0 0 0 4.79v14.38a1.2 1.2 0 0 0 1.2 1.2Z" />
  <path d="M32.17 26.08a1.21 1.21 0 0 0 1.21-1.2v-11.4a1.21 1.21 0 0 0-.75-1.11 1.19 1.19 0 0 0-1.3.26l-3.44 3.44a1.2 1.2 0 0 0 0 1.7 1.19 1.19 0 0 0 1.69 0L31 16.38v8.5a1.2 1.2 0 0 0 1.17 1.2Zm11.95-9.25a1.2 1.2 0 0 0-1.7 0l-2.75 2.75-2.75-2.75a1.2 1.2 0 0 0-1.7 1.7L38 21.28 35.22 24a1.2 1.2 0 0 0 0 1.7 1.21 1.21 0 0 0 1.7 0l2.75-2.7 2.75 2.75a1.22 1.22 0 0 0 .85.35 1.2 1.2 0 0 0 .85-2l-2.75-2.75 2.75-2.75a1.2 1.2 0 0 0 0-1.77Z" />
  <path fill="#fd0" d="M70.81 10.79a1.2 1.2 0 0 0-1.2 1.2v7.21a1.2 1.2 0 1 1 2.4 0V12a1.2 1.2 0 0 0-1.2-1.21ZM1.2 20.37a1.2 1.2 0 0 1-1.2-1.2v7.2a1.2 1.2 0 0 0 2.4 0v-7.2a1.2 1.2 0 0 1-1.2 1.2Z" />
</svg>
