<svg xmlns="http://www.w3.org/2000/svg" viewBox="0 0 72.03 49.33">
  <path d="M36 27.58a1.2 1.2 0 0 0 1.2-1.2v-.55a4.67 4.67 0 0 0 1.87-.77A3.65 3.65 0 0 0 40.51 22c0-2.91-2.47-3.77-4.27-4.4s-2.33-.92-2.33-1.64S35 14.68 36 14.68a3.06 3.06 0 0 1 2.2.75 1.2 1.2 0 0 0 1.6-1.79 5.19 5.19 0 0 0-2.6-1.25V12a1.2 1.2 0 0 0-2.4 0v.44c-1.75.38-3.3 1.58-3.3 3.53 0 2.54 2.28 3.33 3.94 3.91 1.89.66 2.66 1 2.66 2.13a1.23 1.23 0 0 1-.47 1.14c-.87.65-3 .51-4.6.05a1.2 1.2 0 0 0-.68 2.3 13.17 13.17 0 0 0 2.45.45v.45a1.2 1.2 0 0 0 1.2 1.18ZM12 3.6a1.2 1.2 0 0 0-1.2 1.2 6 6 0 0 1-6 6 1.2 1.2 0 0 0 0 2.4 8.39 8.39 0 0 0 8.38-8.4A1.2 1.2 0 0 0 12 3.6Zm49.23 1.2a1.2 1.2 0 1 0-2.4 0 8.39 8.39 0 0 0 8.38 8.38 1.2 1.2 0 1 0 0-2.4 6 6 0 0 1-5.98-5.98ZM4.8 25.18a1.2 1.2 0 0 0 0 2.4 6 6 0 0 1 6 6 1.2 1.2 0 0 0 2.4 0 8.39 8.39 0 0 0-8.4-8.4Z" />
  <path d="M1.2 20.37a1.2 1.2 0 0 0 1.2-1.2V4.79A2.39 2.39 0 0 1 4.79 2.4h62.42a2.4 2.4 0 0 1 2.4 2.39 1.2 1.2 0 1 0 2.4 0A4.8 4.8 0 0 0 67.21 0H4.79A4.8 4.8 0 0 0 0 4.79v14.38a1.2 1.2 0 0 0 1.2 1.2Zm70.6 14.5a4.27 4.27 0 0 0 .21-1.3V19.19a1.2 1.2 0 1 0-2.4 0v10.73a11.59 11.59 0 0 0-2.29-2.35 1.19 1.19 0 0 0-.11-2.38 8.56 8.56 0 0 0-3 .6A11.74 11.74 0 0 0 60 25a12 12 0 0 0-11.85 11H4.78a2.39 2.39 0 0 1-2.37-2.4 1.2 1.2 0 0 0-1.2-1.2A1.19 1.19 0 0 0 0 33.57a4.79 4.79 0 0 0 4.77 4.8h43.38A12 12 0 0 0 72 37.16a12.35 12.35 0 0 0-.2-2.29ZM60 46.93a9.7 9.7 0 0 1-9.6-9.73A9.6 9.6 0 1 1 60 47Z" />
  <path d="m61.72 37.16 3.65-3.64a1.2 1.2 0 1 0-1.7-1.7l-4.49 4.49a1.2 1.2 0 0 0 0 1.7L62.12 41a1.18 1.18 0 0 0 .85.35 1.16 1.16 0 0 0 .85-.35 1.19 1.19 0 0 0 0-1.69ZM53.38 36h-1.14a1.2 1.2 0 0 0 0 2.4h1.14a1.2 1.2 0 0 0 0-2.4Zm11.79 1.16a1.2 1.2 0 0 0 1.2 1.2h1.14a1.2 1.2 0 0 0 0-2.4h-1.14a1.2 1.2 0 0 0-1.2 1.2Zm-5.3-5.3a1.19 1.19 0 0 0 1.2-1.2v-1.13a1.2 1.2 0 1 0-2.4 0v1.13a1.2 1.2 0 0 0 1.2 1.2Zm0 10.6a1.2 1.2 0 0 0-1.2 1.2v1.13a1.2 1.2 0 0 0 2.4 0v-1.13a1.19 1.19 0 0 0-1.2-1.2Z" />
  <path fill="#fd0" d="M1.2 20.37a1.2 1.2 0 0 1-1.2-1.2v7.2a1.2 1.2 0 0 0 2.4 0v-7.2a1.2 1.2 0 0 1-1.2 1.2Zm69.61-9.58a1.2 1.2 0 0 0-1.2 1.2v7.2a1.2 1.2 0 0 1 2.4 0V12a1.2 1.2 0 0 0-1.2-1.21Z" />
</svg>
