<svg xmlns="http://www.w3.org/2000/svg" viewBox="0 0 72.01 69.6">
  <path d="M71.83 67.77 44.59 23.62a1.2 1.2 0 0 0-1.65-.39 1.19 1.19 0 0 0-.39 1.65L56.18 47l-9.4 13.57-13.53-13.43a1.21 1.21 0 0 0-1.7 0L21.49 57.21l-1.44-1.07A4.16 4.16 0 0 0 23.92 52v-5.8a5.64 5.64 0 0 0-1.79-4.12l-2.08-2 5.62-9.09a5.62 5.62 0 0 0 2.4-3.9l9-14.53a1.2 1.2 0 0 0-2.07-1.2l-6.91 11.19a3.42 3.42 0 0 0-2.16-2.67V9.6h7.73a1.2 1.2 0 0 0 1.09-1.7l-1.43-3.1 1.43-3.1A1.2 1.2 0 0 0 33.66 0h-8.93a1.2 1.2 0 0 0-1.2 1.2v18.67a3.42 3.42 0 0 0-2.22 3.19v2.13H9.12a9.17 9.17 0 0 0-7.82 4.43 1.2 1.2 0 0 0 2.06 1.23 6.67 6.67 0 0 1 5.76-3.26h13.39a1.2 1.2 0 0 0 1.2-1.2v-3.33a1 1 0 0 1 2 0v3.33a3.23 3.23 0 0 1-3.23 3.23h-3.65a1.2 1.2 0 0 0-1.2 1.2v9.83a1.19 1.19 0 0 0 .38.87l2.49 2.32a3.25 3.25 0 0 1 1 2.37V52a1.76 1.76 0 0 1-3.5 0v-4.43a1.17 1.17 0 0 0-.32-.81l-5.26-5.67a1.2 1.2 0 0 0-2.08.82v14.78a1.76 1.76 0 0 1-3.51 0V33.36a1.2 1.2 0 1 0-2.4 0V44.5a.64.64 0 0 1-.64.64h-.74a.64.64 0 0 1-.64-.64 1.2 1.2 0 0 0-1.2-1.2A1.19 1.19 0 0 0 0 44.5a3 3 0 0 0 3 3h.8a2.69 2.69 0 0 0 .64-.13v9.28a4.11 4.11 0 0 0 1 2.62l-5.26 8.5A1.19 1.19 0 0 0 .15 69a1.21 1.21 0 0 0 1.05.62h69.61a1.22 1.22 0 0 0 1-.62 1.19 1.19 0 0 0 .02-1.23ZM25.93 2.4h5.86l-.88 1.9a1.17 1.17 0 0 0 0 1l.88 1.9h-5.86ZM22.25 32 20 35.6V32Zm-6.64 16v4a4.24 4.24 0 0 0 .1.88l-2.42-1.81 2.05-3.32Zm-2-2.11-.9 1.45V45ZM3.35 67.2l4-6.56a4.09 4.09 0 0 0 1.21.2 4.15 4.15 0 0 0 4.15-4.15v-3l8.13 6.08a1.21 1.21 0 0 0 1.57-.11l10-10 13.7 13.56a1.19 1.19 0 0 0 .84.35h.11a1.22 1.22 0 0 0 .88-.51l9.61-13.86 11.11 18Z" />
  <path d="M12.24 23.45a4.53 4.53 0 1 0-4.53-4.52 4.53 4.53 0 0 0 4.53 4.52Zm0-6.65a2.13 2.13 0 1 1-2.13 2.13 2.12 2.12 0 0 1 2.13-2.13Z" />
  <path fill="#fd0" d="M40.81 17.49a1.2 1.2 0 0 0-2.05 1.26l3.79 6.13a1.19 1.19 0 0 1 .39-1.65 1.2 1.2 0 0 1 1.65.39ZM1.71 31.26a1.19 1.19 0 0 1-.41-1.64A9.16 9.16 0 0 0 0 34.3v3a1.2 1.2 0 0 0 2.4 0v-3a6.73 6.73 0 0 1 .95-3.45 1.19 1.19 0 0 1-1.64.41Z" />
</svg>
