<svg xmlns="http://www.w3.org/2000/svg" viewBox="0 0 38.41 58.81">
  <path d="M37.21 38.4A1.21 1.21 0 0 0 36 39.6V54a2.4 2.4 0 0 1-2.4 2.41H4.8A2.41 2.41 0 0 1 2.4 54v-3.59a1.2 1.2 0 0 0-2.4 0V54a4.82 4.82 0 0 0 4.8 4.81h28.8A4.82 4.82 0 0 0 38.41 54V39.6a1.2 1.2 0 0 0-1.2-1.2Zm1.19-16.8v-2.4a19.2 19.2 0 0 0-38.4 0V36a1.2 1.2 0 0 0 2.4 0V22.8H36v2.4a1.21 1.21 0 0 0 2.41 0v-3.6Zm-36-1.2v-1.2a16.8 16.8 0 0 1 33.6 0v1.2Z" />
  <path d="M19.2 47.37h.08a1.21 1.21 0 0 0 1-.67l7.2-14.4a1.2 1.2 0 0 0-2.15-1.07l-6.28 12.55-3.65-5.48a1.2 1.2 0 0 0-2 1.33l4.8 7.2a1.2 1.2 0 0 0 1 .54Z" />
  <path fill="#fd0" d="M1.2 37.2A1.2 1.2 0 0 1 0 36v-1.28 8.48a1.2 1.2 0 0 0 2.4 0V36a1.19 1.19 0 0 1-1.2 1.2Zm36.01-6A1.21 1.21 0 0 0 36 32.4v7.2a1.21 1.21 0 0 1 2.41 0v-7.2a1.2 1.2 0 0 0-1.2-1.2Z" />
</svg>
