<svg xmlns="http://www.w3.org/2000/svg" viewBox="0 0 38.4 58.81">
  <path d="M37.2 38.4a1.2 1.2 0 0 0-1.2 1.2V54a2.4 2.4 0 0 1-2.4 2.41H4.8A2.41 2.41 0 0 1 2.4 54v-3.59a1.2 1.2 0 0 0-2.4 0V54a4.81 4.81 0 0 0 4.8 4.81h28.8A4.81 4.81 0 0 0 38.4 54V39.6a1.2 1.2 0 0 0-1.2-1.2ZM19.2 0A19.22 19.22 0 0 0 0 19.2V36a1.2 1.2 0 0 0 2.4 0V22.8H36v2.4a1.2 1.2 0 1 0 2.4 0v-6A19.22 19.22 0 0 0 19.2 0ZM2.4 20.4v-1.2a16.8 16.8 0 0 1 33.6 0v1.2Z" />
  <path d="M19.2 31.2a1.2 1.2 0 0 0-1.2 1.2v6h-6a1.2 1.2 0 0 0 0 2.4h6v6a1.2 1.2 0 1 0 2.4 0v-6h6a1.2 1.2 0 1 0 0-2.4h-6v-6a1.2 1.2 0 0 0-1.2-1.2Z" />
  <path fill="#fd0" d="M37.2 31.2a1.2 1.2 0 0 0-1.2 1.2v7.2a1.2 1.2 0 1 1 2.4 0v-7.2a1.2 1.2 0 0 0-1.2-1.2Zm-36 6A1.2 1.2 0 0 1 0 36v7.2a1.2 1.2 0 0 0 2.4 0V36a1.2 1.2 0 0 1-1.2 1.2Z" />
</svg>
