<svg xmlns="http://www.w3.org/2000/svg" viewBox="0 0 55.05 55.05">
  <path d="M3 15.79a9.4 9.4 0 0 1 2.12-10 2.42 2.42 0 0 1 3.41 0l7.62 7.63a2.41 2.41 0 0 1 0 3.41l-1.12 1.12a5.18 5.18 0 0 0 0 7.35 1.19 1.19 0 0 0 1.69 0 1.2 1.2 0 0 0 0-1.7 2.81 2.81 0 0 1 0-3.95l1.13-1.13a4.8 4.8 0 0 0 0-6.8l-7.59-7.64a4.82 4.82 0 0 0-6.81 0A11.8 11.8 0 0 0 .78 16.65a65.2 65.2 0 0 0 24.15 30.54 1.23 1.23 0 0 0 .68.21 1.2 1.2 0 0 0 .68-2.19A62.75 62.75 0 0 1 3 15.79Zm40.35 21.38a4.82 4.82 0 0 0-6.8 0l-1.13 1.13a2.87 2.87 0 0 1-4 0l-4.39-4.39a1.19 1.19 0 0 0-1.69 0 1.2 1.2 0 0 0 0 1.7L29.77 40a5.2 5.2 0 0 0 7.35 0l1.13-1.12a2.41 2.41 0 0 1 3.41 0l7.62 7.62a2.41 2.41 0 0 1 0 3.41 9.4 9.4 0 0 1-10 2.13 1.2 1.2 0 1 0-.87 2.24 12 12 0 0 0 4.23.78A11.84 11.84 0 0 0 51 51.6a4.82 4.82 0 0 0 0-6.8ZM30.81 15a11.77 11.77 0 0 1 9.24 9.24 1.22 1.22 0 0 0 1.18 1 .85.85 0 0 0 .23 0 1.2 1.2 0 0 0 .95-1.41 14.19 14.19 0 0 0-11.13-11.19 1.2 1.2 0 0 0-.47 2.36Zm10.87-6.24a11.16 11.16 0 0 1 2.64 2 11.36 11.36 0 0 1 2 2.64 1.21 1.21 0 0 0 1.06.63 1.33 1.33 0 0 0 .57-.14 1.2 1.2 0 0 0 .48-1.63 13.71 13.71 0 0 0-5.58-5.58 1.2 1.2 0 0 0-1.14 2.11ZM54.8 3a16.54 16.54 0 0 0-1.29-1.47A16.11 16.11 0 0 0 52.05.26a1.21 1.21 0 0 0-1.69.2 1.19 1.19 0 0 0 .21 1.68 16.38 16.38 0 0 1 1.25 1.1 14.56 14.56 0 0 1 1.09 1.25 1.19 1.19 0 0 0 .94.46 1.21 1.21 0 0 0 .74-.26A1.2 1.2 0 0 0 54.8 3Z" />
  <path fill="#fd0" d="M25.39 33.91a1.19 1.19 0 0 1 1.69 0l-5.16-5.16a1.2 1.2 0 0 0-1.7 0 1.19 1.19 0 0 0 0 1.69l5.16 5.17a1.21 1.21 0 0 1 .01-1.7Zm7.43 15.21a62.27 62.27 0 0 1-6.53-3.91 1.2 1.2 0 0 1-.68 2.19 1.23 1.23 0 0 1-.68-.21 66.39 66.39 0 0 0 6.78 4.06 1.25 1.25 0 0 0 .55.14 1.2 1.2 0 0 0 .56-2.27Z" />
</svg>
