<svg xmlns="http://www.w3.org/2000/svg" viewBox="0 0 72.01 49.21">
  <path d="M25.43 8.35a1.2 1.2 0 0 0 .45 2.31 1.17 1.17 0 0 0 .44-.08 30 30 0 0 1 19.46-.75 1.2 1.2 0 1 0 .71-2.29 32.42 32.42 0 0 0-21.06.81ZM68.5 18a4.28 4.28 0 0 1-3.32-1.57 1.2 1.2 0 0 0-1.86 1.51 6.66 6.66 0 0 0 5.18 2.46 1.1 1.1 0 0 1 1.11 1.08v9.84a1.08 1.08 0 0 1-1 1.08 4.6 4.6 0 0 0-3.49 2c-2.35 4.09-5.14 6.51-9 7.83A3 3 0 0 0 54 45.08v1.12a.62.62 0 0 1-.6.6h-7.2a.61.61 0 0 1-.59-.56 3.08 3.08 0 0 0-3-3H31.8a3 3 0 0 0-3 2.8c0 .3-.17.8-.61.8H21a.62.62 0 0 1-.6-.6v-1.19a3 3 0 0 0-2-2.83 1.2 1.2 0 0 0-.83 2.26.64.64 0 0 1 .46.57v1.15a3 3 0 0 0 3 3h7.2a3.08 3.08 0 0 0 3-3 .62.62 0 0 1 .59-.57H42.6c.44 0 .59.51.61.81a3 3 0 0 0 3 2.8h7.21a3 3 0 0 0 3-3v-1.16a.61.61 0 0 1 .46-.57c4.49-1.53 7.68-4.28 10.34-8.91a2.24 2.24 0 0 1 1.58-.8 3.5 3.5 0 0 0 3.2-3.48v-9.84A3.5 3.5 0 0 0 68.5 18Z" />
  <path d="M6.69 24.42a1.2 1.2 0 0 0 .87-.94c2.27-12 15-21.08 29.72-21.08a34.89 34.89 0 0 1 11.11 1.78 22.33 22.33 0 0 0 14.21.22l.79-.26a1.2 1.2 0 0 0 .75-1.52 1.19 1.19 0 0 0-1.51-.76l-.79.27a20 20 0 0 1-12.69-.23A37.35 37.35 0 0 0 37.28 0c-15.74 0-29 9.29-31.9 22.2A4 4 0 0 1 2.24 21a1.2 1.2 0 0 0-2.24.6 6.61 6.61 0 0 0 4.91 6.73 19.18 19.18 0 0 0 1.55 5.92 1.21 1.21 0 0 0 1.1.71 1.15 1.15 0 0 0 .48-.1 1.2 1.2 0 0 0 .61-1.59 16.55 16.55 0 0 1-1.4-5.94 1.2 1.2 0 0 0-1-1.12 4.79 4.79 0 0 1-3.14-1.91 6.71 6.71 0 0 0 3.58.12Z" />
  <path fill="#fd0" d="M65.18 16.42a4.26 4.26 0 0 1-1-2.71v-3.33a1.2 1.2 0 1 0-2.4 0v3.33A6.7 6.7 0 0 0 63.32 18a1.2 1.2 0 0 1 1.86-1.51ZM8.65 33.27A1.2 1.2 0 0 1 8 34.86a1.15 1.15 0 0 1-.48.1 1.21 1.21 0 0 1-1.1-.71A18.93 18.93 0 0 0 11 40.52a1.23 1.23 0 0 0 .82.32 1.2 1.2 0 0 0 .81-2.09 16.6 16.6 0 0 1-3.98-5.48Z" />
</svg>
