<svg xmlns="http://www.w3.org/2000/svg" viewBox="0 0 45.6 63.55">
  <circle cx="22.8" cy="22.8" r="3.6" />
  <path d="M4.56 32a.83.83 0 0 0-.08-.22A20.17 20.17 0 0 1 2.4 22.8a20.41 20.41 0 0 1 39.68-6.71 1.2 1.2 0 1 0 2.26-.79A22.81 22.81 0 0 0 0 22.8a22.58 22.58 0 0 0 2.22 9.76 1.55 1.55 0 0 0 .08.23L8.86 46a1.22 1.22 0 0 0 1.08.67 1.12 1.12 0 0 0 .53-.13 1.2 1.2 0 0 0 .53-1.62Zm39.01-3.17a1.18 1.18 0 0 0-1.53.73 23.08 23.08 0 0 1-.91 2.17.9.9 0 0 0-.08.21L28.18 57.82a6 6 0 0 1-10.76 0 1.19 1.19 0 0 0-1.61-.54 1.21 1.21 0 0 0-.54 1.61 8.41 8.41 0 0 0 15.06 0l13-26.1a.92.92 0 0 0 .09-.23 23.64 23.64 0 0 0 .91-2.2 1.2 1.2 0 0 0-.76-1.53Z" />
  <path fill="#fd0" d="M11 44.92a1.2 1.2 0 0 1-.54 1.61 1.12 1.12 0 0 1-.53.13A1.22 1.22 0 0 1 8.86 46l3.21 6.45a1.19 1.19 0 0 0 1.07.66 1.32 1.32 0 0 0 .54-.12 1.21 1.21 0 0 0 .54-1.61ZM44.4 21.6a1.2 1.2 0 0 0-1.2 1.2 20.27 20.27 0 0 1-1.2 6.76 1.18 1.18 0 0 1 1.53-.73 1.2 1.2 0 0 1 .73 1.53 22.43 22.43 0 0 0 1.3-7.56 1.2 1.2 0 0 0-1.16-1.2Z" />
</svg>
