<svg xmlns="http://www.w3.org/2000/svg" viewBox="0 0 52.81 58.81">
  <path d="M35.88 34.69c-1.34 1-4.41.62-6.14.11a1.2 1.2 0 0 0-.68 2.3 17.41 17.41 0 0 0 3.35.58v.88a1.2 1.2 0 1 0 2.4 0v-1a5.68 5.68 0 0 0 2.51-1A4.28 4.28 0 0 0 39 33c0-3.47-3-4.52-5.2-5.29s-3.18-1.23-3.18-2.4 1.52-1.93 3-1.93a4.17 4.17 0 0 1 3 1 1.2 1.2 0 1 0 1.61-1.78 6.31 6.31 0 0 0-3.42-1.56v-.8a1.2 1.2 0 0 0-2.4 0v.83c-2.2.39-4.19 1.83-4.19 4.21 0 3 2.65 3.92 4.79 4.67 2.5.87 3.59 1.42 3.59 3a1.9 1.9 0 0 1-.72 1.74Z" />
  <path d="M48 0H8.4A8.41 8.41 0 0 0 0 8.4a5.7 5.7 0 0 0 11.4 0 1.2 1.2 0 0 0-2.4 0 3.3 3.3 0 0 1-6.6 0 6 6 0 0 1 12 0V36a1.2 1.2 0 0 0 2.4 0V8.4a8.38 8.38 0 0 0-2.54-6H48a2.41 2.41 0 0 1 2.41 2.41V8.4a1.2 1.2 0 0 0 2.4 0V4.81A4.82 4.82 0 0 0 48 0Zm3.61 20.4a1.2 1.2 0 0 0-1.2 1.2V54A2.41 2.41 0 0 1 48 56.41H19.21A2.41 2.41 0 0 1 16.8 54v-3.59a1.2 1.2 0 0 0-2.4 0V54a4.82 4.82 0 0 0 4.81 4.81H48A4.82 4.82 0 0 0 52.81 54V21.6a1.2 1.2 0 0 0-1.2-1.2Z" />
  <path fill="#fd0" d="M15.6 37.2a1.2 1.2 0 0 1-1.2-1.2v7.2a1.2 1.2 0 1 0 2.4 0V36a1.19 1.19 0 0 1-1.2 1.2Zm36.01-24a1.2 1.2 0 0 0-1.2 1.2v7.2a1.2 1.2 0 0 1 2.4 0v-7.2a1.2 1.2 0 0 0-1.2-1.2Z" />
</svg>
