<svg xmlns="http://www.w3.org/2000/svg" viewBox="0 0 60.05 63.35">
  <path d="M10.51 12.27a27.62 27.62 0 0 1 37.74-1.18l-8.09 1.29a1.2 1.2 0 0 0 .19 2.38h.19l10.66-1.7a1.19 1.19 0 0 0 1-1.37L50.51 1a1.18 1.18 0 0 0-1.37-1 1.2 1.2 0 0 0-1 1.37l1.18 7.44A30 30 0 0 0 1.55 41.26a1.21 1.21 0 0 0 1.14.82 1.31 1.31 0 0 0 .38-.08 1.2 1.2 0 0 0 .76-1.52 27.44 27.44 0 0 1 6.68-28.21ZM58.5 22.31a1.2 1.2 0 0 0-2.28.76 27.59 27.59 0 0 1-44.54 29.3l8.8-1.4a1.2 1.2 0 0 0-.38-2.37L9.43 50.29a1.2 1.2 0 0 0-1 1.38l.05.32a1.18 1.18 0 0 0 .11.69l1.53 9.65a1.19 1.19 0 0 0 1.18 1h.19a1.2 1.2 0 0 0 1-1.37l-1.05-6.64a30 30 0 0 0 47.05-33Z" />
  <path fill="#fd0" d="m58.88 23.53-.19-.56.19.64Zm-5.36-8.46a1.2 1.2 0 0 0-.35 1.66 27.6 27.6 0 0 1 3.23 6.94l-.18-.6a1.19 1.19 0 0 1 2.23-.85 30.21 30.21 0 0 0-3.27-6.8 1.21 1.21 0 0 0-1.66-.35ZM1.17 40l.18.53-.18-.53Zm2.47-.13.19.63a1.2 1.2 0 0 1-.76 1.5 1.31 1.31 0 0 1-.38.06 1.18 1.18 0 0 1-1.1-.77 29.49 29.49 0 0 0 3.28 6.84 1.2 1.2 0 1 0 2-1.31 27.3 27.3 0 0 1-3.23-6.95Z" />
</svg>
