<svg xmlns="http://www.w3.org/2000/svg" viewBox="0 0 63.38 60.01">
  <path d="M60.35 16.85a30.06 30.06 0 0 0-9.58-11.31 29.91 29.91 0 0 0-5.85-3.24c-.65-.28-1.32-.52-2-.75l-.22-.08c-.5-.16-1-.3-1.53-.44-.26-.03-.51-.15-.77-.21l-.86-.18c-.5-.1-1-.21-1.49-.29h-.18a30 30 0 0 0-7.15-.23l-.86.1A31.59 31.59 0 0 0 27 .69l-.28.05-.61.17c-.69.17-1.36.35-2 .57-.29.09-.57.2-.85.3-.62.23-1.23.45-1.83.72-.38.16-.74.34-1.11.52s-.95.46-1.41.72-1 .56-1.43.85l-1 .62c-.56.38-1.1.79-1.63 1.22l-.66.51c-.55.46-1.08.95-1.6 1.45l-.44.4L12 9c-.44.45-.85.92-1.26 1.39-.27.31-.55.62-.8.94l-.78 1.05s-.71 1-1 1.48A2.43 2.43 0 0 1 8 14l-.31.55c-.36.61-.72 1.22-1 1.84-.14.27-.25.53-.38.8-.28.6-.56 1.2-.8 1.82-.15.37-.27.75-.4 1.12s-.36 1-.51 1.54-.27 1-.39 1.58S4 24 3.9 24.43c-.12.65-.21 1.31-.29 2 0 .28-.08.57-.1.86a25.3 25.3 0 0 0-.1 2.13v.81a30.74 30.74 0 0 0 .73 6.45c0 .12.08.24.11.37.16.66.38 1.3.58 1.95s.32 1.07.51 1.59.55 1.28.84 1.91.44 1 .7 1.52c.07.12.11.25.18.38s.09.07.12.12a31.44 31.44 0 0 0 1.67 2.72l-7.41-1.55a1.18 1.18 0 0 0-1.44.93A1.2 1.2 0 0 0 1 48l10.57 2.19a1 1 0 0 0 .24 0 1.57 1.57 0 0 0 .23 0 .86.86 0 0 0 .17 0 .75.75 0 0 0 .15-.09 1.05 1.05 0 0 0 .21-.12s0-.07.08-.11a.72.72 0 0 0 .17-.22 1.08 1.08 0 0 0 .08-.19s0-.09 0-.14l2.2-10.57a1.2 1.2 0 0 0-.93-1.42 1.19 1.19 0 0 0-1.42.93l-1.67 8A27.84 27.84 0 0 1 9 42.87c-.24-.45-.43-.91-.64-1.37s-.55-1.17-.77-1.77-.33-1-.48-1.48-.38-1.18-.52-1.78a27.08 27.08 0 0 1-.78-6.29v-.71c0-.67 0-1.34.1-2 0-.25.06-.5.09-.75q.1-.93.27-1.86l.23-1a24.93 24.93 0 0 1 1.93-5.58c.12-.26.23-.52.36-.77.29-.56.61-1.11.93-1.66l.44-.72c.3-.47.62-.91.94-1.35l.72-1c.25-.34.49-.57.74-.86s.75-.86 1.16-1.27c.18-.19.37-.36.55-.53.48-.46 1-.91 1.47-1.34l.61-.47c.49-.39 1-.77 1.49-1.12l.9-.57c.43-.27.86-.54 1.31-.78s.85-.45 1.29-.66l1-.49A30 30 0 0 1 24 4.05l.81-.29c.6-.19 1.21-.36 1.82-.51.29-.07.58-.16.88-.22l1.06-.2c.52-.09 1-.17 1.57-.23l.77-.09c.8-.07 1.62-.12 2.44-.12a26.86 26.86 0 0 1 4.13.32h.17c.45.07.9.17 1.35.26.27.06.54.1.81.17l.67.18c.49.13 1 .26 1.45.42h.13c.64.22 1.28.45 1.9.71a27.3 27.3 0 0 1 5.38 3 27.61 27.61 0 0 1-20.5 49.78 1.2 1.2 0 1 0-.39 2.36A29.71 29.71 0 0 0 46.52 57a30 30 0 0 0 13.83-40.15Z" />
  <path d="M35.66 35.28c-1.35 1-4.41.62-6.14.11a1.2 1.2 0 0 0-1.52.81 1.19 1.19 0 0 0 .81 1.49 16.48 16.48 0 0 0 3.35.58v.88a1.2 1.2 0 0 0 2.4 0v-1a5.65 5.65 0 0 0 2.51-1 4.31 4.31 0 0 0 1.68-3.63c0-3.47-3-4.52-5.21-5.28s-3.18-1.23-3.18-2.4 1.53-1.94 3-1.94a4.14 4.14 0 0 1 3 1A1.2 1.2 0 0 0 38 23.2a6.28 6.28 0 0 0-3.41-1.56v-.79a1.2 1.2 0 1 0-2.4 0v.82C30 22.06 28 23.5 28 25.89c0 3 2.66 3.92 4.79 4.66 2.5.87 3.6 1.42 3.6 3a1.9 1.9 0 0 1-.73 1.73Z" />
  <path fill="#fd0" d="M27.46 58.21a1.18 1.18 0 0 1 1.38-1h.08a27.52 27.52 0 0 1-11.55-4.75A1.2 1.2 0 0 0 16 54.44a29.67 29.67 0 0 0 12.44 5.14 1.19 1.19 0 0 1-.98-1.37Z" />
</svg>
