<svg xmlns="http://www.w3.org/2000/svg" viewBox="0 0 43.2 72.01">
  <path d="M6 9.6h31.2a1.2 1.2 0 1 0 0-2.4H6a1.2 1.2 0 0 0 0 2.4Zm0 49.21h31.2a1.2 1.2 0 0 0 0-2.4H6a1.2 1.2 0 1 0 0 2.4Z" />
  <circle cx="21.6" cy="64.81" r="1.8" />
  <path d="M42 20.4a1.2 1.2 0 0 0-1.2 1.2v45.6a2.4 2.4 0 0 1-2.4 2.41H4.8a2.41 2.41 0 0 1-2.4-2.41v-2.39a1.2 1.2 0 0 0-2.4 0v2.39A4.81 4.81 0 0 0 4.8 72h33.6a4.81 4.81 0 0 0 4.8-4.81V21.6a1.2 1.2 0 0 0-1.2-1.2ZM38.4 0H4.8A4.8 4.8 0 0 0 0 4.8v45.61a1.2 1.2 0 0 0 2.4 0V4.8a2.41 2.41 0 0 1 2.4-2.4h33.6a2.4 2.4 0 0 1 2.4 2.4v3.6a1.2 1.2 0 0 0 2.4 0V4.8A4.8 4.8 0 0 0 38.4 0Z" />
  <path fill="#fd0" d="M42 13.2a1.2 1.2 0 0 0-1.2 1.2v7.2a1.2 1.2 0 0 1 2.4 0v-7.2a1.2 1.2 0 0 0-1.2-1.2ZM1.2 51.61a1.2 1.2 0 0 1-1.2-1.2v7.2a1.2 1.2 0 0 0 2.4 0v-7.2a1.2 1.2 0 0 1-1.2 1.2Z" />
</svg>
