<svg xmlns="http://www.w3.org/2000/svg" viewBox="0 0 69.59 57.67">
  <path d="M51.57 19.89a1.2 1.2 0 0 0-1.2 1.2v31.07a3.1 3.1 0 0 1-4.49 2.77l-23-11.57a5.6 5.6 0 0 0-2.47-.58H9.83a7.43 7.43 0 0 1-7.43-7.43 1.2 1.2 0 1 0-2.4 0 9.84 9.84 0 0 0 9.83 9.83h10.55a3.06 3.06 0 0 1 1.39.33l23 11.57a5.54 5.54 0 0 0 2.47.59 5.52 5.52 0 0 0 5.49-5.51V21.09a1.2 1.2 0 0 0-1.16-1.2Zm7.69 2.48a1.2 1.2 0 0 0-.48 1.63 10.25 10.25 0 0 1 0 9.66 1.2 1.2 0 0 0 .48 1.63 1.17 1.17 0 0 0 .57.14 1.21 1.21 0 0 0 1.06-.63 12.63 12.63 0 0 0 0-11.94 1.21 1.21 0 0 0-1.63-.49ZM69 24.89a1.2 1.2 0 1 0-2.3.68 11.31 11.31 0 0 1 0 6.52 1.19 1.19 0 0 0 .81 1.49 1 1 0 0 0 .34.05 1.19 1.19 0 0 0 1.15-.86 13.67 13.67 0 0 0 0-7.88ZM50.16.82a5.46 5.46 0 0 0-5.35-.23l-23 11.56a3.07 3.07 0 0 1-1.39.34H9.83a9.78 9.78 0 0 0-9.71 8.27 1.21 1.21 0 0 0 1 1.37h.19a1.19 1.19 0 0 0 1.18-1 7.39 7.39 0 0 1 7.34-6.25h10.55a5.61 5.61 0 0 0 2.47-.59l23-11.57a3.1 3.1 0 0 1 3 .14 3.06 3.06 0 0 1 1.52 2.64 1.2 1.2 0 0 0 2.4 0A5.48 5.48 0 0 0 50.16.82Z" />
  <path fill="#fd0" d="M51.57 12.69a1.2 1.2 0 0 0-1.2 1.2v7.2a1.2 1.2 0 0 1 2.4 0v-7.2a1.2 1.2 0 0 0-1.2-1.2ZM1.31 22.15h-.19a1.21 1.21 0 0 1-1-1.37A10 10 0 0 0 0 22.32v5.83a1.2 1.2 0 0 0 2.4 0v-5.83a7.62 7.62 0 0 1 .09-1.18 1.19 1.19 0 0 1-1.18 1.01Z" />
</svg>
