<svg xmlns="http://www.w3.org/2000/svg" viewBox="0 0 41.5 50">
  <path d="M24.27 30.32a.68.68 0 00-.28 0 19 19 0 00-6.56 0 .57.57 0 00-.18 0A20.93 20.93 0 000 49.1a.85.85 0 00.77.9.83.83 0 00.89-.76A19.26 19.26 0 0117 32l1.57 2.68-2.39 10.13a.86.86 0 00.19.75l3.75 4.17.24.15a.87.87 0 00.32.06.67.67 0 00.31-.07.26.26 0 00.09 0l.16-.09 3.72-4.16a.86.86 0 00.19-.75l-2.4-10.1L24.44 32a19.25 19.25 0 0115.4 17.2.82.82 0 00.83.76h.07a.84.84 0 00.76-.9 20.92 20.92 0 00-17.23-18.74zm-3.52 1.35a17.33 17.33 0 011.91.1l-1.16 2H20l-1.16-2a18.19 18.19 0 011.91-.1zm2.8 13.1l-2.81 3.15-2.84-3.15 2.25-9.36h1.18zM20.74 28.33a10.72 10.72 0 006.56-2.21.84.84 0 00.12-1.18.83.83 0 00-1.13-.15 9.16 9.16 0 01-14.72-7.29 1.13 1.13 0 000-.18 1.13 1.13 0 000-.18v-4.88a4.92 4.92 0 014.91-4.91H25a4.92 4.92 0 014.91 4.91v5.32a1.55 1.55 0 000 .21l.05.1.11.16.1.08a.65.65 0 00.15.1l.15.05h.25a.76.76 0 00.27-.05l.14-.08a.58.58 0 00.27-.15l.08-.1a1.21 1.21 0 00.05-.18v-.08l1.27-9.43A8.2 8.2 0 0024.65 0h-7.81a8.12 8.12 0 00-6.42 3.11.83.83 0 101.29 1.05 6.47 6.47 0 015.12-2.47h7.81a6.5 6.5 0 016.52 6.4L31 9.54a6.58 6.58 0 00-6-3.86h-8.52a6.58 6.58 0 00-6.57 6.58v4.88a.57.57 0 000 .18.57.57 0 000 .18 10.83 10.83 0 0010.83 10.83z" />
  <path fill="#fd0" d="M30.33 20.45a.83.83 0 00-1.08.47 9.15 9.15 0 01-3.07 3.94l.11-.07a.83.83 0 011.07 1.26 10.89 10.89 0 003.43-4.51.85.85 0 00-.46-1.09zM10.55 4.28a.84.84 0 01-.14-1.17 8.15 8.15 0 00-1.75 5.18l.05.4a.84.84 0 00.83.73h.11a.84.84 0 00.71-.94v-.29a6.38 6.38 0 011.4-4 .84.84 0 01-1.21.09z" />
</svg>
