<svg xmlns="http://www.w3.org/2000/svg" viewBox="0 0 65.74 65.73">
  <path d="M64.56 27.41a1.2 1.2 0 1 0-2.3.66 27.61 27.61 0 0 1-46 27.18 1.19 1.19 0 0 0-1.69 0 1.2 1.2 0 0 0 0 1.7 30 30 0 0 0 50-29.54Z" />
  <path d="m15.42 17.12 5.93 5.93a19.27 19.27 0 1 0 1.7-1.7l-5.95-5.94a27.62 27.62 0 0 1 38.15.8 1.2 1.2 0 0 0 1.7 0 1.19 1.19 0 0 0 0-1.69 29.94 29.94 0 0 0-41.54-.81l-2-2L15 8a1.2 1.2 0 0 0-.25-1.32L8.41.35A1.21 1.21 0 0 0 7.17.07a1.19 1.19 0 0 0-.8 1l-.53 4.77-4.77.53a1.2 1.2 0 0 0-.72 2l6.37 6.37a1.19 1.19 0 0 0 .85.35A1.14 1.14 0 0 0 8 15l3.71-1.59 1.95 2A30 30 0 0 0 6.9 44.06a1.21 1.21 0 0 0 1.15.87 1.33 1.33 0 0 0 .34 0 1.21 1.21 0 0 0 .82-1.49 27.6 27.6 0 0 1 6.21-26.32Zm20.31 1.81a16.87 16.87 0 1 1-12.68 5.82l6 6A8.49 8.49 0 1 0 30.72 29l-6-6a16.67 16.67 0 0 1 11.01-4.07Zm-.85 17.65a1.22 1.22 0 0 0 .85.35 1.2 1.2 0 0 0 .85-2l-4.15-4.15a5.94 5.94 0 0 1 3.3-1 6 6 0 1 1-6 6 5.94 5.94 0 0 1 1-3.3Zm-27-24.07-4-4 3.25-.36a1.19 1.19 0 0 0 .99-1.09l.36-3.25 4 4-1.4 3.27Z" />
  <path fill="#fd0" d="M61.54 20.42a1.21 1.21 0 0 0-1.65-.42 1.19 1.19 0 0 0-.41 1.64 27.79 27.79 0 0 1 2.78 6.43 1.2 1.2 0 1 1 2.3-.66 29.33 29.33 0 0 0-3.02-6.99ZM9.21 43.39a1.21 1.21 0 0 1-.82 1.49 1.33 1.33 0 0 1-.34 0 1.21 1.21 0 0 1-1.15-.87 30.1 30.1 0 0 0 3 7 1.23 1.23 0 0 0 1 .58 1.19 1.19 0 0 0 1-1.81 27.19 27.19 0 0 1-2.69-6.39Z" />
</svg>
