<svg xmlns="http://www.w3.org/2000/svg" viewBox="0 0 61.95 72.11">
  <path d="M62 32.75a6.66 6.66 0 0 0-6.66-6.65 1.2 1.2 0 1 0 0 2.4 4.25 4.25 0 1 1 0 8.5h-4.22a1.2 1.2 0 1 0 0 2.4 4.25 4.25 0 0 1 0 8.5h-4.25a1.2 1.2 0 0 0 0 2.4 4.26 4.26 0 1 1 0 8.51h-4.15a1.2 1.2 0 0 0-1.2 1.2 1.19 1.19 0 0 0 1.2 1.19h.15a4.24 4.24 0 0 1 0 8.48 1.16 1.16 0 0 0-.18 0H19a3.15 3.15 0 0 1-2.23-.92L9.31 61.3a1.17 1.17 0 0 0-.85-.3H1.2a1.2 1.2 0 1 0 0 2.4H8l7.09 7.08A5.53 5.53 0 0 0 19 72.06h23.72a6.65 6.65 0 0 0 6.65-6.65 6.56 6.56 0 0 0-1.65-4.34 6.59 6.59 0 0 0 4.16-10.89 6.63 6.63 0 0 0 5.89-6.58 6.54 6.54 0 0 0-1.65-4.33A6.65 6.65 0 0 0 62 32.75ZM1.2 49.7a1.2 1.2 0 0 0 1.2-1.2v-20h6.07a1.22 1.22 0 0 0 .46-.09.83.83 0 0 0 .15-.11 1.14 1.14 0 0 0 .23-.15 1.16 1.16 0 0 0 .26-.39 45.84 45.84 0 0 1 6.12-10.33c2.69-3.66 5.47-7.44 7.37-14.33a1 1 0 0 1 1.15-.66C30 4.05 33.06 9 31.58 14.33l-.92 2.3c-1.45 3.54-2.81 6.88-2.81 10.67a1.2 1.2 0 0 0 1.2 1.2h11.84a1.2 1.2 0 1 0 0-2.4H30.35a29.69 29.69 0 0 1 2.53-8.56l1-2.45c1.86-6.71-1.93-13-9-15a3.33 3.33 0 0 0-4.1 2.33C19 8.91 16.43 12.36 13.76 16a48.53 48.53 0 0 0-6.08 10.09H1.2a1.2 1.2 0 0 0-1.2 1.2V48.5a1.2 1.2 0 0 0 1.2 1.2Z" />
  <path fill="#fd0" d="M54.09 27.3a1.2 1.2 0 0 1 1.2-1.2h-7.2a1.2 1.2 0 0 0 0 2.4h7.2a1.2 1.2 0 0 1-1.2-1.2ZM1.2 49.7A1.2 1.2 0 0 1 0 48.5v7.2a1.2 1.2 0 0 0 2.4 0v-7.2a1.2 1.2 0 0 1-1.2 1.2Z" />
</svg>
