<svg xmlns="http://www.w3.org/2000/svg" viewBox="0 0 58.26 72.01">
  <path d="m48.78 56.2-.07-.07a1.49 1.49 0 0 0-.18-.17 1.13 1.13 0 0 0-.18-.12.9.9 0 0 0-.21-.08h-.69l-.23.1h-.11L43 58.81a1.2 1.2 0 1 0 1.37 2l2-1.42a12.74 12.74 0 0 1-12.49 10.22 1.2 1.2 0 1 0 0 2.4 15.14 15.14 0 0 0 14.75-11.83l1.09 1.56a1.19 1.19 0 0 0 1 .51 1.24 1.24 0 0 0 .69-.21 1.2 1.2 0 0 0 .3-1.67ZM25.44 0A15.13 15.13 0 0 0 10.7 11.83l-1.09-1.56a1.2 1.2 0 1 0-2 1.37l2.9 4.16.07.08a1.37 1.37 0 0 0 .18.16.71.71 0 0 0 .18.12.85.85 0 0 0 .22.09l.12.05h.21a1.19 1.19 0 0 0 .62-.19s0 0 .07 0l4.17-2.9a1.2 1.2 0 0 0-1.38-2l-2 1.41A12.74 12.74 0 0 1 25.44 2.4a1.2 1.2 0 0 0 0-2.4ZM21.9 50.57h-9.15V39.29a9.79 9.79 0 1 0-2.4 0v5.23c-.24-.3-.45-.62-.72-.9a10.88 10.88 0 0 0-8.21-3.11 1.19 1.19 0 0 0-1.13 1.13 10.81 10.81 0 0 0 3.11 8.21c.27.27.59.48.88.72H1.2a1.2 1.2 0 0 0-1.2 1.2v5.91a1.2 1.2 0 1 0 2.4 0V53h18.3v3.51H3.79a1.2 1.2 0 0 1 1.17 1l.29 1.43h12.6l-2.11 10.67H6.37a1.2 1.2 0 1 0 0 2.4h10.35a1.2 1.2 0 0 0 1.18-1l2.4-12.16h1.6a1.2 1.2 0 0 0 1.2-1.2v-5.88a1.2 1.2 0 0 0-1.2-1.2ZM4.16 29.62A7.39 7.39 0 1 1 11.55 37a7.39 7.39 0 0 1-7.39-7.38ZM2.7 42.92a8.29 8.29 0 0 1 7.64 7.64 8.29 8.29 0 0 1-7.64-7.64Z" />
  <path d="M11.55 35.28a1.2 1.2 0 0 0 1.2-1.2 2.92 2.92 0 0 0 1-.45 2.67 2.67 0 0 0 1.07-2.26c0-2.13-1.85-2.77-3-3.15-.37-.13-1-.37-1.14-.59s.34-.33.84-.33a1.44 1.44 0 0 1 1.06.35 1.2 1.2 0 0 0 1.6-1.79 3.63 3.63 0 0 0-1.47-.76 1.19 1.19 0 0 0-2.37 0 2.72 2.72 0 0 0-2.06 2.54c0 1.9 1.72 2.49 2.75 2.85 1.23.43 1.34.58 1.34.89s-.07.31-.11.34a3.69 3.69 0 0 1-2.45-.05A1.2 1.2 0 0 0 9.17 34a9.31 9.31 0 0 0 1.21.25 1.2 1.2 0 0 0 1.17 1.03Zm45.51-7.82H49v-9.81a8.79 8.79 0 0 0 4.19-1.72A1.2 1.2 0 0 0 51.74 14a6.41 6.41 0 0 1-3.93 1.33 6.48 6.48 0 1 1 3.34-12 1.2 1.2 0 0 0 1.24-2.06 8.86 8.86 0 1 0-5.78 16.36v4.19c-.15-.17-.26-.37-.42-.53a9.83 9.83 0 0 0-7.43-2.82 1.21 1.21 0 0 0-1.14 1.14A9.82 9.82 0 0 0 40.45 27c.15.15.34.27.51.42h-2.39a1.19 1.19 0 0 0-1.2 1.2v5.28a1.2 1.2 0 0 0 1.2 1.2h1.32L42 45.89a1.2 1.2 0 0 0 1.18 1h9.24a1.19 1.19 0 0 0 1.18-1l2.12-10.75h1.33a1.2 1.2 0 0 0 1.2-1.2v-5.28a1.2 1.2 0 0 0-1.19-1.2Zm-17-6.57a7.29 7.29 0 0 1 6.54 6.54 7.24 7.24 0 0 1-6.54-6.54Zm-.28 9h16.08v2.88H39.77Zm11.68 14.6h-7.28l-1.84-9.32h10.94Z" />
  <path d="M46.32 10.57a1.2 1.2 0 1 0-.67 2.3 8.38 8.38 0 0 0 1 .22 1.18 1.18 0 0 0 2.35-.15 2.87 2.87 0 0 0 .83-.39 2.52 2.52 0 0 0 1-2.12c0-2-1.7-2.58-2.72-2.94a6.79 6.79 0 0 1-.94-.37 1 1 0 0 1 .64-.2 1.12 1.12 0 0 1 .85.28 1.2 1.2 0 0 0 1.61-1.79A3.4 3.4 0 0 0 49 4.72a1.18 1.18 0 0 0-2.33 0 2.53 2.53 0 0 0-1.86 2.38c0 1.78 1.59 2.34 2.54 2.67s1.11.46 1.07.87a3.28 3.28 0 0 1-2.1-.07Z" />
  <path fill="#fd0" d="M56.67 8.33a1.2 1.2 0 0 0-2.4.14v.4A6.43 6.43 0 0 1 51.74 14a1.2 1.2 0 0 1 1.46 1.91 8.82 8.82 0 0 0 3.49-7.06l-.02-.52ZM3.79 56.48H2.4v1.2a1.2 1.2 0 0 1-1.2 1.2h1.6l1 5.12a1.21 1.21 0 0 0 1.18 1 .86.86 0 0 0 .23 0 1.2 1.2 0 0 0 1-1.41L5 57.45a1.2 1.2 0 0 0-1.21-.97Z" />
</svg>
