<svg xmlns="http://www.w3.org/2000/svg" viewBox="0 0 72.01 61.47">
  <path d="M56.51 13.36c1.2.42 1.31.56 1.31.86s-.07.3-.1.32a3.58 3.58 0 0 1-2.39 0 1.2 1.2 0 0 0-.68 2.3 8 8 0 0 0 1.19.25 1.18 1.18 0 0 0 1.16 1 1.19 1.19 0 0 0 1.2-1.19 2.84 2.84 0 0 0 .95-.44 2.67 2.67 0 0 0 1.06-2.24c0-2.11-1.83-2.74-2.92-3.12-.35-.12-1-.35-1.1-.56s.32-.3.81-.3a1.45 1.45 0 0 1 1 .33 1.2 1.2 0 0 0 1.6-1.78A3.61 3.61 0 0 0 58.19 8a1.18 1.18 0 0 0-2.36 0 2.67 2.67 0 0 0-2 2.51c-.03 1.91 1.67 2.49 2.68 2.85Z" />
  <path d="M70.81 17.85a1.2 1.2 0 0 0-1.2 1.2v8.55h-2.49V5.85h3.69a1.2 1.2 0 1 0 0-2.4h-3.69V1.2a1.2 1.2 0 0 0-1.2-1.2H48.09a1.2 1.2 0 0 0-1.2 1.2v2.25H43.2a1.2 1.2 0 0 0-1.2 1.2V28.8a1.2 1.2 0 0 0 1.2 1.2h27.61A1.2 1.2 0 0 0 72 28.8v-9.75a1.2 1.2 0 0 0-1.19-1.2Zm-11.55 9.71h-4.5V23.1h4.5ZM49.29 2.4h15.43v25.16h-3.06V21.9a1.2 1.2 0 0 0-1.2-1.2h-6.9a1.2 1.2 0 0 0-1.2 1.2v5.66h-3.07Zm-2.4 3.45V27.6H44.4V5.85ZM58.11 33.8s-.06 0-.08-.07a1.29 1.29 0 0 0-.17-.16l-.18-.13-.22-.08h-.13a.4.4 0 0 0-.11 0h-.46l-.21.09s-.08 0-.11.06l-4.17 2.9a1.2 1.2 0 1 0 1.37 2l2-1.42A12.73 12.73 0 0 1 43.2 47.21a1.2 1.2 0 1 0 0 2.4A15.14 15.14 0 0 0 58 37.78l1 1.56a1.19 1.19 0 0 0 1 .52 1.25 1.25 0 0 0 .68-.22A1.2 1.2 0 0 0 61 38ZM20.36 42c-.61.46-2.23.36-3.44 0a1.2 1.2 0 1 0-.68 2.3 12 12 0 0 0 1.77.35v.13a1.2 1.2 0 1 0 2.4 0v-.23a3.81 3.81 0 0 0 1.39-.63 3.13 3.13 0 0 0 1.2-2.67c0-2.49-2.14-3.23-3.56-3.73s-1.68-.67-1.68-1.07.75-.76 1.42-.76a2.17 2.17 0 0 1 1.58.53 1.2 1.2 0 0 0 1.6-1.78 4.29 4.29 0 0 0-2-1v-.14a1.2 1.2 0 0 0-2.4 0v.15a3.19 3.19 0 0 0-2.62 3c0 2.19 2 2.88 3.29 3.34 1.6.56 1.95.82 1.95 1.46s-.13.65-.22.75Z" />
  <path d="M37.2 27.57H32v-3.3a1.2 1.2 0 0 0-1.2-1.2H7.58a1.2 1.2 0 0 0-1.2 1.2v3.3H1.2a1.2 1.2 0 0 0-1.2 1.2v17.05a1.2 1.2 0 1 0 2.4 0V30h4v29.1H1.2a1.2 1.2 0 1 0 0 2.4h36a1.19 1.19 0 0 0 1.2-1.2V28.77a1.2 1.2 0 0 0-1.2-1.2ZM36 30v29.1h-4V30ZM22.5 59h-6.6v-6.53h6.6ZM8.78 25.47h20.85V59H24.9v-7.73a1.2 1.2 0 0 0-1.2-1.2h-9a1.2 1.2 0 0 0-1.2 1.2V59H8.78Z" />
  <path fill="#fd0" d="M70.81 10.65a1.2 1.2 0 0 0-1.2 1.2v7.2a1.2 1.2 0 0 1 2.4 0v-7.2a1.2 1.2 0 0 0-1.2-1.2ZM1.2 47A1.2 1.2 0 0 1 0 45.82V53a1.2 1.2 0 0 0 2.4 0v-7.2A1.2 1.2 0 0 1 1.2 47Z" />
</svg>
