<svg xmlns="http://www.w3.org/2000/svg" viewBox="0 0 72.01 58.81">
  <path d="M70.81 30.07a1.19 1.19 0 0 0-1.2 1.2v9.78a8.17 8.17 0 0 1-8.16 8.16h-50.9a8.17 8.17 0 0 1-8.15-8.16 1.2 1.2 0 0 0-2.4 0 10.57 10.57 0 0 0 10.55 10.56h3.32A4.75 4.75 0 0 0 13.2 54a4.8 4.8 0 1 0 9.6 0 4.65 4.65 0 0 0-.67-2.4h27.74a4.74 4.74 0 0 0-.66 2.4 4.8 4.8 0 0 0 9.6 0 4.75 4.75 0 0 0-.67-2.4h3.31A10.58 10.58 0 0 0 72 41.05v-9.78a1.2 1.2 0 0 0-1.19-1.2ZM20.4 54a2.4 2.4 0 1 1-2.4-2.4 2.4 2.4 0 0 1 2.4 2.4Zm36 0a2.4 2.4 0 1 1-2.4-2.4 2.41 2.41 0 0 1 2.41 2.4ZM1.2 28.2A1.2 1.2 0 0 0 2.4 27V16.55a8.16 8.16 0 0 1 8.15-8.15h50.9a8.17 8.17 0 0 1 8.16 8.15 1.2 1.2 0 0 0 2.4 0A10.57 10.57 0 0 0 61.45 6H44.4V2.4h2.4a1.2 1.2 0 1 0 0-2.4H25.2a1.2 1.2 0 1 0 0 2.4h2.4V6h-17A10.56 10.56 0 0 0 0 16.55V27a1.2 1.2 0 0 0 1.2 1.2ZM30 2.4h12V6H30Z" />
  <path d="M10.8 13.2a1.2 1.2 0 0 0-1.2 1.2v7.2a1.2 1.2 0 0 0 1.2 1.2h14.4a1.19 1.19 0 0 0 1.2-1.2v-7.2a1.2 1.2 0 0 0-1.2-1.2ZM24 20.4H12v-4.8h12Zm3.6 17.4a6.5 6.5 0 1 0 6.5-6.5 6.51 6.51 0 0 0-6.5 6.5Zm10.6 0a4.1 4.1 0 1 1-4.1-4.1 4.11 4.11 0 0 1 4.1 4.1ZM49 13.25a1.2 1.2 0 0 0-1.51 1.44l3.1 12.65a1.18 1.18 0 0 0 .83.87 1.26 1.26 0 0 0 .33.05 1.21 1.21 0 0 0 .83-.33l9.42-9a1.21 1.21 0 0 0-.5-2Zm3.42 11.5-2.1-8.61 8.51 2.48Z" />
  <path fill="#fd0" d="M70.81 22.87a1.19 1.19 0 0 0-1.2 1.2v7.2a1.2 1.2 0 0 1 2.4 0v-7.2a1.2 1.2 0 0 0-1.2-1.2ZM1.2 28.2A1.2 1.2 0 0 1 0 27v7.2a1.2 1.2 0 0 0 2.4 0V27a1.2 1.2 0 0 1-1.2 1.2Z" />
</svg>
