<svg xmlns="http://www.w3.org/2000/svg" viewBox="0 0 59.77 72.01">
  <path d="M29.88 43.2A30.13 30.13 0 0 0 0 70.71 1.2 1.2 0 0 0 1.1 72a1.21 1.21 0 0 0 1.3-1.1 27.58 27.58 0 0 1 55 0 1.21 1.21 0 0 0 1.17 1.1h.09a1.19 1.19 0 0 0 1.1-1.29A30.13 30.13 0 0 0 29.88 43.2Zm-.01-2.4a15.46 15.46 0 0 0 9.45-3.19 1.2 1.2 0 1 0-1.46-1.91 13 13 0 0 1-8 2.7 13.21 13.21 0 0 1-13.2-13.2 1 1 0 0 0-.06-.25 1.22 1.22 0 0 0 .06-.26v-7a7.07 7.07 0 0 1 7.06-7.06H36a7.07 7.07 0 0 1 7.07 7.06v7.63a1.36 1.36 0 0 0 .06.29.8.8 0 0 0 .08.16.86.86 0 0 0 .15.22.64.64 0 0 0 .15.13.8.8 0 0 0 .21.15 1 1 0 0 0 .21.07l.15.05h.2a1.16 1.16 0 0 0 .41-.09 1.62 1.62 0 0 0 .18-.1 1.18 1.18 0 0 0 .18-.13 1.3 1.3 0 0 0 .15-.18 1.63 1.63 0 0 0 .11-.17.9.9 0 0 0 .08-.23.74.74 0 0 0 0-.14l1.83-13.58A11.8 11.8 0 0 0 35.49 0H24.25A11.73 11.73 0 0 0 15 4.47 1.2 1.2 0 1 0 16.89 6a9.34 9.34 0 0 1 7.36-3.6h11.24a9.38 9.38 0 0 1 9.4 9.22l-.29 2.13A9.47 9.47 0 0 0 36 8.19H23.73a9.47 9.47 0 0 0-9.46 9.46v7a1 1 0 0 0 .05.25 1.22 1.22 0 0 0-.06.26A15.62 15.62 0 0 0 29.87 40.8Z" />
  <path fill="#fd0" d="M43.68 29.45a1.21 1.21 0 0 0-1.56.67 13.13 13.13 0 0 1-4.43 5.69l.17-.11a1.21 1.21 0 0 1 1.69.23 1.18 1.18 0 0 1-.15 1.58 15.64 15.64 0 0 0 5-6.49 1.21 1.21 0 0 0-.72-1.57ZM15.2 6.16a1.21 1.21 0 0 1-.2-1.69 11.74 11.74 0 0 0-2.53 7.47l.08.58a1.2 1.2 0 0 0 1.19 1h.16a1.2 1.2 0 0 0 1-1.35l-.07-.42a9.26 9.26 0 0 1 2-5.82 1.21 1.21 0 0 1-1.63.23Z" />
</svg>
