<svg xmlns="http://www.w3.org/2000/svg" viewBox="0 0 59.77 72.01">
  <path d="M35 43.66a1.45 1.45 0 0 0-.41-.06 30 30 0 0 0-4.67-.4 30.1 30.1 0 0 0-4.77.42 1.26 1.26 0 0 0-.27 0A30.15 30.15 0 0 0 0 70.71 1.2 1.2 0 0 0 1.1 72a1.21 1.21 0 0 0 1.3-1.1 27.73 27.73 0 0 1 22.13-24.76L26.79 50 23.3 64.53a1.19 1.19 0 0 0 .28 1.08l5.4 6h.06a.92.92 0 0 0 .21.13l.14.08a1.14 1.14 0 0 0 .45.1 1.22 1.22 0 0 0 .45-.1l.13-.07c.07 0 .15-.08.22-.14s0 0 0-.06h.05l5.35-6a1.19 1.19 0 0 0 .28-1.08L32.94 50l2.25-3.85A27.73 27.73 0 0 1 57.37 70.9a1.21 1.21 0 0 0 1.2 1.1h.09a1.19 1.19 0 0 0 1.1-1.29A30.13 30.13 0 0 0 35 43.66Zm-5.12 1.94c.93 0 1.85.06 2.75.15L31 48.6h-2.25l-1.67-2.84a26 26 0 0 1 2.8-.16Zm4 18.88L29.87 69l-4.09-4.54L29 51h1.71ZM29.87 40.8a15.46 15.46 0 0 0 9.45-3.19 1.2 1.2 0 1 0-1.46-1.91 13 13 0 0 1-8 2.7 13.21 13.21 0 0 1-13.2-13.2 1 1 0 0 0-.06-.25 1.22 1.22 0 0 0 .06-.26v-7a7.07 7.07 0 0 1 7.06-7.06H36a7.07 7.07 0 0 1 7.07 7.06v7.62a1.33 1.33 0 0 0 .06.3.71.71 0 0 0 .08.15 1 1 0 0 0 .15.24l.14.12a1.07 1.07 0 0 0 .22.15l.2.07.16.05h.22a1.09 1.09 0 0 0 .39-.08.93.93 0 0 0 .19-.11 1 1 0 0 0 .17-.12 1 1 0 0 0 .16-.19l.1-.15a1 1 0 0 0 .08-.25s0-.08 0-.13l1.83-13.58A11.8 11.8 0 0 0 35.49 0H24.25A11.76 11.76 0 0 0 15 4.47 1.2 1.2 0 1 0 16.89 6a9.34 9.34 0 0 1 7.36-3.6h11.24a9.38 9.38 0 0 1 9.4 9.22l-.29 2.13A9.46 9.46 0 0 0 36 8.19H23.73a9.47 9.47 0 0 0-9.46 9.46v7a1.19 1.19 0 0 0 .05.26 1 1 0 0 0-.05.25 15.61 15.61 0 0 0 15.6 15.64Z" />
  <path fill="#fd0" d="M43.68 29.46a1.2 1.2 0 0 0-1.56.66 13.15 13.15 0 0 1-4.42 5.68l.16-.1a1.21 1.21 0 0 1 1.69.23 1.19 1.19 0 0 1-.14 1.58A15.7 15.7 0 0 0 44.35 31a1.2 1.2 0 0 0-.67-1.54ZM15.2 6.16a1.21 1.21 0 0 1-.2-1.69 11.74 11.74 0 0 0-2.53 7.47l.08.58a1.2 1.2 0 0 0 1.19 1h.16a1.2 1.2 0 0 0 1-1.35l-.07-.42a9.26 9.26 0 0 1 2-5.82 1.21 1.21 0 0 1-1.63.23Z" />
</svg>
