<svg xmlns="http://www.w3.org/2000/svg" viewBox="0 0 59.77 72.01">
  <path d="M45.46 22.19a10.2 10.2 0 0 0-20.4 0 4.21 4.21 0 0 1-4.2 4.2h-5.39a1.13 1.13 0 0 0-.36.14 1.15 1.15 0 0 0-.3.28 1.33 1.33 0 0 0-.18.38.13.13 0 0 1 0 .06 1.85 1.85 0 0 0 0 .23.86.86 0 0 0 0 .17v.14a.58.58 0 0 0 0 .14 15.58 15.58 0 0 0 30.9-2.88ZM29.87 38.4a13.09 13.09 0 0 1-12.65-9.61h3.64a6.61 6.61 0 0 0 6.6-6.6 7.8 7.8 0 1 1 15.6 0v3A13.21 13.21 0 0 1 29.87 38.4Z" />
  <path d="M9.47 40.45a1.2 1.2 0 0 0 1.2-1.2V21.6a19.2 19.2 0 1 1 38.4 0v18.15a1.2 1.2 0 1 0 2.4 0V21.6a21.6 21.6 0 0 0-43.2 0v17.65a1.2 1.2 0 0 0 1.2 1.2Zm20.41 2.75A30.13 30.13 0 0 0 0 70.71 1.2 1.2 0 0 0 1.1 72a1.21 1.21 0 0 0 1.3-1.1 27.58 27.58 0 0 1 55 0 1.21 1.21 0 0 0 1.17 1.1h.09a1.19 1.19 0 0 0 1.1-1.29A30.13 30.13 0 0 0 29.88 43.2Z" />
  <path fill="#fd0" d="M50.27 44a1.2 1.2 0 0 0-1.2 1.2v5a29.87 29.87 0 0 1 2.4 2.24v-7.22a1.2 1.2 0 0 0-1.2-1.22Zm-40.8-3.55a1.2 1.2 0 0 1-1.2-1.2v7.65a1.2 1.2 0 1 0 2.4 0v-7.65a1.2 1.2 0 0 1-1.2 1.2Z" />
</svg>
