<svg xmlns="http://www.w3.org/2000/svg" viewBox="0 0 72.05 65.99">
  <path d="M45.25 43.19a4 4 0 1 0 4-4 4 4 0 0 0-4 4Zm5.6 0a1.6 1.6 0 1 1-1.6-1.6 1.6 1.6 0 0 1 1.6 1.6ZM1.2 48a1.2 1.2 0 0 0 1.2-1.2V23.09a2.42 2.42 0 0 1 .7-1.69l5.1-5.1a2.42 2.42 0 0 1 1.69-.7H24a15.31 15.31 0 0 0 .76 4.8H8.4a1.2 1.2 0 0 0 0 2.4h58.82a2.39 2.39 0 0 1 2.39 2.39 1.2 1.2 0 0 0 2.4 0 4.8 4.8 0 0 0-4.79-4.79h-2.41v-2.43a4.8 4.8 0 0 0-4.79-4.77H55a15.58 15.58 0 0 0-30.79 0H9.89a4.8 4.8 0 0 0-3.39 1.41L1.4 19.7A4.83 4.83 0 0 0 0 23.09v23.72A1.2 1.2 0 0 0 1.2 48Zm58.85-32.4a2.4 2.4 0 0 1 2.39 2.4v2.42h-8a15.32 15.32 0 0 0 .77-4.8ZM39.6 2.4a13.22 13.22 0 0 1 13.21 13.2 12.82 12.82 0 0 1-.93 4.8h-9.29a3.24 3.24 0 0 0 1-2.45c0-2.57-2.22-3.34-3.69-3.85s-1.81-.74-1.81-1.19.82-.86 1.55-.86a2.29 2.29 0 0 1 1.7.58 1.2 1.2 0 1 0 1.61-1.79 4.68 4.68 0 0 0-2.11-1.05V9.6a1.2 1.2 0 0 0-2.4 0v.21a3.3 3.3 0 0 0-2.75 3.1c0 2.26 2.06 3 3.42 3.45 1.61.56 2.08.84 2.08 1.59 0 .57-.21.73-.3.8-.66.49-2.38.38-3.67 0a1.2 1.2 0 0 0-1.49.82 1.13 1.13 0 0 0 .07.83h-8.47a12.82 12.82 0 0 1-.93-4.8A13.21 13.21 0 0 1 39.6 2.4Z" />
  <path d="M70.85 38.38a1.2 1.2 0 0 0-1.2 1.2v9h-21a5.4 5.4 0 1 1 0-10.8h21v-2.4h-21a7.8 7.8 0 1 0 0 15.6h21V61.2a2.39 2.39 0 0 1-2.39 2.39H4.83a2.4 2.4 0 0 1-2.39-2.39 1.2 1.2 0 0 0-2.4 0A4.8 4.8 0 0 0 4.83 66h62.43a4.8 4.8 0 0 0 4.79-4.79V39.58a1.2 1.2 0 0 0-1.2-1.2Z" />
  <path fill="#fd0" d="M70.85 31.18a1.2 1.2 0 0 0-1.2 1.2v7.2a1.2 1.2 0 0 1 2.4 0v-7.2a1.2 1.2 0 0 0-1.2-1.2ZM1.24 48A1.2 1.2 0 0 1 0 46.8V54a1.2 1.2 0 0 0 2.4 0v-7.2A1.2 1.2 0 0 1 1.24 48Z" />
</svg>
