<svg xmlns="http://www.w3.org/2000/svg" viewBox="0 0 72.01 51.61">
  <path d="M70.81 20.4a1.2 1.2 0 0 0-1.2 1.2v19.2a1.2 1.2 0 0 1-1.2 1.2H3.6a1.2 1.2 0 0 1-1.2-1.2V36A1.2 1.2 0 0 0 0 36v4.8a3.6 3.6 0 0 0 3.6 3.6h31.2v4.81H21.6a1.2 1.2 0 1 0 0 2.4h28.81a1.2 1.2 0 1 0 0-2.4H37.2V44.4h31.21A3.6 3.6 0 0 0 72 40.8V21.6a1.2 1.2 0 0 0-1.19-1.2ZM68.41 0H3.6A3.61 3.61 0 0 0 0 3.6v18a1.2 1.2 0 0 0 2.4 0v-18a1.2 1.2 0 0 1 1.2-1.2h64.81a1.2 1.2 0 0 1 1.2 1.2v3.6a1.2 1.2 0 1 0 2.4 0V3.6a3.61 3.61 0 0 0-3.6-3.6Z" />
  <path d="M4.8 14.4A1.2 1.2 0 0 0 6 15.6h60a1.2 1.2 0 1 0 0-2.4H6a1.2 1.2 0 0 0-1.2 1.2Z" />
  <circle cx="9" cy="8.4" r="1.8" />
  <circle cx="14.4" cy="8.4" r="1.8" />
  <circle cx="19.8" cy="8.4" r="1.8" />
  <path fill="#fd0" d="M1.2 22.8A1.2 1.2 0 0 1 0 21.6v7.2a1.2 1.2 0 0 0 2.4 0v-7.2a1.2 1.2 0 0 1-1.2 1.2Zm69.61-9.6a1.2 1.2 0 0 0-1.2 1.2v7.2a1.2 1.2 0 1 1 2.4 0v-7.2a1.2 1.2 0 0 0-1.2-1.2Z" />
</svg>
