<svg xmlns="http://www.w3.org/2000/svg" viewBox="0 0 72.01 51.61">
  <path d="M66 20.37H36a1.2 1.2 0 0 0 0 2.4h30a1.2 1.2 0 1 0 0-2.4Zm0 7.2H36A1.2 1.2 0 0 0 36 30h30a1.2 1.2 0 1 0 0-2.4Zm0 7.2H36a1.2 1.2 0 1 0 0 2.4h30a1.2 1.2 0 0 0 0-2.4ZM9 6.57a1.81 1.81 0 0 0-1.8 1.8 1.8 1.8 0 1 0 3.6 0A1.81 1.81 0 0 0 9 6.57Zm5.4 0a1.81 1.81 0 0 0-1.8 1.8 1.8 1.8 0 1 0 3.6 0 1.8 1.8 0 0 0-1.8-1.8Zm5.4 0a1.81 1.81 0 0 0-1.8 1.8 1.8 1.8 0 0 0 3.6 0 1.8 1.8 0 0 0-1.8-1.8Zm-8.4 27.6V36a1.2 1.2 0 0 0 1.2 1.2h10.8a1.19 1.19 0 0 0 1.2-1.2v-1.8a6.57 6.57 0 0 0-4.3-6.2 3.9 3.9 0 1 0-4.6 0 6.58 6.58 0 0 0-4.3 6.17Zm6.6-10.8a1.5 1.5 0 1 1-1.5 1.5 1.5 1.5 0 0 1 1.5-1.5Zm-4.2 10.8a4.2 4.2 0 0 1 8.4 0v.6h-8.4Z" />
  <path d="M70.81 20.4a1.2 1.2 0 0 0-1.2 1.2v19.2a1.2 1.2 0 0 1-1.2 1.2H3.6a1.2 1.2 0 0 1-1.2-1.2V36A1.2 1.2 0 0 0 0 36v4.8a3.6 3.6 0 0 0 3.6 3.6h31.2v4.81H21.6a1.2 1.2 0 1 0 0 2.4h28.81a1.2 1.2 0 1 0 0-2.4H37.2V44.4h31.21A3.6 3.6 0 0 0 72 40.8V21.6a1.2 1.2 0 0 0-1.19-1.2ZM68.41 0H3.6A3.61 3.61 0 0 0 0 3.6v18a1.2 1.2 0 0 0 2.4 0v-18a1.2 1.2 0 0 1 1.2-1.2h64.81a1.2 1.2 0 0 1 1.2 1.2v3.6a1.2 1.2 0 1 0 2.4 0V3.6a3.61 3.61 0 0 0-3.6-3.6Z" />
  <path d="M6 15.6h60a1.2 1.2 0 0 0 1.2-1.2 1.2 1.2 0 0 0-1.2-1.2H6a1.2 1.2 0 0 0-1.2 1.2A1.2 1.2 0 0 0 6 15.6Z" />
  <path fill="#fd0" d="M1.2 22.8A1.2 1.2 0 0 1 0 21.6v7.2a1.2 1.2 0 0 0 2.4 0v-7.2a1.2 1.2 0 0 1-1.2 1.2Zm69.61-9.6a1.2 1.2 0 0 0-1.2 1.2v7.2a1.2 1.2 0 1 1 2.4 0v-7.2a1.2 1.2 0 0 0-1.2-1.2Z" />
</svg>
