<svg xmlns="http://www.w3.org/2000/svg" preserveAspectRatio="xMidYMid" viewBox="0 0 256 257">
  <defs>
    <linearGradient id="b" x1="50%" x2="50%" y1="99.99%" y2="-.01%">
      <stop offset="0%" stop-color="#20B038" />
      <stop offset="100%" stop-color="#60D66A" />
    </linearGradient>
    <filter id="a" width="200%" height="200%" x="-50%" y="-50%" filterUnits="objectBoundingBox">
      <feGaussianBlur in="SourceGraphic" result="blur" stdDeviation="3" />
    </filter>
  </defs>
  <path fill-opacity=".24" d="m.3 244 17.15-62.6a120.35 120.35 0 0 1-16.11-60.39C1.34 54.36 55.59.17 122.24.17c32.34 0 62.71 12.58 85.49 35.41a119.83 119.83 0 0 1 35.35 85.5c0 66.64-54.25 120.83-120.9 120.83h-.06c-20.22 0-40.1-5.1-57.78-14.72L.3 244zm67.05-38.72 3.66 2.2a100.73 100.73 0 0 0 51.11 14.03h.06c55.35 0 100.44-45.03 100.44-100.44a99.96 99.96 0 0 0-29.38-71.05 99.68 99.68 0 0 0-71.06-29.45c-55.4 0-100.5 45.04-100.5 100.44 0 18.96 5.28 37.44 15.36 53.44l2.38 3.83-10.14 37.03 38.07-10.03z" filter="url(#a)" transform="translate(6 7)" />
  <path fill="url(#b)" d="m5.78 237.54 16.37-59.7a115.21 115.21 0 0 1-15.4-57.58C6.75 56.72 58.5 5.04 121.97 5.04c30.86 0 59.76 12.02 81.51 33.77a114.51 114.51 0 0 1 33.72 81.5c0 63.54-51.75 115.23-115.23 115.23h-.05c-19.3 0-38.24-4.87-55.07-14.03L5.78 237.54z" transform="translate(6 7)" />
  <path fill="#FFF" d="m7.6 248.72 16.95-61.82a118.85 118.85 0 0 1-15.92-59.64c0-65.83 53.58-119.34 119.4-119.34 31.94 0 61.93 12.42 84.43 34.97a118.34 118.34 0 0 1 34.91 84.42c0 65.83-53.57 119.35-119.4 119.35h-.05c-19.98 0-39.61-5.04-57.07-14.54L7.6 248.72zm66.23-38.24 3.6 2.18a99.48 99.48 0 0 0 50.49 13.85h.05c54.67 0 99.2-44.48 99.2-99.2a98.7 98.7 0 0 0-29.02-70.17 98.44 98.44 0 0 0-70.18-29.08c-54.71 0-99.25 44.48-99.25 99.2a98.8 98.8 0 0 0 15.17 52.77l2.35 3.78-10.02 36.57 37.6-9.9z" />
  <path fill="#FFF" d="M98.15 77.29c-2.23-4.98-4.58-5.1-6.7-5.15-1.71-.06-3.71-.06-5.72-.06-2 0-5.2.74-7.95 3.72-2.75 2.98-10.42 10.19-10.42 24.9 0 14.65 10.7 28.85 12.2 30.85 1.48 2 20.65 33.08 50.93 45.05 25.19 9.96 30.34 7.95 35.78 7.44 5.5-.52 17.63-7.21 20.15-14.2 2.46-6.98 2.46-12.93 1.71-14.2-.74-1.25-2.75-2-5.72-3.48-2.98-1.5-17.63-8.7-20.38-9.73-2.75-1.03-4.75-1.5-6.7 1.48-2 2.98-7.72 9.68-9.44 11.68-1.72 2-3.5 2.23-6.47.74-2.97-1.48-12.59-4.63-23.98-14.82-8.87-7.9-14.88-17.69-16.6-20.66-1.72-2.98-.17-4.58 1.32-6.07 1.31-1.32 2.97-3.5 4.46-5.2 1.49-1.73 2-2.99 2.98-4.99.97-2 .51-3.72-.23-5.2-.75-1.5-6.58-16.2-9.22-22.1z" />
</svg>
