<svg xmlns="http://www.w3.org/2000/svg" viewBox="0 0 60.01 59.94">
  <path d="M51.47 21.66a42.81 42.81 0 0 0-42.93 0 1.2 1.2 0 1 0 1.21 2.07 40.43 40.43 0 0 1 40.51 0 1.2 1.2 0 0 0 1.21-2.07ZM30 48a6 6 0 1 0 6 6 6 6 0 0 0-6-6ZM52.85 4.61A58.89 58.89 0 0 0 .6 7.87a1.2 1.2 0 0 0 .6 2.24 1.17 1.17 0 0 0 .6-.11 56.49 56.49 0 0 1 50.12-3.18 1.21 1.21 0 0 0 1.57-.64 1.19 1.19 0 0 0-.64-1.57ZM42.53 37.15a25.19 25.19 0 0 0-18-2.78 1.2 1.2 0 1 0 .53 2.34 22.77 22.77 0 0 1 16.26 2.51 1.2 1.2 0 1 0 1.22-2.07Z" />
  <path fill="#fd0" d="M59.41 7.87a58.88 58.88 0 0 0-6.56-3.26 1.2 1.2 0 0 1-.93 2.21A56.66 56.66 0 0 1 58.21 10a1.17 1.17 0 0 0 .6.16 1.22 1.22 0 0 0 1-.6 1.2 1.2 0 0 0-.4-1.69ZM23.61 35.8a1.2 1.2 0 0 1 .91-1.43 24.18 24.18 0 0 0-7 2.78 1.2 1.2 0 0 0 .61 2.24 1.28 1.28 0 0 0 .61-.17 21.65 21.65 0 0 1 6.35-2.51 1.21 1.21 0 0 1-1.48-.91Z" />
</svg>
