<svg xmlns="http://www.w3.org/2000/svg" viewBox="0 0 60.04 59.99">
  <path d="M58.49 20.53a1.19 1.19 0 0 0-1.49-.76c-.89-.18-3.24-2.88-3.7-4.09a3.61 3.61 0 0 0-3.05-2A4.23 4.23 0 0 0 46.29 15a2.24 2.24 0 0 1-.17.2h-.25a3.13 3.13 0 0 0-2.32.64c-1.3 1-1.1 2.47-.94 3.66a7.52 7.52 0 0 1 0 2.6c-.59 2.92 1.43 5.41 3.51 6.76a5.78 5.78 0 0 1 .74.59c.92.84 1.72 1.41 4.49 1.81a1.23 1.23 0 0 1 1 .64c.74 1.36 0 4.44-1 6.78a11.64 11.64 0 0 0-.17 9.06c-.53.63-1.08 1.25-1.67 1.84a27.64 27.64 0 0 1-30.25 5.82 1.19 1.19 0 0 0-.08-2.23h-.09a1.44 1.44 0 0 1 0-.88c.1-.31.27-.36.33-.38.26-.07 6.36-1.76 7.34-3.66a2.36 2.36 0 0 0 .11-1.88l.71-.12c1.32-.22 3.13-.51 3.89-2a7.68 7.68 0 0 0 .66-2.25 5.77 5.77 0 0 1 .73-2.2 4.86 4.86 0 0 1 1.24-1.2c1-.79 2.4-1.87 2.18-4.1-.19-2-2.05-2.65-3.7-3.21a7.29 7.29 0 0 1-3.79-2.22c-.5-.68-.89-1.25-1.23-1.74-1.25-1.81-2.07-3-4.22-2.71a3.15 3.15 0 0 1-.44-.62 3.18 3.18 0 0 0-3.5-1.92c-.73.13-.91 0-1.18-.16a2.31 2.31 0 0 0-2.78 0 2.16 2.16 0 0 1-1.76.34c.1-1.21-.4-4.59-2.2-5.4a2.08 2.08 0 0 0-2 .22 2.62 2.62 0 0 1 .1-.45 1.1 1.1 0 0 1 .45-.68 6.55 6.55 0 0 1 2.59-.58 2.09 2.09 0 0 0 0 1.29c.42 1.38 2.1 2 3.44 2.45a4.23 4.23 0 0 0 3.32.24 1.42 1.42 0 0 0 1-1.36c-.12-1-1.14-1.08-1.52-1.1-.54 0-2.18-.12-2.68-.77a2.55 2.55 0 0 1-.44-1.9 1.57 1.57 0 0 1 .42-1c.23-.16.52-.33.85-.52a10.92 10.92 0 0 0 3.62-2.88 5.82 5.82 0 0 1 3.15-2.22 18.88 18.88 0 0 1 4-.75 1.25 1.25 0 0 0 1.13-.94c.22-.92-.46-1.31-1.41-1.84-.58-.33-1.42-.8-2.11-1.29a30 30 0 0 1 2.12-.29A6.69 6.69 0 0 0 35.33 5c1.47-.63 2.65 0 3.92.85a3.14 3.14 0 0 0 1.74.4 10.6 10.6 0 0 0 2.47-.34c.48.27.95.55 1.41.85a2.35 2.35 0 0 0-.19.39c-.34 1.21.62 2.23 1.14 2.79.17.19.26.33.31.34a.83.83 0 0 1-.15.09 2.45 2.45 0 0 0-1.55 1.93 1.47 1.47 0 0 0 .71 1.35 1.67 1.67 0 0 0 .89.24 3.53 3.53 0 0 0 1.75-.58 5 5 0 0 0 1.8-2c.11-.18.26-.43.17-.46a1.83 1.83 0 0 1 .5.23 1.21 1.21 0 0 0 1.64-.43A1.19 1.19 0 0 0 51.47 9h-.1a.7.7 0 0 0-.14-.21A29.78 29.78 0 0 0 30 0c-.51 0-1 .05-1.53.07a1.19 1.19 0 0 0-.83 0A29.76 29.76 0 0 0 8.8 8.79 31.83 31.83 0 0 0 5 13.46a1.22 1.22 0 0 0-.6 1 29.82 29.82 0 0 0-2.84 25 1.2 1.2 0 1 0 2.28-.76 27.52 27.52 0 0 1 1.1-20.23A5.64 5.64 0 0 0 7.07 21c.33.25.71.53 1.11.88a19.08 19.08 0 0 0 1.94 1.42c1.1.75 2.47 1.67 2.56 2.38a1.4 1.4 0 0 1-.47 1c-2.66 3.04-3.21 3.88-1.76 7.03.31.66.54 1.26.75 1.8a7.16 7.16 0 0 0 2.8 4.05c1.33.84 1.58 1.1.91 3.32l-.13.41c-.65 2.09-2.11 6.84.29 9.93a27.71 27.71 0 0 1-4.61-3.7 1.2 1.2 0 0 0-1.7 1.7 30 30 0 0 0 49.73-30.69ZM34.39 2.78a4.07 4.07 0 0 1-3.45-.33 26.49 26.49 0 0 1 3.46.33ZM7.07 17.45a7.06 7.06 0 0 1-.3-2.33A27.63 27.63 0 0 1 22.58 3.43a1.07 1.07 0 0 0 .2.32A9.24 9.24 0 0 0 24.31 5a11.86 11.86 0 0 0-1.4.41 8.26 8.26 0 0 0-4.23 3.05 8.82 8.82 0 0 1-2.85 2.21 8.84 8.84 0 0 0-1 .63 3.38 3.38 0 0 0-1.26 1.7 8.63 8.63 0 0 0-4.57.79 4 4 0 0 0-1.93 3.66ZM9.76 20l-.17-.14a3.05 3.05 0 0 0 1-.66 5.68 5.68 0 0 1 .6 1.89A16 16 0 0 1 9.76 20Zm3.68 14.61c-.23-.58-.48-1.23-.82-2-.87-1.85-.87-1.85 1.41-4.49a3.62 3.62 0 0 0 1-2.87 3.17 3.17 0 0 0-.17-.69 5.64 5.64 0 0 0 1.75-.56c.23-.12.32-.14.29-.08a3.57 3.57 0 0 0 2.93.52c.4-.08.5-.06 1 .8A2.8 2.8 0 0 0 23.66 27c.62-.08.69-.1 1.92 1.69.35.51.76 1.11 1.28 1.81a9.32 9.32 0 0 0 4.95 3.07c1.27.43 2 .73 2.09 1.17.08.84-.25 1.17-1.28 2a6.83 6.83 0 0 0-1.8 1.83 7.93 7.93 0 0 0-1.05 3 5.75 5.75 0 0 1-.44 1.57c-.21.42-1.37.6-2.13.73a7.24 7.24 0 0 0-1.82.45 1.78 1.78 0 0 0-.87 2.58c0 .1.1.24.14.2-.43.55-3.45 1.83-5.86 2.49a2.87 2.87 0 0 0-2 1.93c-1.1-1.69-.7-4.28.29-7.49l.14-.42c.92-3 .46-4.52-1.91-6-1.01-.74-1.31-1.53-1.87-2.97ZM53 45.35a9.8 9.8 0 0 1 .6-5.73c.45-1 2.58-6 .95-8.93a3.6 3.6 0 0 0-2.78-1.87c-2.24-.32-2.65-.69-3.21-1.2a7.85 7.85 0 0 0-1.05-.83c-.49-.32-2.92-2-2.47-4.28a9.79 9.79 0 0 0 0-3.39c-.11-.8-.16-1.3 0-1.43s.35-.18.7-.15a2.55 2.55 0 0 0 2.52-1.14 1.65 1.65 0 0 1 1.25-.34 2.55 2.55 0 0 1 1.56.46c.41 1.08 3 5 5.44 5.61A27.41 27.41 0 0 1 53 45.35Z" />
  <path fill="#fd0" d="M58.87 21.75c0-.19-.13-.38-.18-.57l.19.65-.01-.08Zm-5.35-8.46a1.19 1.19 0 0 0-.35 1.71 29.29 29.29 0 0 1 1.7 3A5.9 5.9 0 0 0 57 19.77a1.2 1.2 0 0 1 1.47.67 30.21 30.21 0 0 0-3.27-6.8 1.21 1.21 0 0 0-1.68-.35ZM1.17 38.26l.17.53-.18-.61.01.08Zm2.47-.17.18.63a1.19 1.19 0 0 1-2.24.81 30.32 30.32 0 0 0 3.28 6.84 1.21 1.21 0 0 0 1 .54 1.17 1.17 0 0 0 .65-.19 1.19 1.19 0 0 0 .35-1.66 27.45 27.45 0 0 1-3.22-6.97Z" />
</svg>
